<?xml version="1.0" encoding="utf-8"?>
<!-- Generator: Adobe Illustrator 13.0.0, SVG Export Plug-In . SVG Version: 6.00 Build 14948)  -->
<!DOCTYPE svg PUBLIC "-//W3C//DTD SVG 1.1//EN" "http://www.w3.org/Graphics/SVG/1.1/DTD/svg11.dtd">
<svg version="1.1" id="Слой_1" xmlns="http://www.w3.org/2000/svg" xmlns:xlink="http://www.w3.org/1999/xlink" x="0px" y="0px"
	 width="325px" height="87px" viewBox="0 0 325 87" enable-background="new 0 0 325 87" xml:space="preserve">
<g>
	<path fill="#63A92A" d="M35.74,9.91c2.189,0,3.979,1.78,3.979,3.96c0,2.19-1.79,3.97-3.979,3.97c-2.2,0-3.98-1.78-3.98-3.97
		C31.76,11.689,33.54,9.91,35.74,9.91z"/>
	<path fill="#63A92A" d="M9.02,25.27c1.1-1.9,3.53-2.54,5.44-1.45c1.9,1.09,2.55,3.52,1.45,5.41c-1.09,1.9-3.53,2.55-5.43,1.46
		C8.57,29.589,7.92,27.169,9.02,25.27z"/>
	<path fill="#63A92A" d="M55.56,52.029c1.1-1.9,3.53-2.55,5.44-1.449c1.9,1.09,2.55,3.51,1.45,5.41
		c-1.1,1.899-3.53,2.549-5.43,1.449C55.11,56.35,54.46,53.92,55.56,52.029z"/>
	<path fill="#63A92A" d="M9.02,38.649c1.1-1.9,3.53-2.55,5.44-1.45c1.9,1.09,2.55,3.52,1.45,5.41c-1.09,1.9-3.53,2.55-5.43,1.45
		C8.57,42.97,7.92,40.54,9.02,38.649z"/>
	<path fill="#63A92A" d="M9.02,55.99c-1.1-1.9-0.45-4.32,1.46-5.41c1.9-1.101,4.34-0.451,5.43,1.449c1.1,1.891,0.45,4.32-1.45,5.41
		C12.55,58.539,10.12,57.89,9.02,55.99z"/>
	<path fill="#63A92A" d="M55.56,29.229c-1.1-1.89-0.45-4.32,1.46-5.41c1.9-1.09,4.33-0.45,5.43,1.45c1.1,1.9,0.45,4.32-1.45,5.42
		C59.09,31.78,56.66,31.129,55.56,29.229z"/>
	<path fill="#63A92A" d="M55.56,38.649c1.1-1.9,3.53-2.55,5.44-1.45c1.9,1.09,2.55,3.52,1.45,5.41c-1.1,1.9-3.53,2.55-5.44,1.45
		C55.11,42.97,54.46,40.54,55.56,38.649z"/>
	<path fill="#63A92A" d="M24.1,16.6c2.2,0,3.98,1.77,3.98,3.96s-1.78,3.97-3.98,3.97c-2.2,0-3.98-1.78-3.98-3.97
		S21.9,16.6,24.1,16.6z"/>
	<path fill="#63A92A" d="M47.37,16.6c-2.2,0-3.98,1.77-3.98,3.96s1.78,3.97,3.98,3.97s3.98-1.78,3.98-3.97S49.57,16.6,47.37,16.6z"
		/>
	<path fill="#63A92A" d="M35.74,71.35c2.189,0,3.979-1.77,3.979-3.96s-1.79-3.97-3.979-3.97c-2.2,0-3.98,1.779-3.98,3.97
		S33.54,71.35,35.74,71.35z"/>
	<path fill="#63A92A" d="M24.1,64.66c2.2,0,3.98-1.771,3.98-3.961c0-2.189-1.78-3.97-3.98-3.97c-2.2,0-3.98,1.78-3.98,3.97
		C20.12,62.89,21.9,64.66,24.1,64.66z"/>
	<path fill="#63A92A" d="M47.37,64.66c-2.2,0-3.98-1.771-3.98-3.961c0-2.189,1.78-3.97,3.98-3.97s3.98,1.78,3.98,3.97
		C51.35,62.89,49.57,64.66,47.37,64.66z"/>
	<path fill="#BEBD2F" d="M38.32,1.49c0.83,1.42,0.34,3.24-1.09,4.06c-1.43,0.82-3.26,0.33-4.08-1.09s-0.33-3.24,1.09-4.06
		C35.67-0.42,37.5,0.06,38.32,1.49z"/>
	<path fill="#BEBD2F" d="M38.32,76.799c0.83,1.421,0.34,3.24-1.09,4.061s-3.26,0.34-4.08-1.08c-0.82-1.43-0.33-3.25,1.09-4.07
		C35.67,74.89,37.5,75.379,38.32,76.799z"/>
	<path fill="#BEBD2F" d="M2.99,18.83c1.649,0,2.979,1.33,2.979,2.97c0,1.64-1.33,2.98-2.979,2.98c-1.65,0-2.99-1.34-2.99-2.98
		C0,20.16,1.34,18.83,2.99,18.83z"/>
	<path fill="#BEBD2F" d="M68.49,56.49c1.64,0,2.979,1.33,2.979,2.969c0,1.641-1.34,2.971-2.979,2.971c-1.65,0-2.99-1.33-2.99-2.971
		C65.5,57.82,66.84,56.49,68.49,56.49z"/>
	<path fill="#BEBD2F" d="M0.4,57.97c0.83-1.421,2.65-1.91,4.08-1.091c1.43,0.83,1.92,2.641,1.09,4.07
		c-0.82,1.42-2.65,1.91-4.08,1.08C0.06,61.209-0.42,59.39,0.4,57.97z"/>
	<path fill="#BEBD2F" d="M65.9,20.32c0.82-1.43,2.65-1.91,4.08-1.09s1.92,2.64,1.09,4.06c-0.82,1.42-2.65,1.91-4.08,1.09
		C65.57,23.549,65.08,21.74,65.9,20.32z"/>
	<path fill="#BEBD2F" d="M0.4,45.83c0.82-1.42,2.65-1.91,4.08-1.08c1.43,0.82,1.92,2.629,1.09,4.06c-0.82,1.42-2.65,1.91-4.08,1.08
		C0.06,49.07-0.42,47.25,0.4,45.83z"/>
	<path fill="#BEBD2F" d="M0.4,32.459c0.82-1.43,2.65-1.91,4.08-1.09c1.43,0.82,1.92,2.64,1.09,4.06c-0.82,1.42-2.65,1.91-4.08,1.09
		C0.06,35.689-0.42,33.879,0.4,32.459z"/>
	<path fill="#BEBD2F" d="M13.5,12.68c1.65,0,2.98,1.33,2.98,2.97c0,1.65-1.33,2.98-2.98,2.98s-2.99-1.33-2.99-2.98
		C10.51,14.009,11.85,12.68,13.5,12.68z"/>
	<path fill="#BEBD2F" d="M25.13,5.99c1.65,0,2.99,1.33,2.99,2.98c0,1.64-1.34,2.97-2.99,2.97c-1.65,0-2.98-1.33-2.98-2.97
		C22.15,7.32,23.48,5.99,25.13,5.99z"/>
	<path fill="#BEBD2F" d="M57.97,12.68c-1.649,0-2.979,1.33-2.979,2.97c0,1.65,1.33,2.98,2.979,2.98c1.65,0,2.99-1.33,2.99-2.98
		C60.96,14.009,59.62,12.68,57.97,12.68z"/>
	<path fill="#BEBD2F" d="M46.34,5.99c-1.65,0-2.99,1.33-2.99,2.98c0,1.64,1.34,2.97,2.99,2.97c1.65,0,2.98-1.33,2.98-2.97
		C49.32,7.32,47.99,5.99,46.34,5.99z"/>
	<path fill="#BEBD2F" d="M13.5,68.58c1.65,0,2.98-1.33,2.98-2.971c0-1.65-1.33-2.98-2.98-2.98s-2.99,1.33-2.99,2.98
		C10.51,67.25,11.85,68.58,13.5,68.58z"/>
	<path fill="#BEBD2F" d="M25.13,75.27c1.65,0,2.99-1.33,2.99-2.971c0-1.649-1.34-2.979-2.99-2.979c-1.65,0-2.98,1.329-2.98,2.979
		C22.15,73.939,23.48,75.27,25.13,75.27z"/>
	<path fill="#BEBD2F" d="M57.97,68.58c-1.649,0-2.979-1.33-2.979-2.971c0-1.65,1.33-2.98,2.979-2.98c1.65,0,2.99,1.33,2.99,2.98
		C60.96,67.25,59.62,68.58,57.97,68.58z"/>
	<path fill="#BEBD2F" d="M46.34,75.27c-1.65,0-2.99-1.33-2.99-2.971c0-1.649,1.34-2.979,2.99-2.979c1.65,0,2.98,1.329,2.98,2.979
		C49.32,73.939,47.99,75.27,46.34,75.27z"/>
	<path fill="#BEBD2F" d="M65.9,45.83c0.82-1.42,2.65-1.91,4.08-1.08c1.42,0.82,1.91,2.629,1.09,4.06c-0.82,1.42-2.65,1.91-4.08,1.08
		C65.56,49.07,65.07,47.25,65.9,45.83z"/>
	<path fill="#BEBD2F" d="M65.9,32.459c0.82-1.43,2.65-1.91,4.08-1.09c1.42,0.82,1.91,2.64,1.09,4.06c-0.82,1.42-2.65,1.91-4.08,1.09
		C65.56,35.689,65.07,33.879,65.9,32.459z"/>
	<path fill="#009299" d="M35.74,21.799c-2.75,0-4.98,2.22-4.98,4.96c0,1.78,1.2,3.561,1.99,3.96c2.39,1.19,1.59,3.97,0,4.76
		s-4.18,0.39-4.18-2.38c0-1.19-0.86-2.79-2.41-3.68c-2.38-1.37-5.42-0.56-6.8,1.81c-1.37,2.37-0.561,5.4,1.819,6.77
		c1.55,0.89,3.21,0.85,4.41,0.25c2.38-1.19,4.17,0.43,4.18,2.38c-0.01,1.95-1.8,3.56-4.18,2.37c-1.2-0.59-2.86-0.64-4.41,0.25
		c-2.38,1.37-3.189,4.4-1.819,6.77c1.38,2.37,4.42,3.189,6.8,1.82c1.55-0.891,2.41-2.49,2.41-3.68c0-2.781,2.59-3.181,4.18-2.38
		c1.59,0.79,2.39,3.56,0,4.75c-0.79,0.4-1.99,2.18-1.99,3.971c0,2.729,2.23,4.949,4.98,4.949c2.74,0,4.97-2.22,4.97-4.949
		c0-1.791-1.19-3.57-1.99-3.971c-2.39-1.189-1.59-3.959,0.01-4.77c1.58-0.78,4.17-0.38,4.17,2.401c0,1.189,0.86,2.799,2.41,3.689
		c2.38,1.37,5.43,0.561,6.8-1.811c1.37-2.369,0.56-5.399-1.82-6.77c-1.55-0.89-3.21-0.86-4.44-0.27c-2.35,1.19-4.14-0.42-4.14-2.38
		s1.79-3.56,4.14-2.38c1.23,0.6,2.89,0.63,4.44-0.27c2.38-1.36,3.19-4.39,1.82-6.76c-1.37-2.37-4.42-3.18-6.8-1.82
		c-1.55,0.9-2.41,2.51-2.41,3.7c0,2.77-2.59,3.17-4.17,2.39c-1.6-0.8-2.4-3.58-0.01-4.77c0.8-0.39,1.99-2.18,1.99-3.96
		c0-2.74-2.23-4.96-4.97-4.96V21.799z"/>
	<path fill-rule="evenodd" clip-rule="evenodd" d="M157.41,78.16h3.14c0.41,0,0.78,0.139,1.1,0.399c0.34,0.261,0.51,0.62,0.51,1.08
		c0,0.5-0.14,0.88-0.42,1.17c-0.28,0.261-0.74,0.399-1.38,0.399h-2.95V78.16z M271.95,78.14h2.78v1.989l-0.7,0.381
		c-0.261,0.119-0.53,0.25-0.811,0.359c-0.27,0.11-0.55,0.211-0.85,0.301c-0.28,0.07-0.56,0.1-0.82,0.1c-0.54,0-0.989-0.13-1.34-0.38
		c-0.34-0.25-0.51-0.63-0.51-1.14c0-0.351,0.069-0.641,0.21-0.851c0.15-0.22,0.35-0.38,0.58-0.479c0.22-0.11,0.46-0.19,0.72-0.221
		C271.48,78.16,271.72,78.14,271.95,78.14z M177.26,77.99h2.73c0.68,0,1.17,0.17,1.47,0.51c0.3,0.32,0.45,0.68,0.45,1.08
		c0,0.539-0.17,0.939-0.51,1.229c-0.33,0.271-0.801,0.399-1.41,0.399h-2.73V77.99z M237.93,76.369v1.58h6.11v-1.58H237.93z
		 M312.2,74c0.569,0,1.02,0.149,1.36,0.459c0.34,0.301,0.51,0.851,0.51,1.65v3c0,0.41-0.061,0.76-0.17,1.04
		c-0.101,0.271-0.24,0.49-0.42,0.66c-0.19,0.149-0.4,0.261-0.66,0.33c-0.24,0.06-0.5,0.09-0.78,0.09c-0.44,0-0.89-0.04-1.34-0.13
		c-0.46-0.08-1.011-0.26-1.66-0.52v-5.36c0.229-0.149,0.479-0.3,0.771-0.44c0.279-0.15,0.56-0.289,0.85-0.4
		c0.29-0.109,0.58-0.209,0.84-0.279C311.77,74.029,312.01,74,312.2,74z M120.06,74c0.57,0,1.03,0.149,1.36,0.459
		c0.34,0.301,0.51,0.851,0.51,1.65v3c0,0.41-0.06,0.76-0.17,1.04c-0.1,0.271-0.24,0.49-0.42,0.66c-0.19,0.149-0.41,0.261-0.66,0.33
		c-0.24,0.06-0.5,0.09-0.79,0.09c-0.439,0-0.88-0.04-1.33-0.13c-0.46-0.08-1.01-0.26-1.66-0.52v-5.36c0.23-0.149,0.48-0.3,0.77-0.44
		c0.28-0.15,0.56-0.289,0.84-0.4c0.3-0.109,0.59-0.209,0.85-0.279C119.63,74.029,119.87,74,120.06,74z M157.41,73.949h2.95
		c0.41,0,0.79,0.11,1.13,0.32c0.34,0.2,0.51,0.52,0.51,0.971c0,0.43-0.14,0.75-0.43,0.979c-0.271,0.21-0.641,0.319-1.101,0.319
		h-3.06V73.949z M301.02,73.89c0.32,0,0.631,0.05,0.91,0.149c0.301,0.08,0.551,0.23,0.76,0.451c0.23,0.189,0.41,0.439,0.541,0.75
		c0.119,0.309,0.189,0.689,0.189,1.129v0.4h-4.8v-0.471c0-0.409,0.06-0.76,0.19-1.059c0.129-0.311,0.299-0.561,0.529-0.75
		c0.23-0.201,0.48-0.351,0.77-0.451C300.39,73.939,300.689,73.89,301.02,73.89z M108.88,73.89c0.32,0,0.63,0.05,0.91,0.149
		c0.3,0.08,0.55,0.23,0.76,0.451c0.23,0.189,0.41,0.439,0.54,0.75c0.13,0.309,0.19,0.689,0.19,1.129v0.4h-4.8v-0.471
		c0-0.409,0.06-0.76,0.19-1.059c0.13-0.311,0.3-0.561,0.53-0.75c0.229-0.201,0.479-0.351,0.77-0.451
		C108.25,73.939,108.55,73.89,108.88,73.89z M258.23,72.35v4.33c0,0.92-0.041,1.66-0.141,2.22c-0.09,0.57-0.23,1.021-0.43,1.38
		c-0.18,0.33-0.42,0.6-0.721,0.801c-0.3,0.199-0.64,0.39-1.039,0.569l0.739,1.46c0.5-0.199,0.95-0.439,1.36-0.72
		c0.43-0.28,0.79-0.649,1.08-1.12c0.3-0.46,0.54-1.061,0.71-1.779c0.17-0.711,0.25-1.621,0.25-2.701v-2.84h3.67v8.871h1.83V72.35
		H258.23z M206.73,72.35V82.82h1.68l3.479-5.141l1.591-2.439h0.109v7.58h1.87V72.35h-1.72l-3.5,5.16l-1.58,2.39h-0.08v-7.55H206.73z
		 M195.71,72.35V82.82h1.68l3.48-5.141l1.59-2.439h0.11v7.58h1.869V72.35h-1.72l-3.51,5.16l-1.57,2.39h-0.079v-7.55H195.71z
		 M155.56,72.35V82.82h5.12c0.55,0,1.04-0.101,1.45-0.281c0.42-0.18,0.76-0.42,1.03-0.719c0.29-0.311,0.5-0.66,0.64-1.041
		c0.14-0.38,0.21-0.76,0.21-1.14c0-0.41-0.109-0.83-0.34-1.261c-0.21-0.449-0.58-0.799-1.1-1.039c0.439-0.24,0.75-0.561,0.949-0.95
		c0.2-0.399,0.301-0.78,0.301-1.17c0-0.37-0.061-0.74-0.19-1.08c-0.13-0.351-0.33-0.66-0.6-0.92c-0.25-0.271-0.58-0.49-0.97-0.64
		c-0.4-0.15-0.87-0.23-1.42-0.23H155.56z M125.97,72.35V82.82h1.83V78.35h5.01v4.471h1.85V72.35h-1.85v4.35h-5.01v-4.35H125.97z
		 M287.35,72.33v1.629h3.25v8.861h1.891v-8.861h3.27V72.33H287.35z M246.41,72.33v10.49h1.81v-4.441h2.021
		c0.24,0,0.46,0.021,0.66,0.061c0.189,0.03,0.38,0.1,0.55,0.21c0.17,0.101,0.31,0.25,0.439,0.46c0.141,0.2,0.271,0.471,0.391,0.811
		l0.909,2.9h1.91l-1.13-3.41c-0.159-0.521-0.36-0.971-0.59-1.33c-0.229-0.381-0.58-0.631-1.06-0.74c0.399-0.12,0.71-0.34,0.93-0.68
		c0.24-0.351,0.45-0.781,0.62-1.291l1.04-3.039h-1.87l-1.021,3.02c-0.109,0.34-0.25,0.609-0.41,0.8
		c-0.14,0.19-0.289,0.33-0.459,0.431c-0.17,0.09-0.351,0.16-0.551,0.189c-0.199,0.01-0.399,0.02-0.6,0.02h-1.78V72.33H246.41z
		 M185.23,72.33v10.49h1.8v-4.441h2.02c0.24,0,0.46,0.021,0.66,0.061c0.2,0.03,0.38,0.1,0.55,0.21c0.17,0.101,0.32,0.25,0.45,0.46
		c0.14,0.2,0.271,0.471,0.38,0.811l0.91,2.9h1.91l-1.12-3.41c-0.17-0.521-0.37-0.971-0.601-1.33c-0.22-0.381-0.58-0.631-1.06-0.74
		c0.4-0.12,0.71-0.34,0.931-0.68c0.239-0.351,0.449-0.781,0.619-1.291l1.04-3.039h-1.87l-1.02,3.02c-0.11,0.34-0.24,0.609-0.4,0.8
		c-0.14,0.19-0.29,0.33-0.46,0.431c-0.17,0.09-0.36,0.16-0.56,0.189c-0.2,0.01-0.391,0.02-0.59,0.02h-1.79V72.33H185.23z
		 M175.45,72.33v10.49h4.59c1.19,0,2.09-0.301,2.72-0.891c0.63-0.6,0.95-1.381,0.95-2.35c0-0.451-0.08-0.871-0.229-1.25
		c-0.16-0.391-0.391-0.73-0.7-1.01c-0.3-0.281-0.681-0.5-1.15-0.66c-0.45-0.17-0.97-0.25-1.569-0.25h-2.78v-4.08H175.45z
		 M151.13,72.33v10.49h1.8V72.33H151.13z M141.89,72.33v10.49h1.86v-8.861h5.64V72.33H141.89z M137.42,72.33v10.49h1.8V72.33H137.42
		z M312.38,72.24c-0.39,0-0.83,0.08-1.34,0.239c-0.5,0.149-1.17,0.47-2,0.97l-0.21-1.1h-1.59V87h1.8v-4.711
		c0.71,0.281,1.319,0.461,1.83,0.531c0.51,0.079,0.95,0.119,1.33,0.119c1.149,0,2.05-0.32,2.7-0.97c0.67-0.649,1-1.57,1-2.771V75.99
		c0-1.281-0.33-2.23-1-2.841C314.25,72.549,313.41,72.24,312.38,72.24z M301.02,72.24c-0.619,0-1.199,0.1-1.72,0.299
		c-0.51,0.181-0.95,0.451-1.34,0.801c-0.36,0.359-0.649,0.789-0.87,1.289c-0.21,0.511-0.32,1.07-0.32,1.691v2.77
		c0,0.64,0.11,1.199,0.34,1.67c0.24,0.48,0.561,0.88,0.961,1.21c0.41,0.31,0.88,0.55,1.42,0.72c0.54,0.15,1.109,0.23,1.699,0.23
		c0.66,0,1.32-0.1,1.98-0.301c0.66-0.209,1.26-0.59,1.8-1.129l-1.149-1.261c-0.44,0.41-0.891,0.69-1.36,0.83
		c-0.46,0.14-0.87,0.21-1.229,0.21c-0.341,0-0.67-0.04-0.99-0.13c-0.32-0.08-0.601-0.22-0.86-0.399
		c-0.24-0.201-0.43-0.431-0.569-0.711c-0.141-0.3-0.211-0.66-0.211-1.08V78.25h6.66v-2.07c0-0.609-0.1-1.15-0.31-1.631
		c-0.2-0.489-0.49-0.909-0.88-1.25c-0.36-0.34-0.811-0.6-1.33-0.779c-0.53-0.18-1.101-0.27-1.721-0.27V72.24z M120.24,72.24
		c-0.39,0-0.83,0.08-1.34,0.239c-0.5,0.149-1.16,0.47-2,0.97l-0.21-1.1h-1.59V87h1.8v-4.711c0.71,0.281,1.32,0.461,1.83,0.531
		c0.51,0.079,0.95,0.119,1.33,0.119c1.15,0,2.05-0.32,2.7-0.97c0.67-0.649,1-1.57,1-2.771V75.99c0-1.281-0.33-2.23-1-2.841
		C122.11,72.549,121.27,72.24,120.24,72.24z M108.88,72.24c-0.62,0-1.2,0.1-1.72,0.299c-0.51,0.181-0.96,0.451-1.34,0.801
		c-0.37,0.359-0.66,0.789-0.87,1.289c-0.21,0.511-0.32,1.07-0.32,1.691v2.77c0,0.64,0.12,1.199,0.34,1.67
		c0.24,0.48,0.561,0.88,0.96,1.21c0.41,0.31,0.891,0.55,1.42,0.72c0.54,0.15,1.1,0.23,1.7,0.23c0.66,0,1.32-0.1,1.97-0.301
		c0.67-0.209,1.27-0.59,1.81-1.129l-1.15-1.261c-0.439,0.41-0.89,0.69-1.359,0.83c-0.46,0.14-0.88,0.21-1.23,0.21
		c-0.34,0-0.67-0.04-0.99-0.13c-0.32-0.08-0.6-0.22-0.86-0.399c-0.24-0.201-0.43-0.431-0.57-0.711c-0.14-0.3-0.21-0.66-0.21-1.08
		V78.25h6.66v-2.07c0-0.609-0.1-1.15-0.31-1.631c-0.2-0.489-0.49-0.909-0.87-1.25c-0.37-0.34-0.82-0.6-1.34-0.779
		c-0.53-0.18-1.1-0.27-1.72-0.27V72.24z M282.95,72.22c-0.55,0-1.08,0.09-1.591,0.271c-0.489,0.17-0.93,0.43-1.31,0.77
		c-0.38,0.33-0.69,0.74-0.92,1.22c-0.22,0.479-0.34,1.021-0.34,1.61v3.109c0,0.551,0.1,1.061,0.3,1.521
		c0.21,0.45,0.5,0.84,0.87,1.159c0.38,0.33,0.83,0.58,1.34,0.761c0.511,0.19,1.07,0.28,1.7,0.28c0.609,0,1.21-0.09,1.8-0.28
		c0.61-0.181,1.16-0.521,1.66-1.011l-1.13-1.27c-0.32,0.33-0.71,0.551-1.17,0.68c-0.44,0.121-0.811,0.19-1.12,0.19
		c-0.3,0-0.601-0.04-0.9-0.13c-0.28-0.08-0.53-0.23-0.76-0.42c-0.22-0.2-0.41-0.45-0.55-0.76c-0.141-0.33-0.21-0.721-0.21-1.17
		v-2.371c0-0.449,0.069-0.83,0.21-1.139c0.16-0.32,0.35-0.58,0.57-0.781c0.239-0.199,0.5-0.34,0.789-0.42
		c0.301-0.09,0.58-0.129,0.851-0.129c0.31,0,0.67,0.06,1.06,0.17c0.41,0.1,0.851,0.369,1.32,0.81l1.08-1.38
		c-0.5-0.53-1.061-0.881-1.7-1.04C284.18,72.31,283.561,72.22,282.95,72.22L282.95,72.22z M272.5,72.22
		c-0.59,0-1.24,0.079-1.93,0.239c-0.69,0.15-1.381,0.49-2.061,1.011l0.891,1.37c0.539-0.43,1.069-0.7,1.59-0.801
		c0.54-0.109,1-0.17,1.359-0.17c0.771,0,1.36,0.15,1.771,0.44s0.61,0.79,0.61,1.53v0.8h-3.08c-0.351,0-0.75,0.06-1.211,0.17
		c-0.439,0.101-0.85,0.271-1.25,0.53c-0.379,0.24-0.709,0.56-0.979,0.949c-0.25,0.391-0.38,0.881-0.38,1.461
		c0,0.97,0.3,1.74,0.91,2.299c0.609,0.57,1.42,0.851,2.439,0.851c0.43,0,0.9-0.069,1.43-0.19c0.53-0.139,1.221-0.449,2.061-0.91
		l0.061,0.041l0.209,0.98h1.591v-6.941c0-1.239-0.33-2.159-0.99-2.75C274.89,72.52,273.87,72.22,272.5,72.22L272.5,72.22z
		 M170.23,72.22c-0.551,0-1.08,0.09-1.591,0.271c-0.5,0.17-0.939,0.43-1.319,0.77c-0.381,0.33-0.681,0.74-0.91,1.22
		c-0.23,0.479-0.34,1.021-0.34,1.61v3.109c0,0.551,0.1,1.061,0.3,1.521c0.21,0.45,0.5,0.84,0.87,1.159
		c0.38,0.33,0.82,0.58,1.33,0.761c0.51,0.19,1.08,0.28,1.699,0.28c0.61,0,1.211-0.09,1.811-0.28c0.6-0.181,1.16-0.521,1.65-1.011
		l-1.121-1.27c-0.329,0.33-0.72,0.551-1.17,0.68c-0.439,0.121-0.819,0.19-1.129,0.19c-0.301,0-0.591-0.04-0.891-0.13
		c-0.28-0.08-0.54-0.23-0.76-0.42c-0.23-0.2-0.42-0.45-0.561-0.76c-0.14-0.33-0.21-0.721-0.21-1.17v-2.371
		c0-0.449,0.07-0.83,0.21-1.139c0.16-0.32,0.351-0.58,0.58-0.781c0.24-0.199,0.5-0.34,0.78-0.42c0.3-0.09,0.58-0.129,0.851-0.129
		c0.31,0,0.67,0.06,1.069,0.17c0.41,0.1,0.84,0.369,1.31,0.81l1.08-1.38c-0.489-0.53-1.06-0.881-1.689-1.04
		C171.45,72.31,170.84,72.22,170.23,72.22L170.23,72.22z M227.88,68.25v1.789h4.22V82.82h1.98V70.039h4.2V68.25H227.88z
		 M223.689,68.25v14.57h1.95V68.25H223.689z M91.53,68.22v4.3c0,0.73,0.08,1.4,0.229,2.02c0.17,0.61,0.44,1.131,0.811,1.57
		c0.37,0.439,0.859,0.77,1.46,1.01c0.63,0.24,1.399,0.36,2.32,0.36c0.31,0,0.64-0.03,0.98-0.08c0.34-0.06,0.68-0.13,1.01-0.21
		c0.34-0.1,0.67-0.22,0.98-0.34c0.31-0.141,0.59-0.29,0.85-0.439v6.379h1.97V68.22h-1.97v6.2c-0.21,0.15-0.47,0.31-0.76,0.47
		c-0.3,0.14-0.62,0.26-0.96,0.37c-0.32,0.119-0.66,0.21-1.021,0.279c-0.34,0.07-0.66,0.101-0.97,0.101c-1.09,0-1.86-0.261-2.3-0.78
		c-0.44-0.539-0.65-1.39-0.65-2.58v-4.06H91.53z M208.07,68.08c0,0.279,0.05,0.58,0.149,0.91c0.11,0.309,0.28,0.59,0.511,0.859
		c0.239,0.27,0.55,0.5,0.93,0.68c0.4,0.18,0.89,0.28,1.47,0.28s1.05-0.101,1.42-0.28c0.38-0.18,0.69-0.41,0.91-0.68
		c0.25-0.27,0.41-0.551,0.51-0.859c0.101-0.33,0.17-0.631,0.19-0.91h-1.5c0,0.14-0.04,0.289-0.11,0.439
		c-0.06,0.16-0.149,0.301-0.27,0.439c-0.13,0.131-0.3,0.24-0.5,0.32c-0.181,0.08-0.4,0.131-0.65,0.131
		c-0.229,0-0.43-0.051-0.62-0.131c-0.18-0.08-0.34-0.189-0.47-0.32c-0.12-0.139-0.22-0.279-0.29-0.439
		c-0.07-0.15-0.12-0.3-0.13-0.439H208.07z M152.02,68.029c-0.3,0-0.56,0.12-0.79,0.34c-0.22,0.211-0.34,0.48-0.34,0.791
		c0,0.31,0.12,0.569,0.34,0.799c0.23,0.221,0.49,0.33,0.79,0.33c0.31,0,0.58-0.109,0.81-0.33c0.22-0.229,0.34-0.489,0.34-0.799
		c0-0.311-0.12-0.58-0.34-0.791C152.6,68.149,152.33,68.029,152.02,68.029z M138.31,68.029c-0.3,0-0.56,0.12-0.78,0.34
		c-0.23,0.211-0.351,0.48-0.351,0.791c0,0.31,0.12,0.569,0.351,0.799c0.22,0.221,0.479,0.33,0.78,0.33c0.31,0,0.58-0.109,0.81-0.33
		c0.22-0.229,0.34-0.489,0.34-0.799c0-0.311-0.12-0.58-0.34-0.791C138.89,68.149,138.62,68.029,138.31,68.029z"/>
	<path fill="#63A92A" d="M280.72,51.289c-0.96,0-1.739,0.33-2.34,1c-0.569,0.641-0.86,1.36-0.86,2.19c0,0.95,0.291,1.761,0.86,2.431
		c0.601,0.629,1.4,0.939,2.39,0.939c1.021,0,1.811-0.33,2.391-1c0.6-0.66,0.9-1.45,0.9-2.37c0-0.83-0.301-1.55-0.9-2.19
		C282.55,51.619,281.74,51.289,280.72,51.289z"/>
	<polygon fill="#63A92A" points="301.311,24.799 301.311,29.74 310.43,29.74 310.43,57.57 315.93,57.57 315.93,29.74 325,29.74 
		325,24.799 	"/>
	<rect x="291.4" y="24.799" fill="#63A92A" width="5.439" height="32.771"/>
	<path fill="#009299" d="M253.28,34.02l8.5,23.551h5.21l8.449-23.551H269.9l-2.721,8.57c-0.06,0.12-0.16,0.41-0.29,0.85l-0.479,1.52
		c-0.15,0.57-0.34,1.18-0.57,1.81c-0.189,0.641-0.38,1.26-0.57,1.859l-0.43,1.521c-0.13,0.41-0.21,0.681-0.24,0.81h-0.24
		l-2.67-8.469l-2.779-8.47H253.28z"/>
	<rect x="244.3" y="34.02" fill="#009299" width="5.07" height="23.551"/>
	<path fill-rule="evenodd" clip-rule="evenodd" fill="#009299" d="M151.3,38.399c1.271,0,2.37,0.38,3.3,1.14
		c0.92,0.73,1.38,1.92,1.38,3.57v0.71h-9.41v-0.76c0-1.55,0.46-2.71,1.39-3.47C148.91,38.799,150.03,38.399,151.3,38.399z
		 M151.25,33.79c-1.4,0-2.69,0.22-3.87,0.66c-1.17,0.42-2.21,1.02-3.1,1.81c-0.891,0.79-1.59,1.76-2.101,2.9
		c-0.479,1.14-0.72,2.43-0.72,3.85v6.19c0,1.461,0.27,2.721,0.81,3.801s1.27,1.979,2.2,2.709c0.95,0.701,2.04,1.221,3.25,1.57
		c1.24,0.35,2.54,0.53,3.91,0.53c1.5,0,2.98-0.21,4.45-0.62c1.49-0.449,2.91-1.32,4.25-2.619c-0.48-0.601-0.97-1.171-1.48-1.711
		l-1.48-1.76c-1.02,0.92-2.06,1.51-3.11,1.76c-1.02,0.25-1.89,0.381-2.63,0.381c-0.66,0-1.32-0.08-1.95-0.24
		c-0.609-0.19-1.149-0.461-1.63-0.811c-0.44-0.38-0.81-0.85-1.1-1.43c-0.28-0.6-0.43-1.311-0.43-2.131v-1.189h14.57v-4.62
		c0-1.42-0.24-2.69-0.71-3.8c-0.48-1.11-1.16-2.05-2.06-2.81c-0.86-0.79-1.891-1.4-3.101-1.81
		C154.01,33.99,152.68,33.79,151.25,33.79z"/>
	<path fill-rule="evenodd" clip-rule="evenodd" fill="#009299" d="M207.73,34.02V57.57h5.069V34.02H207.73z M194.75,33.74
		c-0.41,0-0.87,0.03-1.38,0.09c-0.48,0.04-1.04,0.15-1.67,0.34c-0.61,0.19-1.311,0.46-2.11,0.81c-0.76,0.34-1.62,0.8-2.57,1.37
		l-0.479-2.33h-4.59V57.57h5.069V40.97c1.211-0.76,2.351-1.35,3.431-1.76c1.09-0.41,2.06-0.62,2.92-0.62c1.05,0,1.93,0.32,2.62,0.95
		c0.71,0.61,1.06,1.72,1.06,3.33V57.57h5.11V42.16c0-2.64-0.62-4.7-1.86-6.19C199.08,34.479,197.23,33.74,194.75,33.74z"/>
	<path fill="#009299" d="M179.439,33.689c-0.83,0-1.67,0.13-2.529,0.38c-0.82,0.22-1.641,0.52-2.43,0.91
		c-0.771,0.34-1.49,0.74-2.16,1.18c-0.631,0.45-1.16,0.88-1.57,1.29h-0.05l-0.431-3.47h-4.58V57.57h5.061V41.629
		c0.92-0.57,2.07-1.11,3.439-1.61c1.4-0.51,3.15-0.86,5.25-1.05V33.689z"/>
	<path fill-rule="evenodd" clip-rule="evenodd" fill="#009299" d="M117.11,24.78V57.57h5.06V40.97c1.22-0.76,2.36-1.35,3.45-1.76
		c1.08-0.41,2.05-0.62,2.91-0.62c0.51,0,0.979,0.08,1.43,0.24c0.45,0.12,0.83,0.36,1.15,0.71c0.35,0.32,0.62,0.76,0.81,1.33
		c0.19,0.54,0.29,1.21,0.29,2V57.57h5.11V42.209c0-2.64-0.61-4.7-1.82-6.19c-1.2-1.52-3.12-2.28-5.73-2.28
		c-0.86,0-1.89,0.16-3.11,0.47c-1.17,0.29-2.67,1.02-4.49,2.19V24.78H117.11z M103.64,24.459c-1.56,0-3.069,0.24-4.53,0.72
		c-1.47,0.47-2.77,1.17-3.92,2.09c-1.12,0.89-2.02,2-2.72,3.33c-0.67,1.3-1,2.81-1,4.52v12.13c0,1.709,0.33,3.229,1,4.56
		c0.7,1.34,1.601,2.46,2.72,3.38c1.15,0.891,2.45,1.57,3.92,2.051c1.46,0.439,2.99,0.659,4.58,0.659c1.92,0,3.71-0.28,5.4-0.851
		c1.69-0.569,3.09-1.319,4.21-2.239l-2.59-4.181c-1.08,0.851-2.23,1.461-3.44,1.801c-1.2,0.32-2.4,0.48-3.58,0.48
		c-0.79,0-1.59-0.131-2.39-0.381c-0.79-0.26-1.52-0.65-2.19-1.189c-0.64-0.541-1.16-1.24-1.58-2.1
		c-0.38-0.851-0.57-1.881-0.57-3.091v-9.94c0-1.21,0.19-2.23,0.57-3.09c0.42-0.85,0.939-1.55,1.58-2.09
		c0.63-0.54,1.35-0.94,2.15-1.19c0.83-0.25,1.65-0.39,2.48-0.39c1.18,0,2.39,0.2,3.63,0.58c1.24,0.38,2.32,0.97,3.25,1.76l2.68-4.23
		c-1.28-1.05-2.76-1.83-4.45-2.33C107.2,24.72,105.46,24.459,103.64,24.459z"/>
	<path fill-rule="evenodd" clip-rule="evenodd" fill="#009299" d="M218.62,24.78V57.57h5.06V40.97c1.21-0.76,2.36-1.35,3.44-1.76
		s2.06-0.62,2.92-0.62c0.51,0,0.979,0.08,1.43,0.24c0.44,0.12,0.83,0.36,1.14,0.71c0.351,0.32,0.631,0.76,0.82,1.33
		c0.19,0.54,0.28,1.21,0.28,2V57.57h5.12V42.209c0-2.64-0.61-4.7-1.82-6.19c-1.21-1.52-3.12-2.28-5.729-2.28
		c-0.86,0-1.9,0.16-3.11,0.47c-1.18,0.29-2.67,1.02-4.49,2.19V24.78H218.62z M246.79,24.37c-0.8,0-1.479,0.28-2.06,0.86
		c-0.541,0.53-0.811,1.21-0.811,2.04c0,0.82,0.27,1.52,0.811,2.09c0.58,0.54,1.26,0.81,2.06,0.81c0.819,0,1.51-0.27,2.05-0.81
		c0.58-0.57,0.86-1.27,0.86-2.09c0-0.83-0.28-1.51-0.86-2.04C248.3,24.649,247.609,24.37,246.79,24.37z M210.22,24.37
		c-0.8,0-1.479,0.28-2.06,0.86c-0.54,0.53-0.811,1.21-0.811,2.04c0,0.82,0.271,1.52,0.811,2.09c0.58,0.54,1.26,0.81,2.06,0.81
		c0.82,0,1.511-0.27,2.05-0.81c0.58-0.57,0.86-1.27,0.86-2.09c0-0.83-0.28-1.51-0.86-2.04C211.73,24.649,211.04,24.37,210.22,24.37z
		"/>
</g>
</svg>
