<?xml version="1.0" encoding="UTF-8" standalone="no"?>
<!DOCTYPE svg PUBLIC "-//W3C//DTD SVG 1.1//EN" "http://www.w3.org/Graphics/SVG/1.1/DTD/svg11.dtd">
<svg width="100%" height="100%" viewBox="0 0 1430 583" version="1.1" xmlns="http://www.w3.org/2000/svg" xmlns:xlink="http://www.w3.org/1999/xlink" xml:space="preserve" xmlns:serif="http://www.serif.com/" style="fill-rule:evenodd;clip-rule:evenodd;stroke-linejoin:round;stroke-miterlimit:1.41421;">
    <g transform="matrix(1,0,0,1,-285.39,-154.015)">
        <g transform="matrix(3.21035,0,0,4.58015,-2.95356,-1273.05)">
            <g id="Слой-1" serif:id="Слой 1" transform="matrix(0.716282,0,0,0.502061,89.8169,311.575)">
                <g transform="matrix(1,0,0,1,234.534,192.793)">
                    <path d="M0,-132.356C-18.675,-162.129 -45.162,-181.225 -79.344,-189.54C-86.149,-191.195 -93.076,-192.157 -100.078,-192.53C-100.636,-192.559 -101.188,-192.703 -101.742,-192.793L-114.095,-192.793C-116.954,-192.499 -119.816,-192.233 -122.672,-191.907C-141.143,-189.799 -158.372,-183.96 -174.107,-174.089C-203.879,-155.412 -223.055,-128.942 -231.212,-94.725C-232.813,-88.01 -233.271,-81.022 -234.256,-74.161C-234.343,-73.558 -234.441,-72.957 -234.534,-72.354L-234.534,-60.002C-234.24,-57.146 -233.974,-54.288 -233.649,-51.435C-231.543,-32.963 -225.706,-15.734 -215.836,0.001C-197.161,29.775 -170.693,48.954 -136.476,57.112C-129.761,58.713 -122.773,59.171 -115.912,60.159C-115.306,60.247 -114.701,60.344 -114.095,60.437L-101.742,60.437C-98.781,60.134 -95.815,59.864 -92.859,59.523C-79.841,58.021 -67.387,54.496 -55.444,49.109C-54.421,48.648 -54.338,47.891 -54.206,47.035C-51.771,31.14 -56.641,17.62 -67.556,6.086C-72.828,0.515 -78.868,-4.099 -85.67,-7.619C-90.419,-10.075 -95.356,-12.167 -100.195,-14.45C-105.221,-16.821 -110.252,-19.18 -115.24,-21.628C-120.345,-24.133 -125.153,-27.232 -129.458,-31.287C-133.172,-35.413 -134.6,-36.887 -136.244,-40.586C-137.417,-43.742 -138.625,-46.913 -139.421,-50.173C-140.281,-53.693 -140.922,-57.304 -141.224,-60.912C-141.672,-66.273 -141.896,-71.667 -141.916,-77.047C-141.93,-80.986 -141.751,-84.667 -141.242,-88.867C-140.408,-96.924 -139.691,-100.426 -138.45,-106.093C-137.143,-112.064 -135.706,-118.085 -132.606,-123.487C-131.803,-124.885 -130.915,-126.251 -129.926,-127.523C-129.119,-128.56 -127.866,-128.524 -127.061,-127.676C-125.28,-125.801 -123.362,-123.931 -122.101,-121.717C-119.88,-117.822 -118.073,-113.687 -116.171,-109.616C-115.526,-108.235 -115.067,-106.76 -114.619,-105.298C-114.297,-104.25 -113.767,-104.005 -112.787,-104.455C-104.358,-108.325 -95.455,-109.68 -86.275,-109.094C-83.189,-108.898 -80.127,-108.088 -77.093,-107.389C-74.813,-106.864 -72.59,-106.087 -70.356,-105.376C-69.832,-105.208 -69.371,-104.842 -68.874,-104.582C-67.632,-103.933 -67.08,-104.28 -66.593,-105.577C-65.556,-108.344 -64.423,-111.078 -63.249,-113.79C-62.318,-115.941 -61.393,-118.11 -60.24,-120.144C-58.739,-122.793 -57.293,-125.485 -54.742,-127.414C-52.848,-128.846 -51.348,-128.099 -50.301,-126.576C-49.291,-125.107 -48.36,-123.54 -47.683,-121.897C-46.401,-118.793 -45.06,-115.672 -44.229,-112.434C-42.978,-107.55 -42.068,-102.573 -41.16,-97.609C-40.571,-94.392 -40.169,-91.134 -39.819,-87.881C-39.355,-83.562 -39.01,-79.23 -38.642,-74.901C-38.124,-68.822 -37.326,-62.823 -35.187,-57.034C-32.933,-50.935 -29.217,-46.151 -23.518,-42.998C-19.464,-40.755 -15.187,-39.115 -10.565,-38.415C-6.679,-37.827 -2.827,-37 1.064,-36.462C3.547,-36.12 6.074,-36.063 8.584,-35.972C10.672,-35.896 12.766,-35.957 15.196,-35.957C15.914,-39.909 16.791,-44.127 17.418,-48.38C17.986,-52.233 18.281,-56.126 18.697,-60.002L18.697,-72.354C18.403,-75.21 18.137,-78.067 17.812,-80.919C15.707,-99.391 9.869,-116.621 0,-132.356" style="fill:rgb(9,40,60);fill-rule:nonzero;"/>
                </g>
                <g transform="matrix(1,0,0,1,234.534,192.793)">
                    <path d="M0,-132.356C-18.675,-162.129 -45.162,-181.225 -79.344,-189.54C-86.149,-191.195 -93.076,-192.157 -100.078,-192.53C-100.636,-192.559 -101.188,-192.703 -101.742,-192.793L-114.095,-192.793C-116.954,-192.499 -119.816,-192.233 -122.672,-191.907C-141.143,-189.799 -158.372,-183.96 -174.107,-174.089C-203.879,-155.412 -223.055,-128.942 -231.212,-94.725C-232.813,-88.01 -233.271,-81.022 -234.256,-74.161C-234.343,-73.558 -234.441,-72.957 -234.534,-72.354L-234.534,-60.002C-234.24,-57.146 -233.974,-54.288 -233.649,-51.435C-231.543,-32.963 -225.706,-15.734 -215.836,0.001C-197.161,29.775 -170.693,48.954 -136.476,57.112C-129.761,58.713 -122.773,59.171 -115.912,60.159C-115.306,60.247 -114.701,60.344 -114.095,60.437L-101.742,60.437C-98.781,60.134 -95.815,59.864 -92.859,59.523C-79.841,58.021 -67.387,54.496 -55.444,49.109C-54.421,48.648 -54.338,47.891 -54.206,47.035C-51.771,31.14 -56.641,17.62 -67.556,6.086C-72.828,0.515 -78.868,-4.099 -85.67,-7.619C-90.419,-10.075 -95.356,-12.167 -100.195,-14.45C-105.221,-16.821 -110.252,-19.18 -115.24,-21.628C-120.345,-24.133 -125.153,-27.232 -129.458,-31.287C-133.172,-35.413 -134.6,-36.887 -136.244,-40.586C-137.417,-43.742 -138.625,-46.913 -139.421,-50.173C-140.281,-53.693 -140.922,-57.304 -141.224,-60.912C-141.672,-66.273 -141.896,-71.667 -141.916,-77.047C-141.93,-80.986 -141.751,-84.667 -141.242,-88.867C-140.408,-96.924 -139.691,-100.426 -138.45,-106.093C-137.143,-112.064 -135.706,-118.085 -132.606,-123.487C-131.803,-124.885 -130.915,-126.251 -129.926,-127.523C-129.119,-128.56 -127.866,-128.524 -127.061,-127.676C-125.28,-125.801 -123.362,-123.931 -122.101,-121.717C-119.88,-117.822 -118.073,-113.687 -116.171,-109.616C-115.526,-108.235 -115.067,-106.76 -114.619,-105.298C-114.297,-104.25 -113.767,-104.005 -112.787,-104.455C-104.358,-108.325 -95.455,-109.68 -86.275,-109.094C-83.189,-108.898 -80.127,-108.088 -77.093,-107.389C-74.813,-106.864 -72.59,-106.087 -70.356,-105.376C-69.832,-105.208 -69.371,-104.842 -68.874,-104.582C-67.632,-103.933 -67.08,-104.28 -66.593,-105.577C-65.556,-108.344 -64.423,-111.078 -63.249,-113.79C-62.318,-115.941 -61.393,-118.11 -60.24,-120.144C-58.739,-122.793 -57.293,-125.485 -54.742,-127.414C-52.848,-128.846 -51.348,-128.099 -50.301,-126.576C-49.291,-125.107 -48.36,-123.54 -47.683,-121.897C-46.401,-118.793 -45.06,-115.672 -44.229,-112.434C-42.978,-107.55 -42.068,-102.573 -41.16,-97.609C-40.571,-94.392 -40.169,-91.134 -39.819,-87.881C-39.355,-83.562 -39.01,-79.23 -38.642,-74.901C-38.124,-68.822 -37.326,-62.823 -35.187,-57.034C-32.933,-50.935 -29.217,-46.151 -23.518,-42.998C-19.464,-40.755 -15.187,-39.115 -10.565,-38.415C-6.679,-37.827 -2.827,-37 1.064,-36.462C3.547,-36.12 6.074,-36.063 8.584,-35.972C10.672,-35.896 12.766,-35.957 15.196,-35.957C15.914,-39.909 16.791,-44.127 17.418,-48.38C17.986,-52.233 18.281,-56.126 18.697,-60.002L18.697,-72.354C18.403,-75.21 18.137,-78.067 17.812,-80.919C15.707,-99.391 9.869,-116.621 0,-132.356" style="fill:rgb(9,40,60);fill-rule:nonzero;"/>
                </g>
                <g transform="matrix(1,0,0,1,164.968,128.674)">
                    <path d="M0,-15.937C-3.111,-15.67 -7.447,-12.725 -7.406,-7.816C-7.366,-2.969 -3.609,0.23 0.605,0.333C5.134,0.442 8.985,-3.299 8.856,-7.874C9.244,-11.676 5.173,-16.379 0,-15.937" style="fill:rgb(9,40,60);fill-rule:nonzero;"/>
                </g>
                <g transform="matrix(1,0,0,1,164.968,128.674)">
                    <path d="M0,-15.937C-3.111,-15.67 -7.447,-12.725 -7.406,-7.816C-7.366,-2.969 -3.609,0.23 0.605,0.333C5.134,0.442 8.985,-3.299 8.856,-7.874C9.244,-11.676 5.173,-16.379 0,-15.937" style="fill:rgb(9,40,60);fill-rule:nonzero;"/>
                </g>
                <g transform="matrix(1,0,0,1,129.925,121.401)">
                    <path d="M0,-1.087C-0.001,-5.385 -3.516,-8.665 -8.121,-8.666C-13.002,-8.667 -16.052,-5.643 -16.317,-1.118C-16.596,3.644 -12.242,7.58 -7.616,7.278C-3.604,7.017 0.001,3.304 0,-1.087" style="fill:rgb(9,40,60);fill-rule:nonzero;"/>
                </g>
                <g transform="matrix(1,0,0,1,129.925,121.401)">
                    <path d="M0,-1.087C-0.001,-5.385 -3.516,-8.665 -8.121,-8.666C-13.002,-8.667 -16.052,-5.643 -16.317,-1.118C-16.596,3.644 -12.242,7.58 -7.616,7.278C-3.604,7.017 0.001,3.304 0,-1.087" style="fill:rgb(9,40,60);fill-rule:nonzero;"/>
                </g>
                <g transform="matrix(1,0,0,1,146.516,141.97)">
                    <path d="M0,-7.989C-2.309,-9.391 -4.829,-9.168 -7.202,-8.76C-9.744,-8.324 -11.421,-6.182 -10.818,-3.926C-10.188,-1.561 -6.927,1.402 -4.462,0.987C-1.754,1.11 -0.098,-0.528 1.499,-2.348C3.224,-4.315 1.99,-6.781 0,-7.989" style="fill:rgb(9,40,60);fill-rule:nonzero;"/>
                </g>
                <g transform="matrix(1,0,0,1,146.516,141.97)">
                    <path d="M0,-7.989C-2.309,-9.391 -4.829,-9.168 -7.202,-8.76C-9.744,-8.324 -11.421,-6.182 -10.818,-3.926C-10.188,-1.561 -6.927,1.402 -4.462,0.987C-1.754,1.11 -0.098,-0.528 1.499,-2.348C3.224,-4.315 1.99,-6.781 0,-7.989" style="fill:rgb(9,40,60);fill-rule:nonzero;"/>
                </g>
                <g transform="matrix(1,0,0,1,172.579,134.018)">
                    <path d="M0,7.392C0.165,7.496 0.349,7.544 0.529,7.544C0.862,7.544 1.188,7.378 1.378,7.075L4.85,1.52C5.143,1.051 5,0.434 4.532,0.142C4.062,-0.152 3.446,-0.009 3.154,0.459L-0.317,6.014C-0.61,6.483 -0.468,7.1 0,7.392" style="fill:rgb(9,40,60);fill-rule:nonzero;"/>
                </g>
                <g transform="matrix(1,0,0,1,172.579,134.018)">
                    <path d="M0,7.392C0.165,7.496 0.349,7.544 0.529,7.544C0.862,7.544 1.188,7.378 1.378,7.075L4.85,1.52C5.143,1.051 5,0.434 4.532,0.142C4.062,-0.152 3.446,-0.009 3.154,0.459L-0.317,6.014C-0.61,6.483 -0.468,7.1 0,7.392" style="fill:rgb(9,40,60);fill-rule:nonzero;"/>
                </g>
                <g transform="matrix(1,0,0,1,182.149,140.194)">
                    <path d="M0,-5.215C-0.472,-5.499 -1.087,-5.351 -1.374,-4.878L-3.583,-1.235C-3.869,-0.762 -3.718,-0.148 -3.246,0.139C-3.084,0.237 -2.905,0.284 -2.729,0.284C-2.391,0.284 -2.061,0.113 -1.872,-0.197L0.337,-3.841C0.623,-4.314 0.472,-4.928 0,-5.215" style="fill:rgb(9,40,60);fill-rule:nonzero;"/>
                </g>
                <g transform="matrix(1,0,0,1,182.149,140.194)">
                    <path d="M0,-5.215C-0.472,-5.499 -1.087,-5.351 -1.374,-4.878L-3.583,-1.235C-3.869,-0.762 -3.718,-0.148 -3.246,0.139C-3.084,0.237 -2.905,0.284 -2.729,0.284C-2.391,0.284 -2.061,0.113 -1.872,-0.197L0.337,-3.841C0.623,-4.314 0.472,-4.928 0,-5.215" style="fill:rgb(9,40,60);fill-rule:nonzero;"/>
                </g>
                <g transform="matrix(1,0,0,1,170.999,140.761)">
                    <path d="M0,-5.211C-0.473,-5.498 -1.087,-5.348 -1.373,-4.875L-3.584,-1.232C-3.871,-0.76 -3.721,-0.145 -3.248,0.142C-3.086,0.24 -2.907,0.287 -2.73,0.287C-2.393,0.287 -2.063,0.116 -1.875,-0.194L0.336,-3.838C0.623,-4.31 0.473,-4.925 0,-5.211" style="fill:rgb(9,40,60);fill-rule:nonzero;"/>
                </g>
                <g transform="matrix(1,0,0,1,170.999,140.761)">
                    <path d="M0,-5.211C-0.473,-5.498 -1.087,-5.348 -1.373,-4.875L-3.584,-1.232C-3.871,-0.76 -3.721,-0.145 -3.248,0.142C-3.086,0.24 -2.907,0.287 -2.73,0.287C-2.393,0.287 -2.063,0.116 -1.875,-0.194L0.336,-3.838C0.623,-4.31 0.473,-4.925 0,-5.211" style="fill:rgb(9,40,60);fill-rule:nonzero;"/>
                </g>
                <g transform="matrix(1,0,0,1,119.298,140.952)">
                    <path d="M0,-6.474L-3.471,-0.919C-3.764,-0.451 -3.621,0.167 -3.153,0.459C-2.988,0.562 -2.805,0.611 -2.624,0.611C-2.291,0.611 -1.965,0.444 -1.775,0.141L1.695,-5.413C1.988,-5.882 1.846,-6.499 1.378,-6.791C0.909,-7.085 0.292,-6.941 0,-6.474" style="fill:rgb(9,40,60);fill-rule:nonzero;"/>
                </g>
                <g transform="matrix(1,0,0,1,119.298,140.952)">
                    <path d="M0,-6.474L-3.471,-0.919C-3.764,-0.451 -3.621,0.167 -3.153,0.459C-2.988,0.562 -2.805,0.611 -2.624,0.611C-2.291,0.611 -1.965,0.444 -1.775,0.141L1.695,-5.413C1.988,-5.882 1.846,-6.499 1.378,-6.791C0.909,-7.085 0.292,-6.941 0,-6.474" style="fill:rgb(9,40,60);fill-rule:nonzero;"/>
                </g>
                <g transform="matrix(1,0,0,1,124.339,139.857)">
                    <path d="M0,-4.541L-2.209,-0.897C-2.495,-0.425 -2.344,0.189 -1.872,0.477C-1.71,0.574 -1.531,0.621 -1.354,0.621C-1.017,0.621 -0.687,0.45 -0.498,0.14L1.711,-3.504C1.997,-3.977 1.846,-4.591 1.374,-4.878C0.901,-5.162 0.287,-5.014 0,-4.541" style="fill:rgb(9,40,60);fill-rule:nonzero;"/>
                </g>
                <g transform="matrix(1,0,0,1,124.339,139.857)">
                    <path d="M0,-4.541L-2.209,-0.897C-2.495,-0.425 -2.344,0.189 -1.872,0.477C-1.71,0.574 -1.531,0.621 -1.354,0.621C-1.017,0.621 -0.687,0.45 -0.498,0.14L1.711,-3.504C1.997,-3.977 1.846,-4.591 1.374,-4.878C0.901,-5.162 0.287,-5.014 0,-4.541" style="fill:rgb(9,40,60);fill-rule:nonzero;"/>
                </g>
                <g transform="matrix(1,0,0,1,113.192,140.425)">
                    <path d="M0,-4.539L-2.212,-0.895C-2.499,-0.424 -2.349,0.191 -1.876,0.478C-1.714,0.576 -1.535,0.623 -1.358,0.623C-1.021,0.623 -0.69,0.452 -0.503,0.142L1.709,-3.502C1.996,-3.974 1.846,-4.589 1.373,-4.875C0.901,-5.162 0.285,-5.012 0,-4.539" style="fill:rgb(9,40,60);fill-rule:nonzero;"/>
                </g>
                <g transform="matrix(1,0,0,1,113.192,140.425)">
                    <path d="M0,-4.539L-2.212,-0.895C-2.499,-0.424 -2.349,0.191 -1.876,0.478C-1.714,0.576 -1.535,0.623 -1.358,0.623C-1.021,0.623 -0.69,0.452 -0.503,0.142L1.709,-3.502C1.996,-3.974 1.846,-4.589 1.373,-4.875C0.901,-5.162 0.285,-5.012 0,-4.539" style="fill:rgb(9,40,60);fill-rule:nonzero;"/>
                </g>
                <g transform="matrix(1,0,0,1,353.381,147.514)">
                    <path d="M0,-63.103C10.846,-63.103 19.016,-58.173 23.805,-50.285L40.848,-58.736C32.678,-72.822 18.17,-81.836 0,-81.836C-28.312,-81.836 -47.891,-59.863 -47.891,-31.552C-47.891,-3.24 -28.312,18.733 0,18.733C18.17,18.733 32.678,9.859 40.848,-4.226L40.848,-35.636L0.281,-35.636L0.281,-20.565L21.973,-20.565L21.973,-9.578C17.043,-3.521 9.578,-0.142 0,-0.142C-18.029,-0.142 -28.734,-13.663 -28.734,-31.552C-28.734,-49.581 -18.029,-63.103 0,-63.103" style="fill:rgb(9,40,60);fill-rule:nonzero;"/>
                </g>
                <g transform="matrix(1,0,0,1,353.381,147.514)">
                    <path d="M0,-63.103C10.846,-63.103 19.016,-58.173 23.805,-50.285L40.848,-58.736C32.678,-72.822 18.17,-81.836 0,-81.836C-28.312,-81.836 -47.891,-59.863 -47.891,-31.552C-47.891,-3.24 -28.312,18.733 0,18.733C18.17,18.733 32.678,9.859 40.848,-4.226L40.848,-35.636L0.281,-35.636L0.281,-20.565L21.973,-20.565L21.973,-9.578C17.043,-3.521 9.578,-0.142 0,-0.142C-18.029,-0.142 -28.734,-13.663 -28.734,-31.552C-28.734,-49.581 -18.029,-63.103 0,-63.103" style="fill:rgb(9,40,60);fill-rule:nonzero;"/>
                </g>
                <g transform="matrix(1,0,0,1,465.075,106.807)">
                    <path d="M0,19.156C0,32.396 -7.324,40.565 -19.015,40.565C-30.847,40.565 -38.03,32.396 -38.03,19.156L-38.03,-40.284L-56.764,-40.284L-56.764,19.578C-56.764,44.228 -41.975,59.44 -19.015,59.44C3.803,59.44 18.733,44.228 18.733,19.578L18.733,-40.284L0,-40.284L0,19.156Z" style="fill:rgb(9,40,60);fill-rule:nonzero;"/>
                </g>
                <g transform="matrix(1,0,0,1,465.075,106.807)">
                    <path d="M0,19.156C0,32.396 -7.324,40.565 -19.015,40.565C-30.847,40.565 -38.03,32.396 -38.03,19.156L-38.03,-40.284L-56.764,-40.284L-56.764,19.578C-56.764,44.228 -41.975,59.44 -19.015,59.44C3.803,59.44 18.733,44.228 18.733,19.578L18.733,-40.284L0,-40.284L0,19.156Z" style="fill:rgb(9,40,60);fill-rule:nonzero;"/>
                </g>
                <g transform="matrix(-1,0,0,1,1021.56,-21.588)">
                    <rect x="501.412" y="88.11" width="18.733" height="98.598" style="fill:rgb(9,40,60);"/>
                </g>
                <g transform="matrix(-1,0,0,1,1021.56,-21.588)">
                    <rect x="501.412" y="88.11" width="18.733" height="98.598" style="fill:rgb(9,40,60);"/>
                </g>
                <g transform="matrix(1,0,0,1,569.724,84.4115)">
                    <path d="M0,62.82L-12.536,62.82L-12.536,0.14L0,0.14C20.705,0.14 33.382,12.676 33.382,31.41C33.382,50.284 20.705,62.82 0,62.82M0.423,-17.889L-31.27,-17.889L-31.27,80.709L0.423,80.709C33.101,80.709 52.116,60.285 52.116,31.41C52.116,2.535 33.101,-17.889 0.423,-17.889" style="fill:rgb(9,40,60);fill-rule:nonzero;"/>
                </g>
                <g transform="matrix(1,0,0,1,569.724,84.4115)">
                    <path d="M0,62.82L-12.536,62.82L-12.536,0.14L0,0.14C20.705,0.14 33.382,12.676 33.382,31.41C33.382,50.284 20.705,62.82 0,62.82M0.423,-17.889L-31.27,-17.889L-31.27,80.709L0.423,80.709C33.101,80.709 52.116,60.285 52.116,31.41C52.116,2.535 33.101,-17.889 0.423,-17.889" style="fill:rgb(9,40,60);fill-rule:nonzero;"/>
                </g>
            </g>
        </g>
        <g transform="matrix(3.21035,0,0,4.58015,-2.95356,-1273.05)">
            <g transform="matrix(0.817067,0,0,0.572704,64.7251,217.464)">
                <text x="385.5px" y="352.364px" style="font-family:'SofiaProLight', 'Sofia Pro', sans-serif;font-size:26px;fill:rgb(9,40,60);">IT<tspan x="406.378px 412.54px 427.256px " y="352.364px 352.364px 352.364px "> Ta</tspan>lent<tspan x="485.574px 492.49px " y="352.364px 352.364px "> S</tspan>earch</text>
            </g>
        </g>
    </g>
</svg>
