<svg _ngcontent-gyv-c1="" xmlns:xlink="http://www.w3.org/1999/xlink" height="74px" version="1.1" viewBox="0 0 400 85" width="352px" xmlns="http://www.w3.org/2000/svg"><title _ngcontent-gyv-c1="">Group</title><desc _ngcontent-gyv-c1="">Created with Sketch.</desc><g _ngcontent-gyv-c1="" fill="none" fill-rule="evenodd" id="Other-Assets" stroke="none" stroke-width="1"><g _ngcontent-gyv-c1="" id="Artboard-3"><g _ngcontent-gyv-c1="" id="Group"><g _ngcontent-gyv-c1="" id="HelloCrowd-Logo" transform="translate(0.000000, 0.058546)"></g><path _ngcontent-gyv-c1="" d="M80.5290099,33.0504714 C84.7550987,33.0480934 85.2323144,37.1145824 81.3314919,38.5342864 L59.9707497,46.2986645 L69.8355806,73.1517602 C70.9205933,76.0981812 68.3350817,78.0743521 66.0036102,75.9745219 L45.2008066,57.2567822 L28.6881955,69.4443588 C24.7778762,72.3313282 22.7669227,68.854599 23.6738698,66.726232 L32.5510306,45.9134182 L21.7222715,41.7161357 C19.3718064,40.8029592 15.9553222,37.8660505 17.2065294,33.2240701 L19.4644005,24.8509077 C20.4188318,21.3075927 25.1363815,21.0079567 25.5020094,24.6511503 L26.3472272,33.0647398 L80.5290099,33.0504714 Z" fill="#1A2848" id="Fill-4"></path><path _ngcontent-gyv-c1="" d="M46.1637851,12.988888 C50.7317597,12.988888 54.4378972,16.6986674 54.4378972,21.2764401 C54.4378972,25.8518347 50.7317597,29.5616141 46.1637851,29.5616141 C41.5958104,29.5616141 37.8920471,25.8518347 37.8920471,21.2764401 C37.8920471,16.6986674 41.5958104,12.988888 46.1637851,12.988888" fill="#1A2848" id="Fill-6"></path><path _ngcontent-gyv-c1="" d="M34.3326357,20.4089224 L7.20494412,20.6015456 C-1.83841114,19.7716013 2.44228446,-1.25523821 10.7163966,0.849348199 L35.1992213,16.8442049 C36.8706632,17.9357361 36.4979127,20.392276 34.3326357,20.4089224 M10.0255023,1.662646 C12.7415953,2.13825874 14.2397201,6.55907923 13.3755087,11.5339886 C12.508923,16.513654 9.6028934,20.1663599 6.88680036,19.6907472 C4.17308151,19.2175125 2.67258256,14.796692 3.53916819,9.81702655 C4.40575382,4.83973915 7.31178345,1.18703325 10.0255023,1.662646" fill="#1A2848" id="Fill-8"></path><path _ngcontent-gyv-c1="" d="M41.5464269,1.62079207 C60.0130106,1.62079207 75.6542876,13.7489171 80.9701376,30.4857297 C80.8253109,30.4785955 80.6781101,30.4738394 80.528535,30.4738394 L75.6804039,30.4762174 C70.5663616,16.5574104 57.211446,6.63137237 41.5464269,6.63137237 C36.8241287,6.63137237 32.3107608,7.53265852 28.1701435,9.17590056 L23.1866825,5.92033131 C28.7185853,3.16891157 34.9532535,1.62079207 41.5464269,1.62079207 L41.5464269,1.62079207 L41.5464269,1.62079207 Z M82.8410129,40.6947573 C82.8861228,41.4747622 82.9098649,42.2595233 82.9098649,43.0490404 C82.9098649,53.9310601 78.7193892,63.8285613 71.8674271,71.2219615 L69.8968352,65.8499155 C74.9064124,59.6098763 77.9074103,51.6814118 77.9074103,43.0490404 C77.9074103,42.8730637 77.9026619,42.697087 77.9026619,42.5211103 L82.2094738,40.9563443 C82.430275,40.8731121 82.6392053,40.7875018 82.8410129,40.6947573 L82.8410129,40.6947573 L82.8410129,40.6947573 Z M64.1346343,77.7568806 C57.6411776,82.0064805 49.8822684,84.4796668 41.5464269,84.4796668 C18.7065535,84.4796668 0.182988879,65.9260135 0.182988879,43.0490404 C0.182988879,35.722226 2.08710306,28.8377315 5.42048998,22.8664135 C5.9214477,23.0162315 6.43902488,23.1184882 6.9732215,23.1660495 L7.09905448,23.1779398 L11.0948452,23.1494031 C7.36021727,28.8710244 5.18781768,35.7055796 5.18781768,43.0490404 C5.18781768,63.1603254 21.4677565,79.4690865 41.5464269,79.4690865 C48.3936405,79.4690865 54.7968773,77.5713917 60.2670507,74.2753953 L64.1346343,77.7568806 L64.1346343,77.7568806 Z" fill="#1A2848" id="Fill-1"></path><path _ngcontent-gyv-c1="" d="M123.015791,19.9026217 L130.326149,19.9026217 L130.326149,55.6187728 L123.015791,55.6187728 L123.015791,40.3191608 L107.461837,40.3191608 L107.461837,55.6187728 L100.151479,55.6187728 L100.151479,19.9026217 L107.461837,19.9026217 L107.461837,34.7928795 L123.015791,34.7928795 L123.015791,19.9026217 Z M150.235209,56.028127 C146.052903,56.028127 142.648349,54.6892111 140.021446,52.0113392 C137.394543,49.3334673 136.081111,45.7942948 136.081111,41.3937155 C136.081111,36.9931362 137.403184,33.4710199 140.04737,30.827261 C142.691555,28.1835021 146.11339,26.8616425 150.312979,26.8616425 C154.512567,26.8616425 157.960326,28.1493896 160.656358,30.7249225 C163.35239,33.3004553 164.700386,36.7372903 164.700386,41.0355306 C164.700386,42.0248081 164.631258,42.9458458 164.493,43.7986712 L143.547009,43.7986712 C143.719832,45.6407742 144.411112,47.1246682 145.620869,48.2503978 C146.830627,49.3761274 148.368725,49.9389837 150.235209,49.9389837 C152.758418,49.9389837 154.624874,48.9156085 155.834632,46.8688275 L163.715302,46.8688275 C162.885754,49.5637559 161.278528,51.7640125 158.893576,53.4696634 C156.508625,55.1753143 153.622531,56.028127 150.235209,56.028127 L150.235209,56.028127 Z M155.031011,34.6393717 C153.734842,33.5136421 152.170821,32.9507858 150.338902,32.9507858 C148.506983,32.9507858 146.977526,33.5136421 145.750486,34.6393717 C144.523446,35.7651013 143.788961,37.2660516 143.547009,39.1422676 L157.130795,39.1422676 C157.027101,37.2660516 156.327181,35.7651013 155.031011,34.6393717 L155.031011,34.6393717 Z M170.455348,55.6187728 L170.455348,17.7535123 L177.765707,17.7535123 L177.765707,55.6187728 L170.455348,55.6187728 Z M185.542683,55.6187728 L185.542683,17.7535123 L192.853041,17.7535123 L192.853041,55.6187728 L185.542683,55.6187728 Z M218.646681,47.7131204 C220.115673,46.2292042 220.850157,44.131285 220.850157,41.4193001 C220.850157,38.7073152 220.124314,36.6179242 218.672604,35.1510644 C217.220894,33.6842046 215.466772,32.9507858 213.410183,32.9507858 C211.353594,32.9507858 209.616754,33.6842046 208.199609,35.1510644 C206.782464,36.6179242 206.073902,38.7158433 206.073902,41.4448847 C206.073902,44.1739262 206.782464,46.2718453 208.199609,47.7387051 C209.616754,49.2055648 211.344953,49.9389837 213.38426,49.9389837 C215.423566,49.9389837 217.177689,49.1970367 218.646681,47.7131204 L218.646681,47.7131204 Z M198.659851,41.3937155 C198.659851,37.0272492 200.076974,33.513661 202.911265,30.8528457 C205.745555,28.1920303 209.262441,26.8616425 213.46203,26.8616425 C217.661618,26.8616425 221.178505,28.1920303 224.012795,30.8528457 C226.847085,33.513661 228.264209,37.0272492 228.264209,41.3937155 C228.264209,45.7601818 226.838444,49.2908262 223.986871,51.9857546 C221.135299,54.680683 217.60113,56.028127 213.38426,56.028127 C209.167389,56.028127 205.659144,54.680683 202.859418,51.9857546 C200.059692,49.2908262 198.659851,45.7601818 198.659851,41.3937155 L198.659851,41.3937155 Z M232.049004,37.6583587 C232.049004,32.3708409 233.837691,28.0044401 237.415118,24.5590253 C240.992545,21.1136105 245.373531,19.390929 250.558208,19.390929 C254.498563,19.390929 257.998168,20.3801916 261.057127,22.3587467 C264.116086,24.3373017 266.302259,27.117471 267.615711,30.6993378 L258.85365,30.6993378 C257.229118,27.5609402 254.463998,25.9917649 250.558208,25.9917649 C247.27458,25.9917649 244.604511,27.0577807 242.547922,29.1898443 C240.491334,31.321908 239.463055,34.153246 239.463055,37.6839433 C239.463055,41.2146407 240.491334,44.0459787 242.547922,46.1780423 C244.604511,48.3101059 247.27458,49.3761218 250.558208,49.3761218 C254.429434,49.3761218 257.194554,47.8069465 258.85365,44.6685488 L267.615711,44.6685488 C266.302259,48.2504157 264.116086,51.0220568 261.057127,52.9835554 C257.998168,54.9450539 254.498563,55.9257884 250.558208,55.9257884 C245.338967,55.9257884 240.949339,54.2031069 237.389195,50.7576921 C233.82905,47.3122773 232.049004,42.9458765 232.049004,37.6583587 L232.049004,37.6583587 Z M281.251343,27.2709967 L281.251343,32.2855852 C283.186956,28.6696053 285.98664,26.8616425 289.650478,26.8616425 L289.650478,34.2300175 L287.83585,34.2300175 C285.658286,34.2300175 284.016496,34.7672895 282.910432,35.8418496 C281.804367,36.9164096 281.251343,38.7670131 281.251343,41.3937155 L281.251343,55.6187728 L273.940985,55.6187728 L273.940985,27.2709967 L281.251343,27.2709967 Z M312.851792,47.7131204 C314.320784,46.2292042 315.055269,44.131285 315.055269,41.4193001 C315.055269,38.7073152 314.329425,36.6179242 312.877715,35.1510644 C311.426005,33.6842046 309.671883,32.9507858 307.615294,32.9507858 C305.558706,32.9507858 303.821865,33.6842046 302.40472,35.1510644 C300.987575,36.6179242 300.279013,38.7158433 300.279013,41.4448847 C300.279013,44.1739262 300.987575,46.2718453 302.40472,47.7387051 C303.821865,49.2055648 305.550065,49.9389837 307.589371,49.9389837 C309.628677,49.9389837 311.3828,49.1970367 312.851792,47.7131204 L312.851792,47.7131204 Z M292.864962,41.3937155 C292.864962,37.0272492 294.282085,33.513661 297.116376,30.8528457 C299.950666,28.1920303 303.467552,26.8616425 307.667141,26.8616425 C311.866729,26.8616425 315.383616,28.1920303 318.217906,30.8528457 C321.052196,33.513661 322.46932,37.0272492 322.46932,41.3937155 C322.46932,45.7601818 321.043555,49.2908262 318.191982,51.9857546 C315.34041,54.680683 311.806242,56.028127 307.589371,56.028127 C303.3725,56.028127 299.864255,54.680683 297.064529,51.9857546 C294.264803,49.2908262 292.864962,45.7601818 292.864962,41.3937155 L292.864962,41.3937155 Z M360.835738,27.2709967 L367.835017,27.2709967 L359.02111,55.6187728 L351.244133,55.6187728 L346.318715,36.583804 L341.34145,55.6187728 L333.564473,55.6187728 L324.750566,27.2709967 L332.112771,27.2709967 L337.401115,48.8132598 L342.689459,27.2709967 L350.362743,27.2709967 L355.547394,48.7620905 L360.835738,27.2709967 Z M392.61765,41.4448847 C392.61765,38.8522954 391.857242,36.8140731 390.336403,35.3301569 C388.815564,33.8462406 387.035519,33.1042936 384.996212,33.1042936 C382.956906,33.1042936 381.185501,33.8377125 379.681945,35.3045722 C378.178389,36.771432 377.426622,38.8011261 377.426622,41.3937155 C377.426622,43.9863048 378.18703,46.0330552 379.707868,47.534028 C381.228707,49.0350008 383.000112,49.7854759 385.022136,49.7854759 C387.04416,49.7854759 388.815564,49.0435289 390.336403,47.5596126 C391.857242,46.0756964 392.61765,44.0374741 392.61765,41.4448847 L392.61765,41.4448847 Z M370.012571,41.3937155 C370.012571,37.1295882 371.291438,33.6415845 373.849212,30.9295996 C376.406986,28.2176146 379.656002,26.8616425 383.596357,26.8616425 C387.536711,26.8616425 390.543779,28.4649303 392.61765,31.671554 L392.61765,17.7535123 L399.876161,17.7535123 L399.876161,55.6187728 L392.61765,55.6187728 L392.61765,50.8600306 C390.440085,54.3054454 387.415736,56.028127 383.54451,56.028127 C379.673284,56.028127 376.450192,54.6550986 373.875136,51.9090007 C371.300079,49.1629027 370.012571,45.6578427 370.012571,41.3937155 L370.012571,41.3937155 Z" fill="#1A2848" id="HelloCrowd"></path></g></g></g></svg>