<?xml version="1.0" encoding="utf-8"?>
<!-- Generator: Adobe Illustrator 21.1.0, SVG Export Plug-In . SVG Version: 6.00 Build 0)  -->
<svg version="1.1" id="Layer_1" xmlns="http://www.w3.org/2000/svg" xmlns:xlink="http://www.w3.org/1999/xlink" x="0px" y="0px"
	 viewBox="0 0 204 47" style="enable-background:new 0 0 204 47;" xml:space="preserve">
<style type="text/css">
	.st0{fill:#00B8DE;}
	.st1{fill:#A6CE39;}
	.st2{fill:#A7A9AC;}
	.st3{fill:#ED1C24;}
	.st4{fill:#414042;}
	.st5{fill:#77787B;}
</style>
<g>
	<g>
		<path class="st0" d="M16.5,31.4l-1.2-2.2l-7.2-2.4c-0.4,0.3-1.4,1.3-2.2,3.7c-0.8,2.3-0.5,3.6-0.3,4l7.4,2.4l2.1-1.1h0l0.5-0.2
			l0,0.4l2.1,0.9l3.3-4.6L16.5,31.4z"/>
		<path class="st0" d="M30.3,36.4L26.9,41l5.3,2.2c0.4-0.5,1.3-1.9,1.9-3.5c0.5-1.6,0.6-3.4,0.6-4.2L30,34.5L30.3,36.4z"/>
		<path class="st1" d="M37,24.6l4.3-4.9c-0.4-0.6-1.4-1.9-2.8-2.8c-1.4-1-3.1-1.6-3.8-1.9l-2.8,4.7l1.9,0.3L37,24.6z"/>
		<path class="st1" d="M29,34.3l-0.1-0.5l0,0l0.3-0.4l1-1.1L27,27.8L25.1,31l-2.4,0.5l-0.3,0.4l-0.3,0.4l-0.3,0.4l-3.4,4.7l-0.2,0.3
			c0,0,0,0.1,0.1,0.1c0.1,0.2,0.2,0.4,0.4,0.7c0.4,0.6,1.1,1.5,2.4,2.4c2,1.4,3.3,1.5,3.7,1.6l0.7-1l0.3-0.4l0.3-0.4l3.2-4.5
			L29,34.3z"/>
		<path class="st2" d="M18.7,11l5.5-1.8l-2.9-4.9c-0.7,0.2-2.2,0.7-3.6,1.7c-1.4,1-2.5,2.4-3,3l3.1,3.6L18.7,11z"/>
		<path class="st2" d="M36.6,25.7l-0.3-0.4l-3.2-4.4l-1.8-0.3l-0.5-0.1l0,0l-0.2-0.4l-1.2-2L24,19.8l3,3.5l-0.3,2.4l0.3,0.5l0.3,0.4
			l0.3,0.4l3.3,4.6l0.2,0.3c0,0,0.1,0,0.2,0c0.2,0,0.4-0.1,0.7-0.1c0.7-0.2,1.8-0.6,3-1.5c2-1.4,2.5-2.6,2.7-3l-0.8-1.1L36.6,25.7z"
			/>
		<path class="st3" d="M6.1,22.4l0-5.6L0,18.1c0,0.7,0,2.3,0.6,3.9c0.5,1.6,1.5,3.1,2,3.7l4.9-2.1L6.1,22.4z"/>
		<path class="st3" d="M18.5,13.4l-0.2,0.4l0,0L17.8,14l-1.7,0.4l0,5.6l3.6-1.6l2.2,1.1l0.4-0.1l0.5-0.2l0.5-0.2l5.6-1.8l0.3-0.1
			c0,0,0-0.1,0-0.2c0-0.2,0.1-0.4,0.1-0.8c0-0.7,0-1.8-0.5-3.3C28,10.5,27,9.6,26.7,9.4l-1.2,0.4l-0.4,0.1l-0.4,0.1l-5.3,1.7
			L18.5,13.4z"/>
		<polygon class="st4" points="12.9,38 13,38 14.6,37.2 		"/>
		<path class="st5" d="M14.5,37.2L13,38l-0.1,0h0l-0.1,0l-5.2-1.7l-0.6,6c0.7,0.2,2.2,0.7,3.9,0.7c1.7,0,3.5-0.5,4.2-0.7L14.5,37.2
			L14.5,37.2z"/>
		<path class="st5" d="M15,14.2c-0.2-0.1-0.4-0.2-0.7-0.3c-0.7-0.3-1.8-0.5-3.4-0.6h0c-2.4,0-3.6,0.7-3.9,0.9l0,1.3L7,16v0.5L7,22
			l1.3,1.3l0.4,0.3l0,0l0,0.5l-0.2,1.9l5.3,1.7l-0.4-4.1l1.7-1.8l0-0.5v-0.5l0-0.5l0-5.7l0-0.4C15.1,14.3,15.1,14.2,15,14.2"/>
	</g>
	<g>
		<path class="st5" d="M71.5,32h-9.2V16.4c0-1.4-1.1-2.5-2.5-2.5h-2.5V34c0,1.4,1.1,2.5,2.5,2.5h11.7c1.3,0,2.3-1,2.3-2.3
			C73.8,33,72.8,32,71.5,32"/>
		<path class="st5" d="M81.6,13.9h-2.5v20.3c0,1.4,1.1,2.5,2.5,2.5c1.4,0,2.5-1.1,2.5-2.5V16.4C84,15,82.9,13.9,81.6,13.9"/>
		<path class="st5" d="M108.2,13.7c-1.2,0-2.1,0.8-2.4,1.6l-5.7,14.8l-5.7-14.6c-0.4-1-1.2-1.7-2.5-1.7c-1.4,0-2.5,1.1-2.5,2.5
			c0,0.4,0.1,0.8,0.3,1.2L97,34.9c0.6,1.4,1.7,2,2.8,2h0.3c1.4,0,2.3-0.7,2.8-2l7.4-17.7c0.1-0.3,0.3-0.7,0.3-1.1
			C110.7,14.7,109.6,13.7,108.2,13.7"/>
		<path class="st5" d="M127.1,15.5c-0.5-1.2-1.5-2-2.9-2H124c-1.4,0-2.4,0.7-2.9,2l-7.9,17.8c-0.2,0.4-0.3,0.7-0.3,1.1
			c0,1.3,1,2.3,2.3,2.3c1,0,1.9-0.6,2.3-1.5l1.6-3.7l1.8-4.4l3.1-7.5l3.1,7.5l0.9,2.1h-6.4l-1.8,4.4h10l0.6,1.4
			c0.5,1,1.2,1.7,2.4,1.7c1.3,0,2.4-1.1,2.4-2.4c0-0.3-0.1-0.6-0.3-1L127.1,15.5z"/>
		<path class="st5" d="M153.2,13.9h-16.9v2.3c0,1.3,1,2.3,2.3,2.3h4.8v15.7c0,1.4,1.1,2.5,2.5,2.5c1.4,0,2.5-1.1,2.5-2.5V18.5h4.8
			c1.3,0,2.3-1,2.3-2.3S154.5,13.9,153.2,13.9"/>
		<path class="st5" d="M175.9,32.1h-10.3v-4.7h8.6c1.2,0,2.2-1,2.2-2.2c0-1.2-1-2.2-2.2-2.2h-8.6v-4.6h10.1c1.2,0,2.2-1,2.2-2.2
			c0-1.2,0-2.2,0-2.2h-14.8c-1.4,0-2.5,1.1-2.5,2.5V34c0,1.4,1.1,2.5,2.5,2.5h12.7c1.2,0,2.2-1,2.2-2.2
			C178.2,33.1,177.2,32.1,175.9,32.1"/>
		<path class="st5" d="M187.3,13.9h-2.5v20.4c0,1.4,1.1,2.5,2.5,2.5c1.4,0,2.5-1.1,2.5-2.5V16.4C189.8,15,188.7,13.9,187.3,13.9"/>
		<path class="st5" d="M203.4,32.6l-6-8.8l5.4-5.8c0.5-0.6,0.7-1.1,0.7-1.9c0-1.2-0.9-2.3-2.3-2.3c-0.9,0-1.4,0.4-1.9,1l-7.5,8.8
			l7.7,12c0.4,0.6,1,1.2,2,1.2c1.5,0,2.5-1,2.5-2.4C204,33.6,203.8,33.2,203.4,32.6"/>
		<polygon class="st5" points="130.2,14.7 130.3,14.7 131.1,14.3 		"/>
	</g>
</g>
</svg>
