<?xml version="1.0" encoding="UTF-8" standalone="no"?>
<svg
   xmlns:dc="http://purl.org/dc/elements/1.1/"
   xmlns:cc="http://creativecommons.org/ns#"
   xmlns:rdf="http://www.w3.org/1999/02/22-rdf-syntax-ns#"
   xmlns:svg="http://www.w3.org/2000/svg"
   xmlns="http://www.w3.org/2000/svg"
   viewBox="0 0 354.77332 190.93333"
   height="190.93333"
   width="354.77332"
   xml:space="preserve"
   id="svg2"
   version="1.1"><metadata
     id="metadata8"><rdf:RDF><cc:Work
         rdf:about=""><dc:format>image/svg+xml</dc:format><dc:type
           rdf:resource="http://purl.org/dc/dcmitype/StillImage" /></cc:Work></rdf:RDF></metadata><defs
     id="defs6" /><g
     transform="matrix(1.3333333,0,0,-1.3333333,0,190.93333)"
     id="g10"><g
       transform="scale(0.1)"
       id="g12"><path
         id="path14"
         style="fill:#2e2a2b;fill-opacity:1;fill-rule:nonzero;stroke:none"
         d="m 705.586,303.871 -12.648,-5.269 c -5.926,10.558 -15.692,16.16 -28.817,16.16 -21.758,0 -32.012,-11.84 -32.012,-32.973 v -28.5 c 0,-19.359 10.887,-29.449 30.411,-29.449 12.335,0 20.82,3.531 27.539,12.648 v 21.133 h -19.688 v 11.359 h 35.527 V 211.199 H 691.34 v 10.563 h -0.324 c -8.477,-8.321 -19.532,-12 -32.325,-12 -27.382,0 -44.343,15.687 -44.343,43.218 v 28.969 c 0,28.172 15.847,46.891 47.859,46.891 21.133,0 37.617,-10.559 43.379,-24.969" /><path
         id="path16"
         style="fill:#2e2a2b;fill-opacity:1;fill-rule:nonzero;stroke:none"
         d="M 824.785,327.238 V 312.52 h -59.226 v -35.211 h 46.57 V 264.18 h -46.57 v -38.418 h 61.621 v -14.563 h -79.387 v 116.039 h 76.992" /><path
         id="path18"
         style="fill:#2e2a2b;fill-opacity:1;fill-rule:nonzero;stroke:none"
         d="m 878.984,327.238 57.95,-84.187 h 0.312 v 84.187 h 15.852 V 211.199 h -12.961 l -59.063,86.11 h -0.332 v -86.11 h -15.84 v 116.039 h 14.082" /><path
         id="path20"
         style="fill:#2e2a2b;fill-opacity:1;fill-rule:nonzero;stroke:none"
         d="M 1075.49,327.238 V 312.52 h -59.22 v -35.211 h 46.58 V 264.18 h -46.58 v -38.418 h 61.62 v -14.563 h -79.394 v 116.039 h 76.994" /><path
         id="path22"
         style="fill:#2e2a2b;fill-opacity:1;fill-rule:nonzero;stroke:none"
         d="m 1165.88,211.199 h -17.93 l -44.98,116.039 h 19.69 l 34.25,-97.468 h 0.33 l 34.09,97.468 h 19.84 l -45.29,-116.039" /><path
         id="path24"
         style="fill:#2e2a2b;fill-opacity:1;fill-rule:nonzero;stroke:none"
         d="m 1256.27,252.809 h 43.38 l -21.61,58.91 h -0.33 z m -15.21,-41.61 h -18.4 l 46.09,116.039 h 18.73 l 46.09,-116.039 h -18.39 l -10.57,28.492 h -53.15 l -10.4,-28.492" /><path
         id="path26"
         style="fill:#2e2a2b;fill-opacity:1;fill-rule:nonzero;stroke:none"
         d="m 1442.26,327.332 v -49.781 h 52.66 v 49.781 h 17.77 V 211.281 h -17.77 v 51.379 h -52.66 v -51.379 h -17.77 v 116.051 h 17.77" /><path
         id="path28"
         style="fill:#2e2a2b;fill-opacity:1;fill-rule:nonzero;stroke:none"
         d="m 1628.52,285.391 c 0,19.371 -9.6,29.289 -28.66,29.289 -19.05,0 -28.65,-9.918 -28.65,-29.289 v -32.172 c 0,-19.528 9.6,-29.778 28.65,-29.778 19.06,0 28.66,10.25 28.66,29.778 z m 17.76,0.16 v -32.332 c 0,-26.41 -16.64,-43.539 -46.42,-43.539 -29.77,0 -46.41,17.129 -46.41,43.539 v 32.172 c 0,26.41 16.64,43.539 46.41,43.539 29.78,0 46.42,-17.129 46.42,-43.379" /><path
         id="path30"
         style="fill:#2e2a2b;fill-opacity:1;fill-rule:nonzero;stroke:none"
         d="m 1758.92,327.332 v -14.891 h -34.42 v -101.16 h -17.77 v 101.16 h -34.42 v 14.891 h 86.61" /><path
         id="path32"
         style="fill:#2e2a2b;fill-opacity:1;fill-rule:nonzero;stroke:none"
         d="m 1869.48,327.332 v -14.73 h -59.23 v -35.211 h 46.58 v -13.129 h -46.58 v -38.41 h 61.63 v -14.571 h -79.39 v 116.051 h 76.99" /><path
         id="path34"
         style="fill:#2e2a2b;fill-opacity:1;fill-rule:nonzero;stroke:none"
         d="m 1926.73,327.332 v -101.16 h 54.1 v -14.891 h -71.23 v 116.051 h 17.13" /><path
         id="path36"
         style="fill:#a08e59;fill-opacity:1;fill-rule:nonzero;stroke:none"
         d="m 1353.73,997.457 h -118.45 v -94.531 h -77.97 v -20.36 h 274.25 v 20.36 h -77.83 v 94.531" /><path
         id="path38"
         style="fill:#a08e59;fill-opacity:1;fill-rule:nonzero;stroke:none"
         d="m 1353.73,1411.48 h 44.74 c 143.77,0 192.83,-96.72 192.83,-171.41 0,-89.63 -40.98,-171.39 -191.77,-171.39 h -45.8 z m 43.52,20.49 h -102.87 l -135.85,-69.3 v -22.32 l 76.75,37.06 v -292.51 -40.86 h 172.37 c 240.47,0 308.28,89.24 308.28,193.92 0,112.77 -82.8,194.01 -318.68,194.01" /><path
         id="path40"
         style="fill:#a08e59;fill-opacity:1;fill-rule:nonzero;stroke:none"
         d="m 1236.01,1044.04 h -9.18 c -111.33,0 -148.44,58.12 -148.69,102.51 v 0.03 0 0 c 0,14.7 13.05,27.33 29,27.33 16.08,0 29.03,-12.63 29.03,-27.33 0,-0.51 0,-4.78 0,-5.28 0.83,-37.26 25.99,-71.15 94.27,-71.15 h 5.45 l 0.12,-26.11" /><path
         id="path42"
         style="fill:#2e2a2b;fill-opacity:1;fill-rule:nonzero;stroke:none"
         d="m 495.137,611.227 h 40.097 c 17.129,0 32.403,1.738 45.547,5.324 13.145,3.582 24.063,11.023 32.813,22.429 8.769,11.497 13.144,27.903 13.144,49.485 0,16.523 -3.457,29.473 -10.488,38.64 -7.031,9.231 -16.875,15.598 -29.492,19.258 -12.598,3.508 -28.692,5.246 -48.203,5.246 h -43.418 z m 0,-143.555 h 44.218 V 457.645 H 387.031 v 10.027 h 43.946 v 283.937 h -43.946 v 9.551 h 154.981 c 29.746,0 55.781,-1.523 78.086,-4.64 22.461,-3.125 41.035,-10.04 56.172,-20.79 15,-10.753 22.441,-26.691 22.441,-47.746 0,-20.437 -9.023,-38.25 -27.09,-53.183 -18.066,-14.988 -48.066,-23.965 -90.039,-27.02 v -2.051 c 24.316,-3.273 43.301,-7.785 56.836,-13.613 13.691,-5.851 23.652,-13.359 30.02,-22.461 6.523,-9.082 10.898,-19.582 13.281,-31.398 2.383,-11.883 5.312,-30.867 8.496,-56.903 1.328,-11.035 3.203,-19.738 5.586,-26.289 2.383,-6.523 6.914,-9.765 13.281,-9.765 4.375,0 9.824,1.855 16.055,5.644 6.25,3.778 11.289,7.625 14.883,11.414 l 8.632,-7.976 c -9.433,-11.223 -18.867,-18.574 -28.164,-21.973 -9.433,-3.449 -20.312,-5.101 -32.383,-5.101 -15.683,0 -28.027,2.05 -36.933,6.175 -8.906,4.11 -15.664,11.465 -20.313,22.032 -4.785,10.632 -8.379,26.414 -11.015,47.422 -2.813,23.886 -6.114,42.546 -9.844,55.964 -3.848,13.43 -8.633,23.098 -14.219,29.016 -5.703,5.984 -12.343,9.707 -20.039,11.172 -7.558,1.387 -19.121,2.109 -34.258,2.109 H 495.137 V 467.672" /><path
         id="path44"
         style="fill:#2e2a2b;fill-opacity:1;fill-rule:nonzero;stroke:none"
         d="m 851.035,467.672 v 283.937 h -44.082 v 9.551 h 282.067 l 6.23,-94.746 h -13.67 c -4.37,28.75 -14.45,50.137 -29.74,64.141 -15.41,14.082 -36.92,21.054 -64.672,21.054 H 915.195 V 613.895 h 20.567 c 15.41,0 28.828,3.652 40.254,10.886 11.406,7.16 18.593,23.625 21.523,49.27 h 11.411 V 542.703 h -11.411 c -3.203,16.668 -6.797,29.277 -10.898,37.918 -3.985,8.567 -9.571,14.621 -16.739,18.137 -7.168,3.387 -17.402,5.086 -30.8,5.086 H 915.195 V 467.672 h 81.817 c 24.438,0 45.138,6.242 61.988,18.937 17.02,12.735 29.11,37.039 36.25,73.282 h 13.83 L 1097.13,457.645 H 806.953 v 10.027 h 44.082" /><path
         id="path46"
         style="fill:#2e2a2b;fill-opacity:1;fill-rule:nonzero;stroke:none"
         d="M 1402.19,540.172 1509.3,761.16 h 108.1 v -9.551 h -43.96 V 467.672 h 43.96 v -10.027 h -152.2 v 10.027 h 44.1 V 731.023 L 1382.27,460.035 h -10.38 L 1239.1,728.629 V 509.234 c 0,-10.75 2.52,-19.921 7.56,-27.558 5.04,-7.5 17.01,-12.274 36,-14.004 V 457.645 H 1180.8 v 10.027 c 18.58,0 31.08,4.648 37.03,14.004 6.25,9.433 9.3,18.722 9.3,28.097 v 213.34 c 0,18.992 -11.66,28.496 -34.92,28.496 h -10.35 l 0.54,9.551 h 108.23 l 111.56,-220.988" /><path
         id="path48"
         style="fill:#2e2a2b;fill-opacity:1;fill-rule:nonzero;stroke:none"
         d="m 1739.3,467.672 v 283.937 h -44.1 v 9.551 h 152.36 v -9.551 h -44.24 V 467.672 h 44.24 V 457.645 H 1695.2 v 10.027 h 44.1" /><path
         id="path50"
         style="fill:#2e2a2b;fill-opacity:1;fill-rule:nonzero;stroke:none"
         d="m 1969.45,467.672 v 283.937 h -44.08 v 9.551 h 282.07 l 6.23,-94.746 h -13.55 c -4.51,28.75 -14.48,50.137 -29.87,64.141 -15.41,14.082 -37.05,21.054 -64.68,21.054 h -72.11 V 613.895 h 20.72 c 15.41,0 28.83,3.652 40.21,10.886 11.57,7.16 18.75,23.625 21.53,49.27 h 11.44 V 542.703 h -11.44 c -3.17,16.668 -6.76,29.277 -10.76,37.918 -4.11,8.567 -9.67,14.621 -16.84,18.137 -7.17,3.387 -17.4,5.086 -30.82,5.086 h -24.04 V 467.672 h 81.93 c 24.59,0 45.16,6.242 62.15,18.937 16.87,12.735 28.96,37.039 36.13,73.282 h 13.93 l -12.07,-102.246 h -290.16 v 10.027 h 44.08" /><path
         id="path52"
         style="fill:#2e2a2b;fill-opacity:1;fill-rule:nonzero;stroke:none"
         d="m 2407.3,611.227 h 40.1 c 17.29,0 32.4,1.738 45.43,5.324 13.15,3.582 24.18,11.023 32.93,22.429 8.75,11.497 13.15,27.903 13.15,49.485 0,16.523 -3.6,29.473 -10.49,38.64 -7.03,9.231 -16.86,15.598 -29.47,19.258 -12.64,3.508 -28.7,5.246 -48.21,5.246 h -43.44 z m 0,-143.555 h 44.09 v -10.027 h -152.31 v 10.027 h 44.08 v 283.937 h -44.08 v 9.551 h 155.1 c 29.75,0 55.78,-1.523 78.22,-4.64 22.33,-3.125 41.04,-10.04 56.04,-20.79 15.02,-10.753 22.58,-26.691 22.58,-47.746 0,-20.437 -9.14,-38.25 -27.23,-53.183 -18.05,-14.988 -48.2,-23.965 -90.04,-27.02 v -2.051 c 24.32,-3.273 43.3,-7.785 56.84,-13.613 13.69,-5.851 23.65,-13.359 30.02,-22.461 6.5,-9.082 10.89,-19.582 13.3,-31.398 2.38,-11.883 5.29,-30.867 8.49,-56.903 1.33,-11.035 3.19,-19.738 5.57,-26.289 2.4,-6.523 6.78,-9.765 13.28,-9.765 4.38,0 9.69,1.855 16.07,5.644 6.23,3.778 11.29,7.625 14.87,11.414 l 8.63,-7.976 c -9.41,-11.223 -18.73,-18.574 -28.14,-21.973 -9.44,-3.449 -20.32,-5.101 -32.43,-5.101 -15.66,0 -28,2.05 -36.89,6.175 -8.79,4.11 -15.66,11.465 -20.33,22.032 -4.79,10.632 -8.36,26.414 -11.04,47.422 -2.77,23.886 -5.97,42.546 -9.82,55.964 -3.85,13.43 -8.62,23.098 -14.2,29.016 -5.7,5.984 -12.34,9.707 -20.06,11.172 -7.56,1.387 -19.12,2.109 -34.26,2.109 H 2407.3 V 467.672" /><path
         id="path54"
         style="fill:#2e2a2b;fill-opacity:1;fill-rule:nonzero;stroke:none"
         d="m 108.828,574.43 h 39.805 c 37.383,0 61.972,7.519 73.808,22.597 11.817,15.078 17.911,34.426 18.262,58.078 v 15.645 c -0.176,15.352 -1.836,28.699 -4.902,40.098 -3.086,11.375 -11.367,21.504 -24.824,30.371 C 197.5,750.066 176.738,754.5 148.633,754.5 H 108.828 Z M 44.2773,468.68 V 754.5 H 0 v 9.617 h 165.918 c 13.301,0 27.637,-1.023 43.008,-3.133 15.371,-2.109 31.113,-6.484 47.187,-13.066 16.055,-6.621 29.629,-16.809 40.606,-30.547 11.035,-13.769 16.543,-31.621 16.543,-53.652 0,-25.723 -10.098,-48.633 -30.293,-68.711 C 262.754,574.871 223.555,564.82 165.352,564.82 h -56.524 v -96.14 h 44.414 V 458.621 H 0 v 10.059 h 44.2773" /><path
         id="path56"
         style="fill:#2e2a2b;fill-opacity:1;fill-rule:nonzero;stroke:none"
         d="m 926.27,41.0195 h 30.703 V 31.1797 H 926.27 v 9.8398" /><path
         id="path58"
         style="fill:#2e2a2b;fill-opacity:1;fill-rule:nonzero;stroke:none"
         d="m 1081.99,56.7305 c 0,14.5078 -7.2,21.9414 -21.46,21.9414 -14.28,0 -21.48,-7.4336 -21.48,-21.9414 V 32.6211 c 0,-14.6328 7.2,-22.3125 21.48,-22.3125 14.26,0 21.46,7.6797 21.46,22.3125 z m 13.31,0.1211 V 32.6211 C 1095.3,12.832 1082.83,0 1060.53,0 c -22.32,0 -34.79,12.832 -34.79,32.6211 v 24.1094 c 0,19.789 12.47,32.6211 34.79,32.6211 22.3,0 34.77,-12.8321 34.77,-32.5" /><path
         id="path60"
         style="fill:#2e2a2b;fill-opacity:1;fill-rule:nonzero;stroke:none"
         d="m 1160.36,77.3594 h -21.1 V 11.7617 h 21.1 c 14.4,0 21.71,7.3086 21.71,22.2969 v 20.75 c 0,14.9922 -7.31,22.5508 -21.71,22.5508 z m 0,10.789 c 22.19,0 35.02,-12.8281 35.02,-32.7382 v -21.711 c 0,-19.789 -12.83,-32.49998 -35.02,-32.49998 h -34.42 V 88.1484 h 34.42" /><path
         id="path62"
         style="fill:#2e2a2b;fill-opacity:1;fill-rule:nonzero;stroke:none"
         d="M 1283.71,88.1484 V 77.1211 h -44.37 V 50.7305 h 34.9 v -9.8321 h -34.9 v -28.789 h 46.17 V 1.19922 h -59.49 V 88.1484 h 57.69" /><path
         id="path64"
         style="fill:#2e2a2b;fill-opacity:1;fill-rule:nonzero;stroke:none"
         d="m 1367.34,72.3203 -8.99,-4.4414 c -3.23,6.9609 -11.03,11.2813 -20.51,11.2813 -12.47,0 -17.15,-5.6407 -17.15,-12.4805 0,-19.1914 47.61,-12.3516 47.61,-41.7383 C 1368.3,9.10938 1356.19,0 1337.6,0 c -14.39,0 -27.1,7.92188 -31.42,19.6719 l 9.95,3.957 c 3.48,-8.3984 12.24,-13.3203 21.35,-13.3203 11.88,0 18.36,4.4414 18.36,13.6797 0,20.6328 -48.22,12.2305 -48.22,42.0937 0,13.1875 11.03,23.2696 29.14,23.2696 14.64,0 25.79,-6.8399 30.58,-17.0313" /><path
         id="path66"
         style="fill:#2e2a2b;fill-opacity:1;fill-rule:nonzero;stroke:none"
         d="m 1448.83,72.3203 -9.01,-4.4414 c -3.23,6.9609 -11.02,11.2813 -20.5,11.2813 -12.46,0 -17.15,-5.6407 -17.15,-12.4805 0,-19.1914 47.62,-12.3516 47.62,-41.7383 C 1449.79,9.10938 1437.68,0 1419.08,0 c -14.39,0 -27.11,7.92188 -31.42,19.6719 l 9.96,3.957 c 3.47,-8.3984 12.22,-13.3203 21.34,-13.3203 11.88,0 18.35,4.4414 18.35,13.6797 0,20.6328 -48.21,12.2305 -48.21,42.0937 0,13.1875 11.04,23.2696 29.14,23.2696 14.63,0 25.78,-6.8399 30.59,-17.0313" /><path
         id="path68"
         style="fill:#2e2a2b;fill-opacity:1;fill-rule:nonzero;stroke:none"
         d="m 1492.17,32.3789 h 32.5 l -16.19,44.1406 h -0.24 z m -11.4,-31.17968 h -13.79 l 34.54,86.94918 h 14.03 L 1550.1,1.19922 h -13.79 l -7.92,21.35158 h -39.82 l -7.8,-21.35158" /><path
         id="path70"
         style="fill:#2e2a2b;fill-opacity:1;fill-rule:nonzero;stroke:none"
         d="m 1612.54,41.0195 h 30.7 v -9.8398 h -30.7 v 9.8398" /></g></g></svg>