<?xml version="1.0" encoding="UTF-8"?> <svg xmlns="http://www.w3.org/2000/svg" xmlns:xlink="http://www.w3.org/1999/xlink" width="196px" height="51px" viewBox="0 0 196 51"> <!-- Generator: Sketch 52.1 (67048) - http://www.bohemiancoding.com/sketch --> <title>logo</title> <desc>Created with Sketch.</desc> <g id="Page-1" stroke="none" stroke-width="1" fill="none" fill-rule="evenodd"> <g id="r" transform="translate(-109.000000, -539.000000)" fill="#1D1D1D"> <g id="logo" transform="translate(109.000000, 539.000000)"> <path d="M0,0 L3.03671445,0 L3.03671445,14.9005802 C4.31524829,12.9642748 6.28730418,11.8885496 8.52434525,11.8885496 C10.9752616,11.8885496 13,13.5557252 13,16.5145649 L13,39 L9.96328555,39 L9.96328555,17.2139847 C9.96328555,15.4928244 8.73822053,14.4702901 7.35274905,14.4702901 C4.95530152,14.4702901 3.03671445,16.1382595 3.03671445,18.935145 L3.03671445,39 L0,39 L0,0 Z" id="Fill-1"></path> <path d="M20.049256,23.9056971 L26.950744,23.9056971 L26.950744,18.1120827 C26.950744,15.6670928 25.3992712,14.5508846 23.47355,14.5508846 C21.6007288,14.5508846 20.049256,15.6670928 20.049256,18.1120827 L20.049256,23.9056971 Z M20.049256,26.4565817 L20.049256,32.9412568 C20.049256,35.173673 21.6007288,36.4491154 23.47355,36.4491154 C25.3992712,36.4491154 26.950744,35.173673 26.950744,32.9412568 L26.950744,30.3370326 L30,30.3370326 L30,32.9412568 C30,36.8209233 27.0573337,39 23.47355,39 C19.8889766,39 17,36.8209233 17,32.9412568 L17,18.1120827 C17,14.2324163 19.8889766,12 23.47355,12 C27.0573337,12 30,14.2324163 30,18.1120827 L30,26.4565817 L20.049256,26.4565817 Z" id="Fill-3"></path> <path d="M41.5268432,26.2435942 C39.6012389,26.5094997 38.0490708,27.5723375 38.0490708,29.8054732 L38.0490708,33.8975946 C38.0490708,35.5447969 39.1725373,36.4484051 40.5099599,36.4484051 C42.7039961,36.4484051 44.9509292,34.8004183 44.9509292,32.0370403 L44.9509292,25.8192435 L41.5268432,26.2435942 Z M44.9509292,36.02327 C43.7200899,37.9897159 41.4194704,39 39.2799101,39 C36.9263938,39 35,37.4045668 35,34.5878508 L35,29.8054732 C35,25.9251351 37.6748451,24.1704724 40.9923479,23.7461217 L44.9509292,23.2676486 L44.9509292,18.0593516 C44.9509292,15.8262158 43.4524475,14.5508105 41.5268432,14.5508105 C39.6012389,14.5508105 38.0490708,15.8262158 38.0490708,18.0593516 L38.0490708,20.6635001 L35,20.6635001 L35,18.0593516 C35,14.1790134 37.9424876,12 41.5268432,12 C45.1111988,12 48,14.1790134 48,18.0593516 L48,38.7866481 L44.9509292,38.7866481 L44.9509292,36.02327 Z" id="Fill-5"></path> <polygon id="Fill-7" points="52 39 55 39 55 0 52 0"></polygon> <path d="M69,38.6831276 C68.5148462,38.7884916 67.6527041,39 66.359491,39 C62.8560445,39 60,36.8318433 60,32.9185469 L60,6 L63.0723754,6 L63.0723754,12.3468142 L69,12.3468142 L69,14.8849156 L63.0723754,14.8849156 L63.0723754,32.9185469 C63.0723754,35.1389953 64.6352068,36.4611182 66.6823966,36.4611182 C67.6527041,36.4611182 68.5148462,36.2496098 69,36.0911735 L69,38.6831276 Z" id="Fill-9"></path> <path d="M73,0 L76.0367144,0 L76.0367144,14.9005802 C77.3152483,12.9642748 79.2873042,11.8885496 81.5243452,11.8885496 C83.9752616,11.8885496 86,13.5557252 86,16.5145649 L86,39 L82.9632856,39 L82.9632856,17.2139847 C82.9632856,15.4928244 81.7382205,14.4702901 80.352749,14.4702901 C77.9553015,14.4702901 76.0367144,16.1382595 76.0367144,18.935145 L76.0367144,39 L73,39 L73,0 Z" id="Fill-10"></path> <path d="M93.049256,43.0280387 L93.049256,44.8471334 C93.049256,47.0941574 94.6007288,48.4316341 96.5272396,48.4316341 C98.4529608,48.4316341 99.950744,47.0941574 99.950744,44.8471334 L99.950744,35.9672038 C98.7198299,37.8928861 96.6867294,38.9627095 94.4933495,38.9627095 C92.032311,38.9627095 90,37.3046805 90,34.3612843 L90,12 L93.049256,12 L93.049256,33.6664912 C93.049256,35.4311078 94.2264804,36.3943437 95.6705739,36.3943437 C98.0787124,36.3943437 99.950744,34.7363147 99.950744,31.9547737 L99.950744,12 L103,12 L103,44.8471334 C103,48.7521864 100.110234,51 96.5272396,51 C92.9426663,51 90,48.7521864 90,44.8471334 L90,43.0280387 L93.049256,43.0280387 Z" id="Fill-11"></path> <path d="M119.049441,32.9406484 C119.049441,35.1729998 120.599429,36.4484051 122.472364,36.4484051 C124.398202,36.4484051 125.949769,35.1729998 125.949769,32.9406484 L125.949769,18.1119052 C125.949769,15.8795538 124.398202,14.5508105 122.472364,14.5508105 C120.599429,14.5508105 119.049441,15.8795538 119.049441,18.1119052 L119.049441,32.9406484 Z M129,18.1119052 L129,32.9406484 C129,36.8202022 126.057155,39 122.472364,39 C118.888362,39 116,36.8202022 116,32.9406484 L116,18.1119052 C116,14.2323514 118.888362,12 122.472364,12 C126.057155,12 129,14.2323514 129,18.1119052 Z" id="Fill-12"></path> <path d="M133,6.15274207 C133,2.19329109 135.856587,0 139.359724,0 C140.652028,0 141.514094,0.214749884 142,0.321335304 L142,2.94333664 C141.514094,2.78227423 140.652028,2.56831387 139.682601,2.56831387 C137.634002,2.56831387 136.071309,3.90576351 136.071309,6.15274207 L136.071309,12.2517967 L142,12.2517967 L142,14.819321 L136.071309,14.819321 L136.071309,39 L133,39 L133,6.15274207 Z" id="Fill-13"></path> <path d="M146,6.15274207 C146,2.19329109 148.856587,0 152.359724,0 C153.652028,0 154.514094,0.214749884 155,0.321335304 L155,2.94333664 C154.514094,2.78227423 153.652028,2.56831387 152.682601,2.56831387 C150.634002,2.56831387 149.071309,3.90576351 149.071309,6.15274207 L149.071309,12.2517967 L155,12.2517967 L155,14.819321 L149.071309,14.819321 L149.071309,39 L146,39 L146,6.15274207 Z" id="Fill-14"></path> <path d="M158,39 L161,39 L161,12.5716515 L158,12.5716515 L158,39 Z M158,6.96833295 L161,6.96833295 L161,2 L158,2 L158,6.96833295 Z" id="Fill-15"></path> <path d="M169.125117,33.100491 C169.125117,35.2270126 170.607523,36.4491154 172.472068,36.4491154 C174.337423,36.4491154 175.873264,35.2270126 175.873264,33.100491 L175.873264,30.3370326 L179,30.3370326 L179,33.100491 C179,36.8742628 176.038426,39 172.472068,39 C168.906521,39 166,36.8742628 166,33.100491 L166,17.9528486 C166,14.1790767 168.906521,12 172.472068,12 C176.038426,12 179,14.1790767 179,17.9528486 L179,20.6637518 L175.873264,20.6637518 L175.873264,17.9528486 C175.873264,15.826327 174.337423,14.5508846 172.472068,14.5508846 C170.607523,14.5508846 169.125117,15.826327 169.125117,17.9528486 L169.125117,33.100491 Z" id="Fill-16"></path> <path d="M186.048047,23.9056971 L192.950374,23.9056971 L192.950374,18.1120827 C192.950374,15.6670928 191.398712,14.5508846 189.473547,14.5508846 C187.599708,14.5508846 186.048047,15.6670928 186.048047,18.1120827 L186.048047,23.9056971 Z M186.048047,26.4565817 L186.048047,32.9412568 C186.048047,35.173673 187.599708,36.4491154 189.473547,36.4491154 C191.398712,36.4491154 192.950374,35.173673 192.950374,32.9412568 L192.950374,30.3370326 L196,30.3370326 L196,32.9412568 C196,36.8209233 193.057766,39 189.473547,39 C185.888538,39 183,36.8209233 183,32.9412568 L183,18.1120827 C183,14.2324163 185.888538,12 189.473547,12 C193.057766,12 196,14.2324163 196,18.1120827 L196,26.4565817 L186.048047,26.4565817 Z" id="Fill-17"></path> </g> </g> </g> </svg> 