<svg xmlns="http://www.w3.org/2000/svg" viewBox="0 0 512.001 512.001" width="512" height="512"><path d="M303.881 128.507c-17.327 0-31.423 14.097-31.423 31.423s14.097 31.423 31.423 31.423 31.423-14.096 31.423-31.423-14.096-31.423-31.423-31.423zm0 42.846c-6.299 0-11.423-5.124-11.423-11.423s5.125-11.423 11.423-11.423 11.423 5.125 11.423 11.423-5.124 11.423-11.423 11.423z" fill="#FFF"/><path d="M419.58 283.826h-57.789c-4.966 0-9.075 3.623-9.855 8.368h-25.45l-10.974-25.239c15.545-6.543 29.828-16.101 42.113-28.386 21.401-21.402 34.541-48.855 37.839-78.495l.041-.369c.089-.821.171-1.643.245-2.466.021-.233.04-.467.06-.701.062-.739.121-1.478.171-2.219.023-.345.042-.689.063-1.034.039-.647.078-1.295.107-1.944.023-.493.037-.986.054-1.479.018-.52.04-1.039.052-1.559.02-.881.029-1.762.032-2.643 0-.144.005-.288.005-.432 0-26.734-7.859-52.202-22.76-74.089a135.921 135.921 0 0 0-3.918-5.491 130.375 130.375 0 0 0-6.655-8.095 132.258 132.258 0 0 0-5.419-5.688c-15.451-15.382-34.629-26.929-55.463-33.14a131.362 131.362 0 0 0-23.406-4.721 132.884 132.884 0 0 0-11.631-.728V10c0-5.523-4.477-10-10-10-48.747 0-89.89 18.482-118.979 53.45-28.147 33.834-43.868 81.861-45.463 138.89-.185 6.602-.813 13.457-1.869 20.375l-8.195 53.716a9.998 9.998 0 0 0 3.143 8.893c.936.854 19.222 17.406 46.444 32.192-19.007 12.128-31.649 33.388-31.649 57.559V502c0 5.523 4.477 10 10 10h300.882c5.523 0 10-4.477 10-10V387.678c4.674-.839 8.225-4.917 8.225-9.833v-84.02c-.001-5.522-4.478-9.999-10.001-9.999zm-316.435-19.875l7.356-48.218c1.179-7.729 1.882-15.411 2.09-22.833 2.866-102.463 54.064-167.636 134.45-172.594V138.06l-.486-.094a160.35 160.35 0 0 1-4.418-.921c-.096-.021-.192-.045-.288-.067a168.608 168.608 0 0 1-4.172-1.004c-.314-.08-.627-.158-.94-.239-1.441-.374-2.88-.766-4.313-1.18-.229-.066-.456-.136-.685-.203-1.295-.38-2.586-.776-3.874-1.188-.268-.085-.536-.168-.803-.255-1.42-.462-2.835-.943-4.245-1.444-.291-.103-.582-.21-.873-.315a169.97 169.97 0 0 1-3.883-1.453c-.176-.068-.353-.134-.529-.203a170.997 170.997 0 0 1-5.143-2.12 172.52 172.52 0 0 1-4.232-1.879c-10.225-4.723-21.989-3.921-31.469 2.143-9.47 6.057-15.123 16.387-15.123 27.633v36.303c0 1.223.023 2.443.069 3.659.687 18.246 6.508 35.714 16.94 50.727 8.936 12.862 20.728 23.216 34.466 30.345l-8.107 20.522h-36.21c-1.05 0-2.101.031-3.152.08-.42.019-.837.051-1.255.078a65.307 65.307 0 0 0-3.379.3c-.481.055-.962.118-1.442.184-.575.078-1.149.156-1.718.248-.076.013-.147.02-.218.032-25.649-11.265-46.125-26.968-54.414-33.798zM247.041 492H120.474V365.075c0-21.589 14.254-39.909 33.845-46.049v106.687c0 5.523 4.477 10 10 10s10-4.477 10-10V316.83h32.108l40.614 61.11V492zm.003-150.196l-24.068-36.215 12.156-30.769a10.002 10.002 0 0 0-5.646-12.983 76.026 76.026 0 0 1-22.581-13.784 75.06 75.06 0 0 1-3.295-3.08c-.048-.047-.098-.093-.146-.141a74.695 74.695 0 0 1-15.575-22.837 75.027 75.027 0 0 1-3.711-10.569 75.671 75.671 0 0 1-2.122-11.17 76.992 76.992 0 0 1-.489-8.683V155.27c0-4.456 2.15-8.387 5.9-10.785.47-.301.951-.568 1.442-.803a12.516 12.516 0 0 1 7.754-1.027c1.05.198 2.092.53 3.107.999 1.716.792 3.442 1.55 5.174 2.289.31.132.618.267.929.397a192.52 192.52 0 0 0 6.014 2.409c1.713.654 3.431 1.289 5.157 1.891.149.052.299.101.449.152 1.662.575 3.329 1.123 5.002 1.65.282.089.563.181.845.268a183.997 183.997 0 0 0 6.209 1.804c1.734.473 3.471.925 5.215 1.346.235.057.471.109.707.165 1.679.399 3.362.774 5.049 1.125.223.046.444.096.667.142 1.757.359 3.518.686 5.283.993.192.033.382.075.574.108v183.411zm62.175-299.193c1.229.54 2.441 1.11 3.645 1.693a111.244 111.244 0 0 1 4.419 2.254l.152.085a112.42 112.42 0 0 1 4.145 2.373c1.138.683 2.267 1.38 3.377 2.102l.259.173c1.041.681 2.068 1.382 3.084 2.096.239.168.478.335.716.505 1.078.77 2.144 1.554 3.191 2.36.109.084.216.171.325.256a111.85 111.85 0 0 1 2.845 2.284c.212.176.426.351.637.529 1.011.85 2.009 1.715 2.989 2.6.126.114.249.231.374.345.884.805 1.753 1.625 2.61 2.457.187.182.376.362.561.545.94.925 1.865 1.865 2.772 2.822.134.141.264.286.398.428.81.864 1.605 1.74 2.387 2.628.161.183.325.365.485.549.864.994 1.711 2.001 2.539 3.024.139.171.274.346.412.518.732.915 1.45 1.841 2.154 2.778.139.186.281.369.419.556a114.127 114.127 0 0 1 2.288 3.201c.14.203.276.409.415.613.654.963 1.294 1.935 1.919 2.918.117.184.237.366.353.551.695 1.107 1.37 2.228 2.027 3.359.136.234.268.47.402.705a112.901 112.901 0 0 1 1.682 3.051c.096.181.196.361.291.543.605 1.154 1.187 2.32 1.752 3.495.127.264.251.531.376.796a114.09 114.09 0 0 1 1.444 3.186c.075.172.153.342.227.515a112.326 112.326 0 0 1 1.804 4.497 111.24 111.24 0 0 1 1.204 3.335c.052.152.108.302.159.454l.043.136a132.798 132.798 0 0 0-7.909-9.708c-14.619-16.309-32.95-28.673-53.372-36.061V42.611zm-2.946 41.855c34.711 14.102 60.748 45.375 67.938 82.412-4.222 21.665-14.769 41.589-30.728 57.548-12.606 12.607-27.692 21.831-44.155 27.232-.1.029-.2.05-.299.082a111.088 111.088 0 0 1-17.045 4.098l-.129.02c-2.775.437-5.571.765-8.383.992-.165.013-.329.029-.494.041a111.992 111.992 0 0 1-4.663.256c-.423.015-.848.014-1.272.025v-138.76c18.276-3.563 33.164-16.691 39.23-33.946zm-1.596 207.728h-37.635v-14.995l.232-.008a134.5 134.5 0 0 0 7.178-.35l.249-.021c1.129-.088 2.255-.19 3.378-.306l.406-.045c1.103-.117 2.203-.248 3.3-.393l.248-.033a131.718 131.718 0 0 0 14.43-2.742l8.214 18.893zM267.04 33.256a110.5 110.5 0 0 1 3.363.137c.332.018.663.04.995.061.828.052 1.654.113 2.479.183.331.028.662.055.992.086 1.094.103 2.186.217 3.274.351l.061.007c1.108.138 2.213.297 3.316.467.325.05.648.105.973.158.815.133 1.628.276 2.439.427.328.061.657.121.984.185 1.048.205 2.094.422 3.135.657l.142.031.023.006v31.196c0 .773-.04 1.536-.093 2.295-.014.195-.026.389-.043.585-1.158 12.986-10.055 23.778-22.04 27.707V33.256zM360.015 492h-28.348V380.02c0-5.523-4.477-10-10-10s-10 4.477-10 10V492H267.04V312.194h84.75v65.651c0 .328.018.651.049.971.01.106.029.209.043.313.027.212.056.424.096.632.023.121.054.239.082.358.044.188.089.375.144.558.036.123.077.243.118.364a9.46 9.46 0 0 0 .578 1.366c.058.112.115.223.176.333.092.164.191.323.292.481.064.099.125.2.192.297.116.169.241.33.367.491.062.078.119.16.183.236.181.218.372.427.571.628.014.015.027.031.042.045.216.215.442.419.676.615.07.058.145.111.216.167.167.132.336.261.512.382.095.065.193.125.291.187.16.102.321.203.487.296.108.061.219.117.33.174.163.083.327.164.495.239a9.934 9.934 0 0 0 .871.338c.122.041.244.081.368.118.181.053.364.098.549.141.123.028.244.059.368.083.043.008.085.021.128.029V492zm41.341 0h-21.34V387.845h21.34V492zm8.224-124.155h-37.789v-64.019h37.789v64.019z" fill="#FFF"/><path d="M331.471 340.91a10.098 10.098 0 0 0-1.49-3.6c-.36-.54-.78-1.06-1.24-1.52a9.57 9.57 0 0 0-1.52-1.24 10.098 10.098 0 0 0-3.6-1.49 9.898 9.898 0 0 0-3.91 0c-.63.13-1.26.32-1.87.57-.6.25-1.18.56-1.72.92-.55.36-1.06.78-1.52 1.24-.47.46-.88.98-1.25 1.52a10.098 10.098 0 0 0-1.49 3.6c-.13.65-.19 1.3-.19 1.95 0 .66.06 1.31.19 1.96.13.64.32 1.261.57 1.87.25.6.56 1.18.92 1.73.37.54.78 1.05 1.25 1.52a10.153 10.153 0 0 0 3.24 2.16c.61.25 1.24.44 1.87.57.65.13 1.31.19 1.96.19a9.84 9.84 0 0 0 3.82-.76c.6-.25 1.19-.56 1.73-.92.55-.37 1.06-.78 1.52-1.24.46-.47.88-.98 1.24-1.52.36-.55.67-1.13.92-1.73.25-.61.44-1.23.57-1.87.13-.65.2-1.3.2-1.96 0-.65-.07-1.3-.2-1.95zM174.12 460.912c-.13-.631-.32-1.261-.57-1.87-.25-.6-.56-1.18-.92-1.72a9.57 9.57 0 0 0-1.24-1.52 9.87 9.87 0 0 0-3.25-2.17c-.6-.25-1.23-.44-1.87-.57a9.898 9.898 0 0 0-3.91 0c-.63.13-1.26.32-1.87.57-.6.25-1.18.56-1.72.92-.55.37-1.06.79-1.52 1.25-.46.46-.88.97-1.25 1.52-.36.54-.67 1.12-.92 1.72-.25.61-.44 1.24-.57 1.87-.13.65-.19 1.31-.19 1.96a9.84 9.84 0 0 0 .76 3.82 9.87 9.87 0 0 0 2.17 3.25c.46.46.97.88 1.52 1.24.54.36 1.12.67 1.72.92.61.25 1.24.44 1.87.57.65.13 1.31.2 1.96.2s1.31-.07 1.95-.2 1.27-.32 1.87-.57a9.87 9.87 0 0 0 1.73-.92 9.57 9.57 0 0 0 1.52-1.24c.46-.46.88-.97 1.24-1.52.36-.54.67-1.12.92-1.73a10.098 10.098 0 0 0 .77-3.82c0-.65-.07-1.31-.2-1.96z" fill="#FFF"/></svg>