<svg xmlns="http://www.w3.org/2000/svg" viewBox="0 0 423.253 423.253" width="512" height="512"><path d="M34.133 167.253H6.827A6.823 6.823 0 0 0 0 174.08V256a6.823 6.823 0 0 0 6.827 6.827h27.307A6.823 6.823 0 0 0 40.961 256v-81.92a6.825 6.825 0 0 0-6.828-6.827zm-6.826 81.92H13.653v-68.267h13.653v68.267zm218.453 75.094h-68.267a6.823 6.823 0 0 0-6.827 6.827v61.44a6.823 6.823 0 0 0 6.827 6.827h68.267a6.823 6.823 0 0 0 6.827-6.827v-61.44a6.823 6.823 0 0 0-6.827-6.827zm-6.827 61.44H184.32V337.92h54.613v47.787zm177.494-218.454H389.12a6.823 6.823 0 0 0-6.827 6.827V256a6.823 6.823 0 0 0 6.827 6.827h27.307a6.823 6.823 0 0 0 6.827-6.827v-81.92a6.824 6.824 0 0 0-6.827-6.827zm-6.827 81.92h-13.653v-68.267H409.6v68.267zM109.227 51.2a6.823 6.823 0 0 0-6.827 6.827v68.267c0 3.773 3.053 6.827 6.827 6.827s6.827-3.053 6.827-6.827V58.027a6.824 6.824 0 0 0-6.827-6.827z" fill="#FFF"/><path d="M361.854 119.467H61.401c-18.801 0-34.094 15.307-34.094 34.126v150.2c0 18.819 15.293 34.127 34.094 34.127h300.452c18.801 0 34.094-15.307 34.094-34.127v-150.2c0-18.819-15.294-34.126-34.093-34.126zm20.441 184.326c0 11.286-9.168 20.473-20.441 20.473H61.401c-11.274 0-20.441-9.187-20.441-20.473v-150.2c0-11.286 9.167-20.473 20.441-20.473h300.454c11.274 0 20.441 9.187 20.441 20.473v150.2z" fill="#FFF"/><path d="M252.587 242.347h-81.92a6.823 6.823 0 0 0-6.827 6.827c0 26.348 21.439 47.787 47.787 47.787s47.787-21.439 47.787-47.787a6.824 6.824 0 0 0-6.827-6.827zm-40.96 40.96c-16.486 0-30.275-11.747-33.447-27.307h66.895c-3.175 15.56-16.962 27.307-33.448 27.307zm-102.4-259.414c-11.293 0-20.48 9.187-20.48 20.48 0 11.293 9.187 20.48 20.48 20.48 11.293 0 20.48-9.187 20.48-20.48 0-11.293-9.187-20.48-20.48-20.48zm0 27.307a6.831 6.831 0 0 1-6.827-6.827 6.831 6.831 0 0 1 6.827-6.827 6.831 6.831 0 0 1 6.827 6.827 6.833 6.833 0 0 1-6.827 6.827zm204.8 0a6.823 6.823 0 0 0-6.827 6.827v68.267c0 3.773 3.053 6.827 6.827 6.827s6.827-3.053 6.827-6.827V58.027a6.824 6.824 0 0 0-6.827-6.827z" fill="#FFF"/><path d="M314.027 23.893c-11.293 0-20.48 9.187-20.48 20.48 0 11.293 9.187 20.48 20.48 20.48s20.48-9.187 20.48-20.48c0-11.293-9.187-20.48-20.48-20.48zm0 27.307a6.831 6.831 0 0 1-6.827-6.827c0-3.767 3.06-6.827 6.827-6.827s6.827 3.06 6.827 6.827a6.833 6.833 0 0 1-6.827 6.827zM116.053 174.08c-18.819 0-34.133 15.314-34.133 34.133 0 18.819 15.314 34.133 34.133 34.133 18.819 0 34.133-15.314 34.133-34.133.001-18.819-15.313-34.133-34.133-34.133zm0 54.613c-11.293 0-20.48-9.187-20.48-20.48s9.187-20.48 20.48-20.48c11.293 0 20.48 9.187 20.48 20.48s-9.187 20.48-20.48 20.48zM307.2 174.08c-18.819 0-34.133 15.314-34.133 34.133 0 18.819 15.314 34.133 34.133 34.133 18.819 0 34.133-15.314 34.133-34.133 0-18.819-15.314-34.133-34.133-34.133zm0 54.613c-11.293 0-20.48-9.187-20.48-20.48s9.187-20.48 20.48-20.48c11.293 0 20.48 9.187 20.48 20.48s-9.187 20.48-20.48 20.48z" fill="#FFF"/></svg>