<?xml version="1.0" encoding="utf-8"?>
<!-- Generator: Adobe Illustrator 19.2.1, SVG Export Plug-In . SVG Version: 6.00 Build 0)  -->
<svg version="1.1" id="Layer_1" xmlns="http://www.w3.org/2000/svg" xmlns:xlink="http://www.w3.org/1999/xlink" x="0px" y="0px"
	 viewBox="0 0 108.7 93.1" style="enable-background:new 0 0 108.7 93.1;" xml:space="preserve">
<style type="text/css">
	.st0{fill:#231F20;}
</style>
<g>
	<polygon class="st0" points="25.1,30.9 43.9,56 62.7,30.9 62.7,77.2 72,77.2 72,15.8 62.7,15.8 43.9,40.8 25.1,15.8 15.7,15.8 
		15.7,77.2 25.1,77.2 	"/>
	<polygon class="st0" points="93,77.3 93,42.5 75.2,42.5 75.2,51.8 83.6,51.8 83.6,77.3 	"/>
	<polygon class="st0" points="93,0 93,6.3 102.4,6.3 102.4,86.8 25.1,86.8 25.1,93.1 108.7,93.1 108.7,0 	"/>
	<polygon class="st0" points="6.4,6.3 83.6,6.3 83.6,0 0,0 0,93.1 15.7,93.1 15.7,86.8 6.4,86.8 	"/>
</g>
</svg>
