<svg xmlns="http://www.w3.org/2000/svg" width="512" height="512"><g fill="#FFF"><path d="M186.999 366.933a8.522 8.522 0 0 0 4.317-1.175 87.413 87.413 0 0 0 31.225-27.883c9.067-15.942 8.35-32.642-1.783-41.554a26.202 26.202 0 0 0-21.492-5.813 26.837 26.837 0 0 0-12.267 5.442 26.843 26.843 0 0 0-12.267-5.442 26.206 26.206 0 0 0-21.492 5.813c-10.133 8.912-10.85 25.612-1.908 41.333a87.258 87.258 0 0 0 31.35 28.108 8.541 8.541 0 0 0 4.317 1.171zm-20.709-37.491c-5.442-9.571-5.017-17.463-1.783-20.304a8.821 8.821 0 0 1 5.725-1.933 9.708 9.708 0 0 1 1.667.138 10.808 10.808 0 0 1 7.683 5.792 8.875 8.875 0 0 0 14.834 0 10.81 10.81 0 0 1 7.683-5.792c2.607-.49 5.3.164 7.392 1.796 3.233 2.842 3.658 10.733-1.9 20.521a62.01 62.01 0 0 1-20.592 18.737 61.757 61.757 0 0 1-20.709-18.955zm175.4-33.121a26.217 26.217 0 0 0-21.492-5.812 26.837 26.837 0 0 0-12.267 5.442 26.843 26.843 0 0 0-12.267-5.442 26.2 26.2 0 0 0-21.492 5.813c-10.133 8.912-10.85 25.612-1.9 41.338a87.343 87.343 0 0 0 31.342 28.1 8.529 8.529 0 0 0 8.633.004 87.25 87.25 0 0 0 31.225-27.888c9.069-15.943 8.352-32.643-1.782-41.555zm-13.174 33.341a61.8 61.8 0 0 1-20.583 18.734 61.88 61.88 0 0 1-20.708-18.954c-5.442-9.571-5.017-17.463-1.783-20.304a8.821 8.821 0 0 1 5.725-1.933 9.808 9.808 0 0 1 1.667.137 10.808 10.808 0 0 1 7.683 5.792 8.875 8.875 0 0 0 14.834 0 10.81 10.81 0 0 1 7.683-5.792c2.607-.49 5.3.164 7.392 1.796 3.231 2.841 3.656 10.733-1.91 20.524z"/><path d="M422.749 71.659c-.072-.064-.1-.155-.174-.217l-.067-.036a231.225 231.225 0 0 0-78.399-53.858l-.076-.043-.049-.006a229.949 229.949 0 0 0-175.972 0l-.037.005-.057.033a231.222 231.222 0 0 0-78.426 53.868l-.067.036c-.074.062-.102.153-.174.217A229.52 229.52 0 0 0 25.599 230.4c0 7.083.292 13.621.85 19.283 0 .063.034.114.035.176a130.595 130.595 0 0 0-.885 14.336v113.296c-.257 25.095 18.589 46.281 43.544 48.95 2.78 17.225 15.008 55.604 67.39 59.474v17.551a8.53 8.53 0 0 0 8.534 8.534h204.8a8.53 8.53 0 0 0 8.534-8.534v-17.551c52.326-3.866 64.583-42.165 67.38-59.418a31.968 31.968 0 0 0 24.186-12.728 137.817 137.817 0 0 0 27.9-80.97c0-11.192-.023-23.836-.958-36.951 23.439-79.035 2.776-164.571-54.16-224.189zM346.451 37.25a214.238 214.238 0 0 1 59.138 41.237l-38.341 46.008a141.484 141.484 0 0 0-21.415-14.474 181.504 181.504 0 0 0-20.424-9.577l21.042-63.194zm-81.919-19.967a212.008 212.008 0 0 1 66.142 13.302l-21.4 64.268c-2.516-.772-5.007-1.57-7.592-2.266a211.288 211.288 0 0 0-37.15-6.423V17.283zm-17.067 0v68.109a221.758 221.758 0 0 0-46.347 4.645l-19.795-59.452a212.008 212.008 0 0 1 66.142-13.302zM165.547 37.25l18.945 56.9a242.116 242.116 0 0 0-48.478 19.866l-29.605-35.529a214.223 214.223 0 0 1 59.138-41.237zM94.664 91.058l26.433 31.723a269.953 269.953 0 0 0-69.823 64.161 119.337 119.337 0 0 0-5.609 8.018A212.595 212.595 0 0 1 94.664 91.058zM42.665 377.492V264.196a110.389 110.389 0 0 1 22.158-66.879 251.827 251.827 0 0 1 71.827-64.115 8.456 8.456 0 0 0 2.956-1.548c.058-.048.08-.12.137-.171a224.567 224.567 0 0 1 56.704-22.919 8.165 8.165 0 0 0 1.743-.286c.105-.035.173-.12.276-.158a205.934 205.934 0 0 1 47.858-5.763 195.345 195.345 0 0 1 50.925 6.708 181.418 181.418 0 0 1 40.35 15.904 120.911 120.911 0 0 1 24.149 17.43c.247.365.523.708.826 1.028.182.151.402.204.592.337a71.176 71.176 0 0 1 19.458 31.254 44.446 44.446 0 0 1-2.378 30.71 8.424 8.424 0 0 0-2.914 2.273 8.295 8.295 0 0 0-1.666 4.442l-.009.012a29.556 29.556 0 0 1-19.025 8.321c-6.747.601-13.529.705-20.292.312-4.225-.137-8.342-.279-12.233-.192-15.225.321-30.566 1.9-45.408 3.421l-1.75.183a466 466 0 0 0-107.966 21.529c-16.009 5.667-64.708 22.921-64.708 63.721v67.738c.333 17.364-13.446 31.724-30.808 32.108-17.361-.384-31.135-14.743-30.802-32.104zM380.199 300.1c-15.601-10.402-15.522-46.633-13.881-63.82a43.768 43.768 0 0 0 19.235-9.912c33.056 32.225 42.639 81.582 24.045 123.836v-.337c.001-9.025.001-30.167-29.399-49.767zm-38.867 194.833H153.599V486.4h187.733v8.533zm8.533-25.6h-204.8c-46.717 0-56.912-30.192-59.123-44.419 21.087-6.098 35.549-25.472 35.398-47.422v-67.738c0-19.338 17.45-34.921 53.342-47.638a450.87 450.87 0 0 1 104.008-20.637l1.75-.179c14.5-1.487 29.5-3.029 44.025-3.333 3.642-.071 7.417.054 11.317.179 4.318.145 8.743.208 13.197.125-1.505 18.911-1.836 60.305 21.753 76.03 21.8 14.533 21.8 27.7 21.8 35.567v44.971c0 1.35.092 2.6.25 4.367a32.047 32.047 0 0 0 16.471 23.496c-1.51 12.546-10.125 46.631-59.388 46.631zm86.418-65.757a14.828 14.828 0 0 1-26.541-6.27c-.067-.8-.142-1.6-.142-2.467v-8.391c57.599-88.85 5.556-154.13-13.746-173.681a58.255 58.255 0 0 0 5.442-28.341 145.98 145.98 0 0 1 58.505 111.317c1 12.896 1 25.179 1 37.058a120.705 120.705 0 0 1-24.518 70.775zm32.076-153.722a167.451 167.451 0 0 0-73.517-90.881 89.648 89.648 0 0 0-15.278-22.592l37.769-45.323A212.362 212.362 0 0 1 469.332 230.4c0 6.531-.393 13.009-.973 19.454z"/><path d="M197.407 170.592a8.534 8.534 0 0 0-2.266-16.917c-1.358.179-135.408 20.188-135.408 204.725 0 4.713 3.82 8.533 8.533 8.533s8.533-3.82 8.533-8.533c0-168.992 115.508-187.1 120.608-187.808zm157.75 222.621a8.783 8.783 0 0 0-2.817 1.796 8.534 8.534 0 1 0 12.117 0 8.678 8.678 0 0 0-9.3-1.796zm-47.958-.68H187.732c-9.421.011-17.056 7.646-17.067 17.067v17.067c.011 9.421 7.645 17.056 17.067 17.067h119.467c9.421-.011 17.056-7.645 17.067-17.067V409.6c-.011-9.421-7.646-17.056-17.067-17.067zm-102.4 34.134h-17.067V409.6h17.067v17.067zm34.133 0h-17.067V409.6h17.067v17.067zm34.133 0h-17.067V409.6h17.067v17.067zm17.067 0V409.6h17.067l.009 17.067h-17.076z"/></g></svg>