<svg xmlns="http://www.w3.org/2000/svg" width="51" height="201" viewBox="0 0 51 200.787" shape-rendering="geometricPrecision" text-rendering="geometricPrecision" image-rendering="optimizeQuality" fill-rule="evenodd" clip-rule="evenodd"><path d="M51.2 91.818v17.043c-4.527.108-8.238 1.57-11.1 4.383-2.838 2.785-4.741 6.562-5.707 11.304-.934 4.78-1.448 12.98-1.478 24.605-.062 11.662-.24 19.292-.544 23.004-.538 5.92-1.508 10.624-2.956 14.154-1.447 3.53-3.228 6.344-5.343 8.449-2.14 2.14-4.855 3.746-8.143 4.85-2.233.784-5.888 1.177-10.951 1.177H.024v-16.404h2.747c6.126 0 10.17-1.317 12.192-3.917 1.992-2.609 2.987-8.492 2.987-17.62 0-17.398.272-28.455.816-33.123.935-7.703 2.833-13.907 5.64-18.547 2.839-4.596 6.85-8.198 12.039-10.8-6.789-3.815-11.555-8.88-14.332-15.192-2.777-6.313-4.163-16.938-4.163-31.913 0-13.583-.122-21.681-.421-24.356-.426-4.668-1.57-7.913-3.5-9.77-1.903-1.819-5.676-2.747-11.258-2.747H.024V0h4.954c5.762 0 9.955.534 12.55 1.675 3.774 1.534 6.878 4.098 9.352 7.702 2.473 3.638 4.106 8.198 4.828 13.693.725 5.524 1.145 14.55 1.207 27.06.03 12.554.544 21.184 1.478 25.962.966 4.78 2.87 8.558 5.706 11.34 2.864 2.78 6.574 4.242 11.102 4.386z" fill="#fff" fill-rule="nonzero"/></svg>