<?xml version="1.0" encoding="utf-8"?>
<!-- Generator: Adobe Illustrator 23.0.2, SVG Export Plug-In . SVG Version: 6.00 Build 0)  -->
<svg version="1.1" id="Layer_1" xmlns="http://www.w3.org/2000/svg" xmlns:xlink="http://www.w3.org/1999/xlink" x="0px" y="0px"
	 viewBox="0 0 240 60" style="enable-background:new 0 0 240 60;" xml:space="preserve">
<style type="text/css">
	.st0{fill-rule:evenodd;clip-rule:evenodd;fill:#3A424D;}
	.st1{fill-rule:evenodd;clip-rule:evenodd;fill:#268BFF;}
	.st2{fill-rule:evenodd;clip-rule:evenodd;fill:#1072E1;}
</style>
<g id="logo">
	<path id="Combined-Shape" class="st0" d="M0,37.7c0-7.7,7.1-11,21.8-11.2h0.9v-0.7c0-5-2.8-7.8-8-7.8c-4.9,0-7.8,2.6-9.3,5.7
		c0,0.1-4.1,0-4.1-3.3c0-3.2,4.7-7.9,13.9-7.9s14.2,4.8,14.2,13.2V46c0,0.3-1.2,0.8-2.4,0.8c-2.3,0-4-1.3-4.1-5.3
		c-2.5,3.6-6.8,5.7-11.7,5.7C4.1,47.2,0,43.4,0,37.7L0,37.7z M22.6,33.4c0,5.2-4.2,9-10,9c-3.9,0-6.1-1.9-6.1-4.8
		c0-4.5,4.8-6.3,14.3-6.6l1.8-0.1V33.4z M70.7,30.1c0-10.1,7-17.5,16.6-17.5c9.4,0,15.6,6.8,15.6,16.6v0.6c0,1.4-0.4,2-2,2H77
		C77.4,37.9,81.9,42,88,42c5.7,0,8.5-2.6,10.2-5.5c0.1-0.1,3.5,0.5,3.5,3.4s-5,7.5-13.9,7.5C77.6,47.4,70.7,40.4,70.7,30.1z
		 M77,27.1h19.5c-0.3-5.7-3.8-9.4-9.2-9.4C81.9,17.6,77.8,21.5,77,27.1z M112.6,18.3c2.2-3.4,5.8-5.9,10.8-5.9
		c8.6,0,12.6,6,12.6,14.2v16.8c0,2.5-1.3,3.2-3,3.2h-0.8c-1.8,0-3-0.8-3-3.2v-16c0-5.6-2.8-9-7.5-9c-4.2,0-7.5,2.3-9.1,5.8v19.2
		c0,2.5-1.3,3.2-3,3.2h-0.8c-1.8,0-3-0.8-3-3.2V13.7c0-0.2,1.1-0.8,2.4-0.8C110.3,13,112.3,14,112.6,18.3z M138.7,29.9
		c0-10.5,6.4-17.4,15.4-17.4c5.2,0,9.2,2.5,11.1,5.4V0.8c0-0.2,1.1-0.8,2.4-0.8c2.1,0,4.2,1.1,4.2,5.9v37.5c0,2.5-1.2,3.2-3,3.2
		h-0.7c-1.8,0-3-0.8-3-3.2v-2.6c-2.6,4-6.3,6.4-11.4,6.4C145.1,47.4,138.7,40.4,138.7,29.9z M165.3,32v-7c-1.7-4.2-5-6.8-10-6.8
		c-6.1,0-10.1,4.7-10.1,11.8c0,6.9,4.2,11.8,10,11.8C160.6,41.7,165.3,37.6,165.3,32z M174.6,4.7c0-3,1.8-4.7,4.9-4.7
		c3,0,4.7,1.7,4.7,4.7s-1.7,4.6-4.8,4.6C176.4,9.3,174.6,7.7,174.6,4.7z M176.1,43.5V16.3c0-2.5,1.3-3.3,3-3.3h0.7
		c1.8,0,3,0.8,3,3.3v27.2c0,2.5-1.2,3.2-3,3.2h-0.7C177.3,46.7,176.1,45.9,176.1,43.5z M185.5,17.8v-0.5c0-1.7,0.8-2.5,3-2.5h3.8
		v-2.5c0-8.3,3.9-12.2,10.3-12.2c5,0,7.3,2.1,7.3,4.5c0,1.9-1.5,3.1-1.6,3c-0.9-1-2.8-1.9-4.9-1.9c-3.2,0-4.7,2.1-4.7,6.8v2.4h5.5
		c2.2,0,3,0.9,3,2.6V18c0,1.7-0.8,2.6-3,2.6h-5.3v23c0,2.5-1.1,3.2-2.9,3.2h-0.7c-1.8,0-3-0.8-3-3.2v-23h-3.8
		C186.3,20.4,185.5,19.5,185.5,17.8z M217,58l5.4-13.4c-1.5-0.1-2.3-0.6-2.8-1.9L207.9,15c-0.1-0.4,1.3-2,3.5-2
		c1.9,0,3.2,0.9,4.2,3.9l8.8,22.9l7.8-22.7c0.9-3,2.4-4,4.2-4s3.7,1.5,3.5,1.9l-15.3,41.3c-1.1,3-2.6,3.8-4.1,3.8
		C218.7,59.9,216.9,58.4,217,58z"/>
	<path class="st1" d="M50.3,14.7c-0.1,0-0.2-0.1-0.3-0.1c0.2,0,0.4,0,0.6,0.1C50.5,14.7,50.4,14.7,50.3,14.7z M47.3,14.6
		c-1.1,0.4-1.7,1.4-1.7,2.7s0.5,2.2,1.5,2.6h-4.8v16.2c0,4,1.1,5.9,4.3,5.9c2.1,0,3.6-0.9,4.6-2.2c0.2-0.2,1.9,0.7,1.9,2.8
		c0,2.5-2.8,4.9-7.6,4.9c-6.7,0-9.8-3.7-9.8-10.6V20h-2.3c-2.1,0-2.9-0.9-2.9-2.5v-0.4c0-1.6,0.8-2.5,2.9-2.5H47.3z M50.3,19.9
		c0.1,0,0.1-0.1,0.2-0.1c0,0,0.1,0,0.2,0C50.5,19.8,50.4,19.9,50.3,19.9z M50.2,19.9c1-0.4,1.5-1.3,1.5-2.6c0-1.4-0.7-2.4-1.8-2.8
		H68c2.1,0,2.8,0.7,2.8,2.4v0.4c0,1.7-0.8,2.6-2.9,2.6h-7.3v16.2c0,4,1.1,5.9,4.3,5.9c2.1,0,3.6-0.9,4.6-2.2
		c0.2-0.2,1.9,0.7,1.9,2.8c0,2.5-2.8,4.9-7.6,4.9c-6.7,0-9.8-3.7-9.8-10.6v-17H50.2z M53,8.9c0-2.9,1.9-4.5,5-4.5
		c3,0,4.7,1.6,4.7,4.5s-1.7,4.4-4.8,4.4C54.8,13.3,53,11.7,53,8.9z M33.8,8.9c0-2.9,1.8-4.5,4.9-4.5c3,0,4.7,1.6,4.7,4.5
		s-1.7,4.4-4.8,4.4C35.6,13.3,33.8,11.7,33.8,8.9z"/>
	<path id="Shape" class="st2" d="M46.5,17.3c0-1.3,0.8-2,2.1-2s2.1,0.7,2.1,2s-0.8,2-2.1,2S46.5,18.6,46.5,17.3L46.5,17.3z"/>
</g>
</svg>
