<?xml version="1.0" encoding="utf-8"?>
<!-- Generator: Adobe Illustrator 21.0.0, SVG Export Plug-In . SVG Version: 6.00 Build 0)  -->
<svg version="1.1" id="Lager_1" xmlns="http://www.w3.org/2000/svg" xmlns:xlink="http://www.w3.org/1999/xlink" x="0px" y="0px"
	 viewBox="0 0 260.1 72" style="enable-background:new 0 0 260.1 72;" xml:space="preserve">
<style type="text/css">
	.st0{fill:#231F20;}
	.st1{fill:url(#SVGID_1_);}
	.st2{fill:url(#SVGID_2_);}
	.st3{fill:#690000;}
	.st4{fill:#A40D12;}
</style>
<g>
	<g>
		<g>
			<g>
				<path class="st0" d="M86.1,51h23c4.9,0,8.9-3.7,8.9-8.3V41c0-4.5-3.8-8.2-8.6-8.3l-0.2,0H93.8c-1.3,0-2.4-1-2.4-2.3v-1.5
					c0-1.3,1.1-2.3,2.4-2.3h22.5v-6H93.8c-4.9,0-8.9,3.7-8.9,8.3v1.5c0,4.6,4,8.3,8.9,8.3h15.4c1.3,0,2.4,1,2.4,2.3v1.6
					c0,1.3-1.1,2.3-2.4,2.3h-23V51z"/>
			</g>
			<g>
				<g>
					<path class="st0" d="M125.6,50.9h6.4V20.5h-6.4L125.6,50.9z"/>
				</g>
			</g>
			<g>
				<path class="st0" d="M215.7,50.9h6.4l0-22c0-4.6-4-8.3-8.9-8.3h-32.1v30.4h6.4V26.6h10.7l0,24.3h6.4V26.6h8.5
					c1.3,0,2.4,1,2.4,2.3L215.7,50.9z"/>
			</g>
			<g>
				<path class="st0" d="M260.1,28.9c0-4.6-4-8.3-8.9-8.3h-20.4v6.1h20.4c1.4,0,2.4,1,2.4,2.3l0,3.8h-16.2c-4.9,0-8.9,3.7-8.9,8.4
					v1.5c0,4.6,4,8.4,8.9,8.4h22.6L260.1,28.9z M253.6,44.9L253.6,44.9h-16.2c-1.3,0-2.4-1-2.4-2.3V41c0-1.3,1.1-2.3,2.4-2.3h16.2
					L253.6,44.9z"/>
			</g>
			<g>
				<path class="st0" d="M140.8,42.6c0,4.6,4,8.3,8.9,8.3h22.7V32.7h-16.9v6.1h10.5v6.1h-16.2c-1.3,0-2.4-1-2.4-2.3l0-13.7
					c0-1.3,1.1-2.3,2.4-2.3h22.6v-6.1h-22.6c-4.9,0-8.9,3.7-8.9,8.4L140.8,42.6z"/>
			</g>
		</g>
		<g>
			<linearGradient id="SVGID_1_" gradientUnits="userSpaceOnUse" x1="38.8214" y1="57.1796" x2="18.5219" y2="16.3734">
				<stop  offset="6.134970e-03" style="stop-color:#E01F27"/>
				<stop  offset="0.681" style="stop-color:#ED2924"/>
			</linearGradient>
			<path class="st1" d="M35.6,0c-5.1,0-9.3,10.4-10.8,24.8C10.4,26.2,0,30.5,0,35.6c0,5.1,10.4,9.3,24.8,10.8
				c1.5,14.4,5.7,24.8,10.8,24.8c6.3,0,11.3-15.9,11.3-35.6C46.9,15.9,41.8,0,35.6,0z"/>
			<linearGradient id="SVGID_2_" gradientUnits="userSpaceOnUse" x1="40.7928" y1="28.0161" x2="52.9313" y2="49.0405">
				<stop  offset="0" style="stop-color:#595959"/>
				<stop  offset="0.2081" style="stop-color:#424242"/>
				<stop  offset="0.5305" style="stop-color:#232323"/>
				<stop  offset="0.8059" style="stop-color:#111111"/>
				<stop  offset="1" style="stop-color:#0A0A0A"/>
			</linearGradient>
			<path class="st2" d="M46.4,24.8L24.8,46.4c3.4,0.3,7,0.5,10.8,0.5c19.7,0,35.6-5.1,35.6-11.3C71.2,30.5,60.8,26.2,46.4,24.8z"/>
			<path class="st3" d="M46.4,24.8L46.4,24.8L24.8,46.4c3.4,0.3,7,0.5,10.8,0.5c3.8,0,7.4-0.2,10.8-0.5c0.3-3.4,0.5-7,0.5-10.8
				C46.9,31.8,46.7,28.2,46.4,24.8z"/>
			<path class="st4" d="M24.8,46.4l21.6-21.6c-3.4-0.3-7-0.5-10.8-0.5c-3.8,0-7.4,0.2-10.8,0.5c-0.3,3.4-0.5,7-0.5,10.8
				C24.3,39.4,24.4,43,24.8,46.4C24.8,46.4,24.8,46.4,24.8,46.4z"/>
		</g>
	</g>
	<g>
		<path class="st0" d="M86.9,71.5v-1.2H87c0.6,0.2,2,0.5,2.8,0.5h0.5c1.4,0,2.4-0.5,2.4-2c0-1.2-0.6-1.6-1.7-1.9l-1.5-0.4
			c-1.1-0.3-2.5-1-2.5-3c0-1.8,1.4-3.1,3.7-3.1h0.3c0.8,0,2.1,0.2,2.6,0.5v1.2h-0.1c-0.5-0.2-1.7-0.4-2.5-0.4h-0.3
			c-1.4,0-2.3,0.5-2.3,1.8c0,1.2,0.8,1.5,1.7,1.8l1.5,0.4c1.2,0.3,2.5,0.9,2.5,3.1c0,2-1.4,3.2-3.8,3.2h-0.5
			C88.9,72,87.4,71.7,86.9,71.5z"/>
		<path class="st0" d="M96.2,67.6c0-2.5,1.2-4.1,3.6-4.1c2.5,0,3.6,1.7,3.6,4.1c0,2.7-1.2,4.4-3.6,4.4C97.3,72,96.2,70.3,96.2,67.6z
			 M102.2,67.6c0-1.8-0.5-3-2.3-3c-1.8,0-2.3,1.1-2.3,3c0,1.8,0.5,3.2,2.3,3.2C101.6,70.8,102.2,69.5,102.2,67.6z"/>
		<path class="st0" d="M106.5,64.8h-1.3v-1.2h1.3v-0.3c0-1.8,1.1-2.7,2.7-2.7h0.9v1.2h-0.9c-1.1,0-1.4,0.5-1.4,1.5v0.3h2.1v1.2h-2.1
			v7.1h-1.3V64.8z"/>
	</g>
	<g>
		<path class="st0" d="M115.4,71.9c-1.8,0-2.8-0.8-2.8-2.8v-4.3h-1.3v-1.2h1.3v-1.9h1.3v1.9h2.4v1.2h-2.4v4c0,1.5,0.5,1.9,1.8,1.9
			h0.8v1.2H115.4z"/>
		<path class="st0" d="M118.2,65.7v-2.1h1.3v2.1c0,2.4,0.8,4.3,1.5,5.2c0.7-0.9,1.5-2.8,1.5-5.2v-2.1h1.3v2.1c0,2.4,0.8,4.3,1.5,5.2
			c0.7-0.9,1.5-2.8,1.5-5.2v-2.1h1.3v2.1c0,2.8-1.2,5.3-2,6.1h-1.4c-0.4-0.5-1.3-2-1.5-2.8c-0.2,0.9-1.1,2.4-1.5,2.8h-1.4
			C119.4,71,118.2,68.6,118.2,65.7z"/>
		<path class="st0" d="M130.2,69.2v-1.3c0-2.6,2.1-4.3,4.4-4.3h2.2v8.3h-1.3v-1.5l-0.6,0.6c-0.6,0.6-1.3,1.1-2.4,1.1
			C131.3,72,130.2,71.2,130.2,69.2z M135.5,69v-4.3h-0.9c-1.8,0-3.1,1.2-3.1,3.1v1.3c0,1.3,0.6,1.7,1.3,1.7c0.8,0,1.8-0.8,2.3-1.3
			L135.5,69z"/>
		<path class="st0" d="M140.1,63.6h1.3v1.8l0.1-0.2c0.6-1,1.3-1.7,2.4-1.7h0.5V65h-0.6c-0.6,0-1.2,0.2-1.5,0.6l-0.9,0.9v5.3h-1.3
			V63.6z"/>
		<path class="st0" d="M146.1,68.7V67c0-2.3,1.5-3.6,3.5-3.6c1.7,0,2.8,0.7,2.8,2.4c0,1.5-0.9,2.4-2.6,2.4h-2.5v0.5
			c0,1.5,0.9,2.1,2.2,2.1c0.9,0,1.9-0.4,2.2-0.5h0.1v1.2c-0.3,0.2-1.4,0.5-2.4,0.5C147.6,72,146.1,71,146.1,68.7z M147.4,67.1h2.1
			c1.3,0,1.7-0.5,1.7-1.3c0-0.9-0.6-1.2-1.5-1.2c-1.4,0-2.2,0.7-2.2,2.4V67.1z"/>
	</g>
</g>
</svg>
