<svg width="70" height="15" viewBox="0 0 70 15" fill="none" xmlns="http://www.w3.org/2000/svg">
<path fill-rule="evenodd" clip-rule="evenodd" d="M36.3761 0L36.3792 4.56173H35.0516C34.17 4.56173 33.3687 4.59902 32.6292 4.73637C31.8897 4.87371 31.2492 5.12837 30.7076 5.50034C30.1661 5.87231 29.7236 6.57736 29.4267 7.20686C29.1297 7.83635 29.0161 8.6927 29.0394 9.63122C29.0394 10.3981 29.1209 11.0705 29.284 11.6485C29.447 12.2264 29.7119 12.9867 30.0788 13.3758C30.4456 13.765 30.9161 14.1584 31.5101 14.3529C32.104 14.5475 32.8359 14.5949 33.686 14.5949H38.9615C39.2992 14.5949 39.5932 14.4718 39.8436 14.2257C40.094 13.9797 40.2192 13.6907 40.2192 13.3588V0H36.3761ZM20.0557 14.2847C20.7428 14.5365 21.4648 14.6175 22.2217 14.5946C22.9671 14.6175 23.6862 14.5365 24.3791 14.2847C25.072 14.0329 25.6863 13.6781 26.222 13.2203C26.7577 12.7625 27.1828 12.216 27.4972 11.5808C27.8116 10.9456 27.9688 10.256 27.9688 9.51203C27.9688 8.7452 27.8116 8.18538 27.4972 7.55588C27.1828 6.92639 26.7606 6.38846 26.2307 5.94209C25.7009 5.49573 25.0895 5.14951 24.3966 4.90343C23.7036 4.65736 22.9787 4.56536 22.2217 4.56536C21.4648 4.56536 20.7398 4.65736 20.0469 4.90343C19.354 5.14951 18.7426 5.49573 18.2127 5.94209C17.6829 6.38846 17.2607 6.92639 16.9463 7.55588C16.6318 8.18538 16.4746 8.7452 16.4746 9.51203C16.4746 10.256 16.6318 10.9456 16.9463 11.5808C17.2607 12.216 17.6858 12.7625 18.2215 13.2203C18.7572 13.6781 19.3686 14.0329 20.0557 14.2847ZM15.4615 11.7772C15.4566 11.9041 15.4442 11.9985 15.4244 12.0605C15.4015 12.1321 15.3498 12.2379 15.2693 12.3781C14.722 13.1564 14.1077 13.72 13.4264 14.0691C12.7451 14.4182 11.9154 14.5928 10.9372 14.5928C10.1918 14.5928 9.46982 14.4697 8.77108 14.2236C8.07234 13.9776 7.45222 13.6314 6.91069 13.185C6.36917 12.7386 5.93246 12.2036 5.60056 11.5798C5.26866 10.956 5.10271 10.2664 5.10271 9.51104C5.10271 8.73276 5.25119 8.03746 5.54816 7.42514C5.84512 6.81281 6.2498 6.29205 6.76221 5.86285C7.27462 5.43365 7.87145 5.10746 8.55272 4.88428C9.23399 4.6611 9.9531 4.56661 10.7101 4.56661C11.1992 4.56661 11.6388 4.57812 12.0289 4.63534C12.4191 4.69257 12.783 4.78986 13.1207 4.9272C13.4584 5.06454 13.7816 5.25053 14.0902 5.48516C14.3988 5.71979 14.7103 6.00878 15.0248 6.35214C15.1762 6.5696 15.2518 6.79278 15.2518 7.02169C15.2518 7.34216 15.1267 7.61112 14.8763 7.82858C14.6259 8.04604 14.3377 8.15477 14.0116 8.15477C13.7088 8.15477 13.4002 8.02315 13.0858 7.75991C12.946 7.64546 12.8034 7.52528 12.6578 7.39938C12.5122 7.27349 12.3521 7.15617 12.1774 7.04744C12.0027 6.93871 11.8135 6.85001 11.6097 6.78134C11.4059 6.71267 11.1759 6.67833 10.9197 6.67833C10.5354 6.67833 10.2122 6.75845 9.95019 6.91868C9.68817 7.07892 9.47564 7.28779 9.3126 7.54531C9.14956 7.80283 9.0331 8.09755 8.96323 8.42946C8.89335 8.76138 8.85842 9.09901 8.85842 9.44237C8.85842 9.79718 8.89627 10.1463 8.97196 10.4896C9.04766 10.833 9.17285 11.1391 9.34753 11.4081C9.52222 11.6771 9.74639 11.8945 10.0201 12.0605C10.2937 12.2264 10.6227 12.3094 11.007 12.3094C11.3331 12.3094 11.5922 12.2922 11.7844 12.2579C11.9765 12.2236 12.1483 12.1606 12.2997 12.0691C12.4511 11.9775 12.5996 11.8545 12.7451 11.7C12.8907 11.5454 13.0799 11.3537 13.3129 11.1248C13.5807 10.8272 13.8893 10.6785 14.2387 10.6785C14.5764 10.6785 14.8646 10.7815 15.1034 10.9875C15.3421 11.1935 15.4615 11.4567 15.4615 11.7772ZM2.88228 5.61631C2.56785 5.28439 2.16608 5.11844 1.67697 5.11844C1.18785 5.11844 0.786079 5.28439 0.471647 5.61631C0.157214 5.94823 0 6.35453 0 6.83523C0 7.29305 0.163037 7.67074 0.489115 7.96832C0.815193 8.2659 1.21114 8.41468 1.67697 8.41468C1.89823 8.41468 2.11076 8.37463 2.31456 8.29451C2.51836 8.21439 2.69887 8.1028 2.85608 7.95973C3.0133 7.81667 3.13558 7.65071 3.22292 7.46186C3.31026 7.27302 3.35393 7.06414 3.35393 6.83523C3.35393 6.35453 3.19672 5.94823 2.88228 5.61631ZM2.88228 11.2189C2.56785 10.887 2.16608 10.7211 1.67697 10.7211C1.18785 10.7211 0.786079 10.887 0.471647 11.2189C0.157214 11.5508 0 11.9571 0 12.4378C0 12.8957 0.163037 13.2734 0.489115 13.5709C0.815193 13.8685 1.21114 14.0173 1.67697 14.0173C1.89823 14.0173 2.11076 13.9772 2.31456 13.8971C2.51836 13.817 2.69887 13.7054 2.85608 13.5624C3.0133 13.4193 3.13558 13.2533 3.22292 13.0645C3.31026 12.8756 3.35393 12.6668 3.35393 12.4378C3.35393 11.9571 3.19672 11.5508 2.88228 11.2189ZM22.1519 6.49196C21.5463 6.49196 21.0717 6.76379 20.7282 7.30744C20.3847 7.8511 20.2129 8.65512 20.2129 9.71954C20.2129 10.784 20.3847 11.588 20.7282 12.1316C21.0717 12.6753 21.5463 12.9471 22.1519 12.9471C22.7574 12.9471 23.232 12.6753 23.5755 12.1316C23.9191 11.588 24.0909 10.784 24.0909 9.71954C24.0909 9.05571 24.0326 8.51492 23.9162 8.09717C23.7997 7.67941 23.6512 7.35036 23.4707 7.11001C23.2902 6.86966 23.0835 6.70656 22.8506 6.62072C22.6177 6.53488 22.3848 6.49196 22.1519 6.49196ZM33.122 9.66555C33.122 10.06 33.1686 10.4181 33.2268 10.7901C33.2851 11.162 33.367 11.5294 33.5126 11.8156C33.5264 11.8426 33.5402 11.8702 33.5542 11.8982C33.688 12.1656 33.8394 12.4681 34.1594 12.7149C34.5128 12.9875 34.8165 13.0845 35.2706 13.0845H36.5109V6.45316H35.061C34.6185 6.45316 34.3714 6.51252 34.0442 6.76605C33.7171 7.01957 33.5574 7.36678 33.4293 7.6472C33.3012 7.92761 33.2268 8.26064 33.1919 8.60972L33.1836 8.69192C33.1517 9.00871 33.122 9.30227 33.122 9.66555ZM45.8215 14.5937V6.45664C45.8332 6.20484 45.7866 5.9645 45.6818 5.73559C45.577 5.50668 45.4314 5.30639 45.2451 5.13471C45.0587 4.96303 44.8491 4.82569 44.6162 4.72268C44.3833 4.61967 44.1446 4.56817 43.9 4.56817C43.6438 4.56817 43.3993 4.61967 43.1663 4.72268C42.9334 4.82569 42.7296 4.96303 42.5549 5.13471C42.3803 5.30639 42.2405 5.50668 42.1357 5.73559C42.0309 5.9645 41.9785 6.20484 41.9785 6.45664V14.5937H45.8215ZM45.4722 1.71679C45.4722 1.9457 45.4285 2.15458 45.3412 2.34342C45.2538 2.53227 45.1315 2.69823 44.9743 2.8413C44.8171 2.98436 44.6366 3.09595 44.4328 3.17607C44.229 3.25619 44.0165 3.29625 43.7952 3.29625C43.3294 3.29625 42.9334 3.14746 42.6074 2.84988C42.2813 2.5523 42.1182 2.17461 42.1182 1.71679C42.1182 1.23609 42.2755 0.829786 42.5899 0.49787C42.9043 0.165955 43.3061 0 43.7952 0C44.2843 0 44.6861 0.165955 45.0005 0.49787C45.315 0.829786 45.4722 1.23609 45.4722 1.71679ZM57.7607 12.0605C57.7805 11.9985 57.7929 11.9041 57.7978 11.7772C57.7978 11.4567 57.6784 11.1935 57.4397 10.9875C57.201 10.7815 56.9127 10.6785 56.575 10.6785C56.2256 10.6785 55.917 10.8272 55.6492 11.1248C55.4163 11.3537 55.227 11.5454 55.0815 11.7C54.9359 11.8545 54.7874 11.9775 54.636 12.0691C54.4846 12.1606 54.3128 12.2236 54.1207 12.2579C53.9285 12.2922 53.6694 12.3094 53.3433 12.3094C52.959 12.3094 52.6301 12.2264 52.3564 12.0605C52.0827 11.8945 51.8585 11.6771 51.6839 11.4081C51.5092 11.1391 51.384 10.833 51.3083 10.4896C51.2326 10.1463 51.1947 9.79718 51.1947 9.44237C51.1947 9.09901 51.2297 8.76138 51.2995 8.42946C51.3694 8.09755 51.4859 7.80283 51.6489 7.54531C51.812 7.28779 52.0245 7.07892 52.2865 6.91868C52.5485 6.75845 52.8717 6.67833 53.256 6.67833C53.5122 6.67833 53.7422 6.71267 53.946 6.78134C54.1498 6.85001 54.339 6.93871 54.5137 7.04744C54.6884 7.15617 54.8485 7.27349 54.9941 7.39938C55.1397 7.52528 55.2823 7.64546 55.4221 7.75991C55.7365 8.02315 56.0451 8.15477 56.3479 8.15477C56.674 8.15477 56.9622 8.04604 57.2126 7.82858C57.463 7.61112 57.5882 7.34216 57.5882 7.02169C57.5882 6.79278 57.5125 6.5696 57.3611 6.35214C57.0466 6.00878 56.7351 5.71979 56.4265 5.48516C56.1179 5.25053 55.7947 5.06454 55.457 4.9272C55.1193 4.78986 54.7554 4.69257 54.3652 4.63534C53.9751 4.57812 53.5355 4.55918 53.0464 4.55918C52.2894 4.55918 51.5703 4.6611 50.889 4.88428C50.2078 5.10746 49.6109 5.43365 49.0985 5.86285C48.5861 6.29205 48.1814 6.81281 47.8845 7.42514C47.5875 8.03746 47.439 8.73276 47.439 9.51104C47.439 10.2664 47.605 10.956 47.9369 11.5798C48.2688 12.2036 48.7055 12.7386 49.247 13.185C49.7885 13.6314 50.4087 13.9776 51.1074 14.2236C51.8061 14.4697 52.5282 14.5928 53.2735 14.5928C54.2517 14.5928 55.0815 14.4182 55.7627 14.0691C56.444 13.72 57.0583 13.1564 57.6056 12.3781C57.6861 12.2379 57.7378 12.1321 57.7607 12.0605ZM66.8158 4.56533C66.9136 4.56533 67.0144 4.56506 67.117 4.56478C67.9137 4.56263 68.8163 4.56019 69.238 4.68293C69.714 4.82146 69.8825 5.26269 69.9572 5.57555C70.0159 5.82179 70.0002 6.61028 69.9908 7.07948V7.07967C69.9883 7.20653 69.9862 7.31003 69.9862 7.37314V10.3761V13.0784V13.6451C69.9862 13.8382 69.9862 14.0994 69.7928 14.3036C69.5994 14.5077 69.4761 14.5945 68.7899 14.5945H67.5109C67.198 14.5777 67.1052 14.5278 67.0264 14.4853L67.0073 14.4751L67.0013 14.472C66.9111 14.4249 66.6554 14.2912 66.4946 13.7563C66.0166 14.4396 64.6759 14.5945 63.5585 14.5945C62.9802 14.5945 62.1654 14.5106 61.4929 14.3036C60.8205 14.0965 60.3731 13.8052 60.0398 13.504C59.3489 12.8796 58.7884 11.999 58.7884 9.71446C58.7884 7.42995 59.6745 6.33852 60.2595 5.74097C60.8445 5.14343 62.0803 4.68801 62.9879 4.62528C63.854 4.56541 64.2528 4.56533 66.8158 4.56533ZM62.7086 10.7901C62.6503 10.4181 62.5921 10.0204 62.6038 9.66555C62.6154 9.31075 62.6387 8.95881 62.6736 8.60972C62.7086 8.26064 62.7901 7.9459 62.9182 7.66549C63.0463 7.38508 63.2492 7.02985 63.5408 6.81086C63.8325 6.59188 64.1002 6.45316 64.5427 6.45316H66.4118V12.7386H64.7524C64.2982 12.7386 63.9314 12.6499 63.6519 12.4725C63.3724 12.2951 63.1598 12.0633 63.0143 11.7772C62.8687 11.4911 62.7668 11.162 62.7086 10.7901Z" fill="#ED3E44"/>
</svg>
