<?xml version="1.0" encoding="utf-8"?>
<!-- Generator: Adobe Illustrator 21.0.0, SVG Export Plug-In . SVG Version: 6.00 Build 0)  -->
<svg version="1.1" id="Слой_1" xmlns="http://www.w3.org/2000/svg" xmlns:xlink="http://www.w3.org/1999/xlink" x="0px" y="0px"
	 viewBox="0 0 151.5 70" style="enable-background:new 0 0 151.5 70;" xml:space="preserve">
<style type="text/css">
	.st0{fill:#343334;}
	.st1{fill:#4CAA50;}
	.st2{fill:#CA262E;}
	.st3{enable-background:new    ;}
	.st4{fill:#FFFFFF;}
	.st5{fill:#FFD45F;}
	.st6{fill:#020202;}
	.st7{display:none;fill:#FFD45F;}
	.st8{display:none;}
	.st9{display:inline;fill:#020202;}
	.st10{fill:#020200;}
	.st11{fill:#DCDEDE;}
	.st12{fill:#2196F3;}
	.st13{fill:#CED0D2;}
	.st14{fill:#ABADAF;}
	.st15{fill:#A0CEED;}
	.st16{fill:#B7B8BA;}
	.st17{fill:#919294;}
	.st18{fill:#EDECEA;}
	.st19{fill:#EB755F;}
	.st20{fill:#F9F9F8;}
	.st21{fill:#FFBA56;}
	.st22{fill:#231F20;}
	.st23{fill:#BBC6D7;}
	.st24{fill:#DEE1E2;}
	.st25{fill:#AEADAE;}
	.st26{fill:#151338;}
	.st27{fill:#F7B958;}
	.st28{fill:#CA2129;}
	.st29{fill:#FEFEFE;}
	.st30{fill:#673AB6;}
	.st31{fill:#03A8F3;}
	.st32{fill:#3F51B4;}
	.st33{fill:#FE9700;}
	.st34{clip-path:url(#SVGID_2_);}
	.st35{fill:#263238;}
	.st36{fill:#FFE0B2;}
	.st37{fill:#FFCC80;}
	.st38{fill:#FFC107;}
	.st39{fill:#FF9800;}
	.st40{fill:#00897B;}
	.st41{fill:#26A69A;}
	.st42{fill:#A1887F;}
	.st43{fill:#8D6E63;}
	.st44{fill:#546E7A;}
	.st45{fill:#455A64;}
	.st46{fill:#009688;}
	.st47{fill:#FFA726;}
	.st48{fill:#E53935;}
	.st49{fill:#EF5350;}
	.st50{fill:none;stroke:#000000;stroke-width:4.5191;stroke-linecap:round;stroke-linejoin:round;stroke-miterlimit:10;}
	.st51{clip-path:url(#SVGID_4_);}
	.st52{clip-path:url(#SVGID_6_);}
	.st53{fill:#4AC1D1;}
	.st54{fill:#414042;}
	.st55{fill:#6D6E71;}
	.st56{fill:#1A171B;}
</style>
<g>
	<path class="st2" d="M100.7,55.1c0.1-0.1,0.2-0.2,0.2-0.3c0-0.2,0-0.4,0-0.6c0-2.8,0-5.6,0-8.4c0-0.1,0-0.3,0-0.4
		c0-0.5,0-0.5,0.5-0.5c2.9,0,5.8,0,8.6,0c0.3,0,0.7,0,1,0c3,0,5.9,0,8.9,0c0.2,0,0.4,0,0.6,0c0.2,0,0.3-0.1,0.3-0.3
		c0-0.1,0-0.2,0-0.4c0-2.9,0-5.7,0-8.6c0-0.1,0-0.3,0-0.4c0-0.1-0.1-0.2-0.2-0.2c-0.1,0-0.3,0-0.4,0c-2.8,0-5.7,0-8.5,0
		c-0.2,0-0.5,0-0.7,0.1c0-0.1,0-0.2,0.1-0.2c0.1,0,0.2,0,0.3,0c3,0,6,0,9.1,0c0,0,0.1,0,0.1,0c0.3,0,0.4,0,0.4,0.3
		c0,0.2,0,0.3,0,0.5c0,2.8,0,5.7,0,8.5c0,0.8,0,0.7,0.7,0.7c2.9,0,5.8,0,8.7,0c0.2,0,0.4-0.1,0.6,0.1c-3.3,0-6.7,0-10,0
		c-0.2-0.1-0.4-0.1-0.6-0.1c-2.9,0-5.8,0-8.7,0c-0.1,0-0.3,0-0.4,0c-0.1,0-0.2,0.1-0.2,0.2c0,0.2,0,0.4,0,0.6c0,2.8,0,5.5,0,8.3
		c0,0.1,0,0.3,0,0.4c0,0.6,0,0.5-0.5,0.5c-2.9,0-5.8,0-8.6,0c-0.9,0-0.9-0.1-0.9,0.9c0,2.8,0,5.6,0,8.4c0,0.2,0.1,0.5-0.1,0.7
		c-0.2-0.3-0.1-0.6-0.1-0.9C100.7,61.1,100.7,58.1,100.7,55.1z"/>
	<path class="st2" d="M110.8,24.9c-0.2,0.1-0.5,0-0.8,0c-2.8,0-5.6,0-8.4,0c-0.8,0-0.8-0.1-0.8,0.8c0,2.8,0,5.7,0,8.5
		c0,0.9,0,0.8-0.8,0.8c-2.9,0-5.8,0-8.7,0c-0.6,0-0.6,0.1-0.6-0.6c0-2.9,0-5.7,0-8.6c0-0.9,0.1-0.9-0.9-0.9c-2.8,0-5.6,0-8.4,0
		c-0.9,0-0.8,0-0.8-0.8c0-3.1,0-6.2,0-9.3l0,0c3.2,0,6.4,0,9.5,0c0.1,0,0.1,0,0.2,0c0.3,0,0.3,0.1,0.3,0.3c0,0.2,0,0.4,0,0.6
		c0,2.8,0,5.5,0,8.3c0,0.9-0.1,0.8,0.8,0.8c3.1,0,6.1,0,9.2,0C104.2,24.9,107.5,24.9,110.8,24.9z M100.7,29.9L100.7,29.9
		c0-1.5,0-2.9,0-4.4c0-0.4,0-0.5-0.5-0.5c-0.1,0-0.2,0-0.3,0c-2.7,0-5.4,0-8.1,0c-0.2,0-0.3,0-0.5,0c-0.2,0-0.3,0.1-0.3,0.3
		c0,0.1,0,0.3,0,0.4c0,2.8,0,5.6,0,8.3c0,0.2,0,0.3,0,0.5c0,0.1,0.1,0.2,0.2,0.2c0.1,0,0.3,0,0.4,0c2.8,0,5.6,0,8.4,0
		c0.6,0,0.6,0,0.6-0.6C100.7,32.8,100.7,31.4,100.7,29.9z"/>
	<path class="st2" d="M50.7,55.2c-0.1-0.1-0.2-0.1-0.3-0.1c-0.2,0-0.4,0-0.6,0c-2.8,0-5.6,0-8.3,0c-0.2,0-0.3,0-0.5,0
		c-0.4,0-0.4,0-0.4-0.4c0-0.2,0-0.4,0-0.6c0-2.7,0-5.5,0-8.2c0-0.2,0-0.4,0-0.6c0-0.1-0.1-0.2-0.2-0.2c-0.1,0-0.3,0-0.4,0
		c-2.9,0-5.8,0-8.8,0c-0.2,0-0.4,0-0.6,0.1c-0.2,0-0.5,0-0.7,0c-3.1,0-6.2,0-9.3,0c0-0.1,0.1-0.1,0.1-0.1c0.2,0,0.4,0,0.6,0
		c3.1,0,6.1,0,9.2,0c0.3,0,0.6,0,0.8,0c2.8,0,5.6,0,8.3,0c0.3,0,0.6,0,0.9-0.1c0.1,0.1,0.2,0.1,0.3,0.1c0.2,0,0.4,0,0.6,0
		c2.9,0,5.7,0,8.6,0c0.6,0,0.6,0,0.6,0.6c0,2.9,0,5.8,0,8.8c0,0.2-0.1,0.5,0.2,0.7C50.8,55.1,50.7,55.2,50.7,55.2z"/>
	<path class="st2" d="M10.5,25c0-0.1,0.1-0.1,0.1-0.1c0.2,0,0.4,0,0.6,0c2.8,0,5.6,0,8.3,0c0.2,0,0.4,0,0.6,0c0.3,0,0.3-0.1,0.3-0.3
		c0-0.2,0-0.4,0-0.6c0-2.8,0-5.5,0-8.3c0-0.2,0-0.4,0-0.6c0-0.1,0.1-0.2,0.2-0.2c0.2,0,0.4,0,0.6,0c2.8,0,5.7,0,8.5,0
		c0.2,0,0.5,0.1,0.7-0.1c0.1,0,0.2,0,0.2,0.1c-0.1,0-0.2,0.1-0.2,0.2c0,0.2,0,0.4,0,0.6c0,2.8,0,5.6,0,8.4c0,0.2,0,0.5,0,0.7
		c-0.3,0.2-0.5,0.1-0.8,0.1c-2.8,0-5.7,0-8.5,0c-0.3,0-0.6-0.1-0.8,0.1C17.2,25,13.8,25,10.5,25z"/>
	<path class="st2" d="M30.5,54.9c0,0.1-0.1,0.1-0.1,0.1c-0.2,0-0.4,0-0.6,0c-2.9,0-5.8,0-8.6,0c-0.6,0-0.6,0-0.6,0.6
		c0,2.9,0,5.8,0,8.7c0,0.9,0.1,0.8-0.8,0.8c-2.8,0-5.7,0-8.5,0c-0.1,0-0.2,0-0.3,0c-0.5,0-0.5,0-0.5-0.6c0-0.1,0-0.1,0-0.2
		c0-2.9,0-5.7,0-8.6c0-0.2,0-0.3,0-0.5c0-0.2,0.1-0.3,0.3-0.3c0.2,0,0.4,0,0.6,0c2.8,0,5.7,0,8.5,0c0.3,0,0.5,0.1,0.7-0.1
		C23.8,54.9,27.2,54.9,30.5,54.9z"/>
	<path class="st2" d="M131.2,55.1c0.2,0,0.3,0,0.5,0c2.9,0,5.8,0,8.8,0c0.6,0,0.6,0,0.6,0.6c0,3,0,5.9,0,8.9c0,0.6,0,0.6-0.6,0.6
		c-2.9,0-5.9,0-8.8,0c-0.1,0-0.2,0-0.3,0c-0.3,0-0.3-0.1-0.3-0.3c0-0.1,0-0.2,0-0.3c0-3,0-5.9,0-8.9c0-0.1,0-0.3,0-0.4
		C131.1,55.2,131.1,55.1,131.2,55.1z"/>
	<path class="st2" d="M50.7,55.2c0.1-0.1,0.1-0.1,0.2-0.2c0.2,0,0.3,0,0.5,0c2.9,0,5.8,0,8.7,0c0.2,0,0.3,0,0.5,0c0.1,0,0.1,0,0.2,0
		c0,2.8,0,5.6,0,8.4c0,0.5,0,1,0,1.5c-0.1,0-0.1,0.1-0.1,0.2c-0.2,0-0.3,0-0.5,0c-2.9,0-5.8,0-8.7,0c-0.2,0-0.3,0-0.5,0
		c0,0-0.1-0.1-0.1-0.1c-0.1-0.2-0.1-0.3-0.1-0.5c0-3,0-6,0-9C50.7,55.5,50.7,55.3,50.7,55.2z"/>
	<path class="st2" d="M30.8,14.9c0-0.1-0.1-0.1-0.2-0.1c0-0.2,0-0.4,0-0.6c0-2.9,0-5.8,0-8.7c0-0.2,0-0.4,0.1-0.6c3.1,0,6.2,0,9.3,0
		c0.2,0,0.5,0,0.7,0.1c0,0.2,0,0.3,0,0.5c0,2.9,0,5.9,0,8.8c0,0.1,0,0.3,0,0.4c0,0-0.1,0.1-0.1,0.1c-0.2,0-0.3,0-0.5,0
		c-2.9,0-5.8,0-8.7,0C31.1,14.9,30.9,14.9,30.8,14.9z"/>
	<path class="st2" d="M40.6,44.8C40.3,45,40,45,39.7,45c-2.8,0-5.6,0-8.3,0c-0.3,0-0.6,0-0.8,0c0-2.9,0-5.9,0-8.8c0-0.3,0-0.6,0-0.9
		c0-0.1,0-0.2,0.1-0.2c0.3,0,0.5,0,0.8,0c2.8,0,5.5,0,8.3,0c0.3,0,0.6,0,0.9,0.1c0,0.1,0,0.3,0,0.4c0,3,0,5.9,0,8.9
		C40.6,44.5,40.6,44.7,40.6,44.8z"/>
	<path class="st2" d="M80.8,14.9c-0.8,0-1.7,0-2.5,0c-2.2,0-4.4,0-6.6,0c-0.3,0-0.5,0-0.8,0c0-0.2,0-0.3-0.2-0.4c0-0.2,0-0.4,0-0.6
		c0-2.8,0-5.6,0-8.3c0-0.2,0-0.4,0-0.6c0.2-0.2,0.4-0.1,0.7-0.1c1.9,0,3.7,0,5.6,0c1,0,2.1,0,3.1,0c0.3,0,0.5,0.1,0.7,0.3
		c0,0.2,0,0.4,0,0.6c0,3,0,6,0,8.9C80.8,14.8,80.8,14.8,80.8,14.9L80.8,14.9z"/>
	<path class="st2" d="M141,25c0,0.2,0,0.3,0,0.5c0,2.9,0,5.9,0,8.8c0,0.7,0,0.6-0.6,0.6c-2.9,0-5.9,0-8.8,0c-0.1,0-0.1,0-0.2,0
		c-0.4,0-0.4,0-0.4-0.4c0-0.2,0-0.3,0-0.5c0-2.8,0-5.5,0-8.3c0-0.3,0-0.5,0-0.8C134.4,25,137.7,25,141,25z"/>
	<path class="st2" d="M121,45.1c3.3,0,6.7,0,10,0c0,0.2,0,0.3,0,0.5c0,3,0,6,0,9c0,0.1,0,0.2,0,0.3c-3.3,0-6.7,0-10,0
		c0-0.2,0-0.3,0-0.5c0-3,0-6,0-9C120.9,45.3,121,45.2,121,45.1z"/>
	<path class="st2" d="M10.5,25c3.3,0,6.7,0,10,0c0,0.2,0,0.4,0,0.6c0,2.9,0,5.8,0,8.7c0,0.2,0,0.4,0,0.6c-3.3,0-6.7,0-10,0
		c-0.1-0.2-0.1-0.4-0.1-0.6c0-2.9,0-5.8,0-8.7C10.4,25.4,10.4,25.2,10.5,25z"/>
	<path class="st2" d="M70.7,45c0-3,0-6.1,0-9.1c0-0.3,0-0.5,0-0.8c0,0,0-0.1,0-0.1l0,0c0.4,0,0.7,0,1.1,0c2.9,0,5.8,0,8.8,0l0,0
		c0,3,0,6,0,9c0,0.2,0,0.4,0,0.6c0,0.3-0.1,0.4-0.4,0.4c-0.2,0-0.4,0-0.6,0C76.6,45,73.7,45,70.7,45z"/>
	<path class="st2" d="M30.5,54.9c-3.3,0-6.7,0-10,0c0-0.2,0-0.4,0-0.6c0-2.9,0-5.8,0-8.7c0-0.2,0-0.4,0-0.6c3.1,0,6.2,0,9.3,0
		c0.2,0,0.5,0,0.7,0c0,0.2,0,0.4,0,0.6c0,2.8,0,5.7,0,8.5C30.6,54.5,30.6,54.7,30.5,54.9z"/>
	<path class="st2" d="M70.7,45.1c0,0.1,0,0.1,0,0.2c0,3.1,0,6.2,0,9.3c0,0.1,0,0.2,0,0.3c-3.3,0-6.7,0-10,0c0-0.2,0-0.4,0-0.6
		c0-2.9,0-5.8,0-8.7c0-0.2,0-0.4,0-0.6C64.1,45.1,67.4,45.1,70.7,45.1z"/>
	<path class="st2" d="M80.8,54.9c0-0.2,0-0.3,0-0.5c0-3,0-6,0-9c0-0.1,0-0.2,0-0.3c3.3,0,6.7,0,10,0c0,0.2,0,0.3,0,0.5c0,3,0,6,0,9
		c0,0.1,0,0.2,0,0.3C87.5,54.9,84.2,54.9,80.8,54.9z"/>
	<path class="st2" d="M40.6,24.7c0-0.1,0-0.3,0-0.4c0-3,0-5.9,0-8.9c0-0.1,0-0.3,0-0.4c3.3,0,6.7,0,10,0c0,0.1,0,0.2,0,0.3
		c0,3.2,0,6.3,0,9.5c-3.3,0-6.6,0-9.9,0l0,0C40.7,24.8,40.7,24.8,40.6,24.7z"/>
	<path class="st2" d="M60.7,24.9c0-0.1,0-0.3,0-0.4c0-2.9,0-5.9,0-8.8c0-0.2,0-0.4,0-0.6c3.3,0,6.7,0,10,0c0,0.2,0,0.3,0,0.5
		c0,2.9,0,5.8,0,8.7c0,0.2,0,0.3,0,0.5c0,0-0.1,0.1-0.1,0.1l0,0C67.3,24.9,64,24.9,60.7,24.9z"/>
	<path class="st2" d="M110.8,24.9c-3.3,0-6.6,0-9.9,0c0-3.1,0-6.2,0-9.4c0-0.2,0-0.3,0-0.5c3.3,0,6.7,0,10,0c0,0.2,0,0.4,0,0.6
		c0,2.9,0,5.7,0,8.6c0,0.2,0,0.4,0,0.6C110.9,24.8,110.9,24.8,110.8,24.9L110.8,24.9z"/>
	<path class="st2" d="M131,15c0,0.1,0,0.2,0,0.3c0,3.2,0,6.3,0,9.5c-3.3,0-6.6,0-9.9,0l0,0c0,0-0.1-0.1-0.1-0.1c0-0.1,0-0.3,0-0.4
		c0-3,0-5.9,0-8.9c0-0.1,0-0.3,0-0.4C124.3,15,127.7,15,131,15z"/>
	<path class="st2" d="M60.7,25c0,0.2,0,0.4,0,0.6c0,2.9,0,5.8,0,8.7c0,0.2,0,0.4,0,0.6c-3.3,0-6.6,0-9.9,0c0-0.2,0-0.3-0.1-0.5
		c0-3,0-6,0-9c0-0.1,0-0.2,0-0.3c0.3,0,0.6,0,0.9,0C54.6,25,57.6,25,60.7,25z"/>
	<path class="st2" d="M100.7,55.1c0,3,0,6.1,0,9.1c0,0.3,0,0.6,0.1,0.9l0,0c0,0-0.1,0.1-0.1,0.1c-0.2,0-0.3,0-0.5,0
		c-2.9,0-5.8,0-8.7,0c-0.2,0-0.3,0-0.5,0c0-3.4,0-6.7,0-10.1c0.2,0,0.3,0,0.5,0c2.9,0,5.8,0,8.7,0C100.4,55.1,100.5,55.1,100.7,55.1
		z"/>
	<path class="st2" d="M111,35.1c0.2-0.1,0.4-0.1,0.7-0.1c2.8,0,5.7,0,8.5,0c0.1,0,0.3,0,0.4,0c0.1,0,0.2,0.1,0.2,0.2
		c0,0.1,0,0.3,0,0.4c0,2.9,0,5.7,0,8.6c0,0.1,0,0.2,0,0.4c0,0.2-0.1,0.3-0.3,0.3c-0.2,0-0.4,0-0.6,0c-3,0-5.9,0-8.9,0
		c0-0.8,0-1.6,0-2.4c0-2.2,0-4.4,0-6.6C111,35.6,111,35.4,111,35.1z"/>
	<path class="st2" d="M111,14.8c0-0.2,0-0.3,0-0.5c0-2.9,0-5.8,0-8.7c0-0.2,0-0.4,0-0.6c0.3-0.2,0.5-0.1,0.8-0.1c2.7,0,5.5,0,8.2,0
		c0.8,0,0.8,0,0.8,0.8c0,3.1,0,6.1,0,9.2c-0.2,0-0.3,0-0.5,0c-2.9,0-5.8,0-8.7,0c-0.2,0-0.3,0-0.5,0C111.1,14.9,111,14.8,111,14.8z"
		/>
	<path class="st2" d="M90.8,45.1c-3.3,0-6.7,0-10,0C80.6,45,80.4,45,80.2,45c-3,0-5.9,0-8.9,0c-0.2,0-0.4,0-0.5,0.1
		c-3.3,0-6.7,0-10,0c0-0.1,0.1-0.1,0.1-0.1c0.2,0,0.4,0,0.6,0c3.1,0,6.1,0,9.2,0c3,0,5.9,0,8.9,0c0.2,0,0.4,0,0.6,0
		c0.3,0,0.4-0.1,0.4-0.4c0-0.2,0-0.4,0-0.6c0-3,0-6,0-9c0.1,0,0.2,0,0.2,0.1c0,0.2,0,0.4,0,0.6c0,2.8,0,5.7,0,8.5
		c0,0.8-0.1,0.8,0.7,0.8c2.8,0,5.7,0,8.5,0c0.2,0,0.4,0,0.6,0C90.8,45,90.8,45,90.8,45.1z"/>
	<path class="st2" d="M120.8,14.9c0-3.1,0-6.1,0-9.2c0-0.8,0-0.8-0.8-0.8c-2.7,0-5.5,0-8.2,0c-0.3,0-0.6,0-0.8,0.1
		c0-0.1,0-0.2,0.1-0.2c0.1,0,0.2,0,0.3,0c3,0,6,0,9,0c0.1,0,0.2,0,0.3,0c0.1,0,0.2,0.1,0.2,0.2c0,0.2,0,0.4,0,0.6c0,2.8,0,5.6,0,8.4
		c0,0.2,0,0.4,0,0.6c0,0.2,0.1,0.2,0.3,0.3c0.2,0,0.4,0,0.6,0c2.8,0,5.6,0,8.4,0c0.2,0,0.4,0,0.6,0c0.1,0,0.1,0.1,0.1,0.1
		c-3.3,0-6.7,0-10,0C120.9,15,120.9,14.9,120.8,14.9z"/>
	<path class="st2" d="M91,55.1c0,3.4,0,6.7,0,10.1c-0.1,0-0.2,0-0.2-0.1c0-0.2,0-0.4,0-0.6c0-2.8,0-5.6,0-8.5c0-1,0.1-0.9-0.9-0.9
		c-2.8,0-5.6,0-8.4,0c-0.2,0-0.4,0-0.6,0c-0.1,0-0.1-0.1-0.1-0.1c3.3,0,6.7,0,10,0C90.9,55,91,55,91,55.1z"/>
	<path class="st2" d="M60.7,25c-3,0-6,0-9.1,0c-0.3,0-0.6,0-0.9,0c-0.3-0.1-0.5-0.1-0.8-0.1c-2.8,0-5.6,0-8.4,0
		c-0.2,0-0.5,0-0.7-0.1c3.3,0,6.6,0,9.9,0c3.3,0,6.7,0,10,0c3.3,0,6.6,0,9.9,0c-0.2,0.1-0.5,0.1-0.7,0.1c-2.8,0-5.6,0-8.5,0
		C61.2,24.9,60.9,24.9,60.7,25z"/>
	<path class="st2" d="M121.1,24.9c3.3,0,6.6,0,9.9,0c3.1,0,6.1,0,9.2,0c0.2,0,0.4,0,0.6,0c0.1,0,0.1,0.1,0.1,0.1c-3.3,0-6.7,0-10,0
		c-0.3-0.1-0.5-0.1-0.8-0.1c-2.8,0-5.6,0-8.4,0C121.6,24.9,121.3,25,121.1,24.9z"/>
	<path class="st2" d="M70.7,15c-3.3,0-6.7,0-10,0c0-0.1,0-0.1,0.1-0.1c0.2,0,0.4,0,0.6,0c2.8,0,5.5,0,8.3,0c0.2,0,0.3,0,0.5,0
		c0.4,0,0.4,0,0.5-0.4c0.2,0.1,0.2,0.3,0.2,0.4C70.9,14.9,70.8,15,70.7,15z"/>
	<path class="st2" d="M80.8,5.2c-0.2-0.2-0.4-0.3-0.7-0.3c-1,0-2.1,0-3.1,0c-1.9,0-3.7,0-5.6,0c-0.2,0-0.5-0.1-0.7,0.1
		c0-0.1,0-0.2,0-0.2c0.1,0,0.3,0,0.4,0c3,0,6.1,0,9.1,0c0.1,0,0.2,0,0.3,0C80.8,4.8,80.8,4.9,80.8,5.2z"/>
	<path class="st2" d="M111,14.8c0,0,0.1,0.1,0.1,0.1c-0.1,0-0.1,0.1-0.2,0.1c-3.3,0-6.7,0-10,0c0-0.1,0-0.1,0.1-0.1
		c0.2,0,0.4,0,0.6,0c2.9,0,5.7,0,8.6,0C110.5,14.9,110.8,15,111,14.8z"/>
	<path class="st2" d="M121,54.9c3.3,0,6.7,0,10,0c0.1,0,0.1,0.1,0.2,0.1c-0.1,0.1-0.1,0.1-0.2,0.2c-0.1-0.1-0.2-0.1-0.3-0.1
		c-0.2,0-0.4,0-0.6,0c-2.8,0-5.6,0-8.4,0c-0.2,0-0.4,0-0.6,0C121,55.1,121,55,121,54.9z"/>
	<path class="st2" d="M40.6,5.1c-0.2-0.1-0.4-0.1-0.7-0.1c-3.1,0-6.2,0-9.3,0c0-0.1,0.1-0.1,0.1-0.1c0.2,0,0.4,0,0.6,0
		c2.9,0,5.7,0,8.6,0c0.2,0,0.4,0,0.6,0C40.6,4.9,40.6,5,40.6,5.1z"/>
	<path class="st2" d="M60.7,54.9c3.3,0,6.7,0,10,0c0,0.1-0.1,0.1-0.1,0.1c-0.2,0-0.4,0-0.6,0c-3.1,0-6.2,0-9.3,0c-0.1,0-0.1,0-0.2,0
		C60.6,55,60.6,55,60.7,54.9z"/>
	<path class="st2" d="M40.6,35.1C40.3,35,40,35,39.7,35c-2.8,0-5.5,0-8.3,0c-0.3,0-0.5,0-0.8,0c0.1-0.1,0.3-0.1,0.4-0.1c3,0,6,0,9,0
		c0.1,0,0.3,0,0.4,0C40.6,35,40.6,35.1,40.6,35.1z"/>
	<path class="st2" d="M10.5,34.8c3.3,0,6.7,0,10,0c0,0,0,0.1-0.1,0.1c-0.1,0-0.2,0-0.3,0c-3.1,0-6.1,0-9.2,0
		C10.8,35,10.6,35.1,10.5,34.8z"/>
	<path class="st2" d="M50.7,15c-3.3,0-6.7,0-10,0c0,0,0-0.1,0-0.1l0,0c3.2,0,6.3,0,9.5,0c0.1,0,0.3,0,0.4,0
		C50.6,14.9,50.6,15,50.7,15z"/>
	<path class="st2" d="M50.7,34.9c3.3,0,6.6,0,9.9,0c0,0,0,0.1-0.1,0.1c-0.1,0-0.3,0-0.4,0c-3,0-6,0-8.9,0C51,35,50.8,35.1,50.7,34.9
		z"/>
	<path class="st2" d="M80.6,35c-2.9,0-5.8,0-8.8,0c-0.4,0-0.7,0-1.1,0c0.1-0.1,0.3-0.1,0.4-0.1c3,0,6,0,9,0
		C80.4,34.9,80.5,35,80.6,35z"/>
	<path class="st2" d="M60.5,65.1c0-0.1,0-0.2,0.1-0.2C60.7,65,60.7,65.1,60.5,65.1z"/>
	<path class="st2" d="M110.8,24.9c0,0,0.1-0.1,0.1-0.1C111,24.8,110.9,24.9,110.8,24.9z"/>
	<path class="st2" d="M70.6,24.9c0,0,0.1-0.1,0.1-0.1C70.8,24.8,70.7,24.9,70.6,24.9z"/>
	<path class="st2" d="M40.6,24.7c0,0,0.1,0.1,0.1,0.1C40.6,24.9,40.6,24.8,40.6,24.7z"/>
	<path class="st2" d="M70.8,35C70.8,35.1,70.8,35.1,70.8,35C70.7,35.1,70.7,35.1,70.8,35C70.7,35.1,70.8,35,70.8,35z"/>
	<path class="st2" d="M40.5,14.9c0,0,0.1-0.1,0.1-0.1c0,0,0,0.1,0,0.1l0,0C40.5,14.9,40.5,14.9,40.5,14.9z"/>
	<path class="st2" d="M121,24.7c0,0,0.1,0.1,0.1,0.1C121,24.9,121,24.8,121,24.7z"/>
	<path class="st2" d="M50.7,65.1c0,0,0.1,0.1,0.1,0.1C50.8,65.2,50.7,65.2,50.7,65.1z"/>
	<path class="st2" d="M100.7,65.1c0,0,0.1-0.1,0.1-0.1C100.9,65.2,100.8,65.2,100.7,65.1z"/>
	<path class="st2" d="M100.7,29.9c0,1.4,0,2.9,0,4.3c0,0.6,0,0.6-0.6,0.6c-2.8,0-5.6,0-8.4,0c-0.1,0-0.3,0-0.4,0
		c-0.1,0-0.2-0.1-0.2-0.2c0-0.2,0-0.3,0-0.5c0-2.8,0-5.6,0-8.3c0-0.1,0-0.3,0-0.4c0-0.2,0.1-0.3,0.3-0.3c0.2,0,0.3,0,0.5,0
		c2.7,0,5.4,0,8.1,0c0.1,0,0.2,0,0.3,0c0.4,0,0.5,0,0.5,0.5C100.7,27,100.7,28.5,100.7,29.9L100.7,29.9z"/>
</g>
</svg>
