<?xml version="1.0" encoding="iso-8859-1"?>
<!-- Generator: Adobe Illustrator 19.0.0, SVG Export Plug-In . SVG Version: 6.00 Build 0)  -->
<svg xmlns="http://www.w3.org/2000/svg" xmlns:xlink="http://www.w3.org/1999/xlink" version="1.1" id="Capa_1" x="0px" y="0px" viewBox="0 0 512.001 512.001" style="enable-background:new 0 0 512.001 512.001;" xml:space="preserve" width="512px" height="512px">
<g>
	<g>
		<path d="M303.881,128.507c-17.327,0-31.423,14.097-31.423,31.423s14.097,31.423,31.423,31.423s31.423-14.096,31.423-31.423    S321.208,128.507,303.881,128.507z M303.881,171.353c-6.299,0-11.423-5.124-11.423-11.423s5.125-11.423,11.423-11.423    s11.423,5.125,11.423,11.423S310.18,171.353,303.881,171.353z" fill="#FFFFFF"/>
	</g>
</g>
<g>
	<g>
		<path d="M419.58,283.826h-57.789c-4.966,0-9.075,3.623-9.855,8.368h-25.45l-10.974-25.239    c15.545-6.543,29.828-16.101,42.113-28.386c21.401-21.402,34.541-48.855,37.839-78.495c0.014-0.123,0.027-0.246,0.041-0.369    c0.089-0.821,0.171-1.643,0.245-2.466c0.021-0.233,0.04-0.467,0.06-0.701c0.062-0.739,0.121-1.478,0.171-2.219    c0.023-0.345,0.042-0.689,0.063-1.034c0.039-0.647,0.078-1.295,0.107-1.944c0.023-0.493,0.037-0.986,0.054-1.479    c0.018-0.52,0.04-1.039,0.052-1.559c0.02-0.881,0.029-1.762,0.032-2.643c0-0.144,0.005-0.288,0.005-0.432    c0-26.734-7.859-52.202-22.76-74.089c-1.262-1.853-2.556-3.69-3.918-5.491c-2.11-2.788-4.331-5.489-6.655-8.095    c-1.744-1.956-3.563-3.84-5.419-5.688c-15.451-15.382-34.629-26.929-55.463-33.14c-7.639-2.281-15.47-3.859-23.406-4.721    c-3.855-0.419-7.736-0.648-11.631-0.728V10c0-5.523-4.477-10-10-10c-48.747,0-89.89,18.482-118.979,53.45    c-28.147,33.834-43.868,81.861-45.463,138.89c-0.185,6.602-0.813,13.457-1.869,20.375l-8.195,53.716    c-0.504,3.304,0.675,6.64,3.143,8.893c0.936,0.854,19.222,17.406,46.444,32.192c-19.007,12.128-31.649,33.388-31.649,57.559    v136.925c0,5.523,4.477,10,10,10h300.882c5.523,0,10-4.477,10-10V387.678c4.674-0.839,8.225-4.917,8.225-9.833v-84.02    C429.58,288.303,425.103,283.826,419.58,283.826z M103.145,263.951l7.356-48.218c1.179-7.729,1.882-15.411,2.09-22.833    c2.866-102.463,54.064-167.636,134.45-172.594V138.06c-0.162-0.031-0.324-0.062-0.486-0.094c-1.475-0.288-2.949-0.591-4.418-0.921    c-0.096-0.021-0.192-0.045-0.288-0.067c-1.394-0.315-2.784-0.653-4.172-1.004c-0.314-0.08-0.627-0.158-0.94-0.239    c-1.441-0.374-2.88-0.766-4.313-1.18c-0.229-0.066-0.456-0.136-0.685-0.203c-1.295-0.38-2.586-0.776-3.874-1.188    c-0.268-0.085-0.536-0.168-0.803-0.255c-1.42-0.462-2.835-0.943-4.245-1.444c-0.291-0.103-0.582-0.21-0.873-0.315    c-1.298-0.468-2.593-0.952-3.883-1.453c-0.176-0.068-0.353-0.134-0.529-0.203c-1.408-0.552-2.81-1.128-4.207-1.719    c-0.312-0.132-0.624-0.266-0.936-0.401c-1.416-0.609-2.828-1.23-4.232-1.879c-10.225-4.723-21.989-3.921-31.469,2.143    c-9.47,6.057-15.123,16.387-15.123,27.633v36.303c0,1.223,0.023,2.443,0.069,3.659c0.687,18.246,6.508,35.714,16.94,50.727    c8.936,12.862,20.728,23.216,34.466,30.345l-8.107,20.522h-36.21c-1.05,0-2.101,0.031-3.152,0.08    c-0.42,0.019-0.837,0.051-1.255,0.078c-0.606,0.039-1.211,0.083-1.817,0.139c-0.523,0.047-1.043,0.102-1.562,0.161    c-0.481,0.055-0.962,0.118-1.442,0.184c-0.575,0.078-1.149,0.156-1.718,0.248c-0.076,0.013-0.147,0.02-0.218,0.032    C131.91,286.484,111.434,270.781,103.145,263.951z M247.041,492H120.474V365.075c0-21.589,14.254-39.909,33.845-46.049v106.687    c0,5.523,4.477,10,10,10c5.523,0,10-4.477,10-10V316.83h32.108l40.614,61.11V492z M247.044,341.804l-24.068-36.215l12.156-30.769    c0.976-2.47,0.929-5.227-0.13-7.663c-1.059-2.436-3.044-4.35-5.516-5.32c-8.472-3.326-16.064-8.029-22.581-13.784    c-1.129-0.997-2.232-2.021-3.295-3.08c-0.048-0.047-0.098-0.093-0.146-0.141c-6.57-6.581-11.848-14.32-15.575-22.837    c-1.491-3.407-2.733-6.938-3.711-10.569c-0.978-3.631-1.691-7.363-2.122-11.17c-0.324-2.855-0.489-5.753-0.489-8.683v-36.303    c0-4.456,2.15-8.387,5.9-10.785c0.47-0.301,0.951-0.568,1.442-0.803c1.958-0.937,4.065-1.348,6.174-1.222    c0.527,0.031,1.054,0.097,1.58,0.195c1.05,0.198,2.092,0.53,3.107,0.999c1.716,0.792,3.442,1.55,5.174,2.289    c0.31,0.132,0.618,0.267,0.929,0.397c1.659,0.698,3.325,1.371,4.997,2.02c0.339,0.131,0.678,0.26,1.017,0.389    c1.713,0.654,3.431,1.289,5.157,1.891c0.149,0.052,0.299,0.101,0.449,0.152c1.662,0.575,3.329,1.123,5.002,1.65    c0.282,0.089,0.563,0.181,0.845,0.268c1.708,0.53,3.423,1.031,5.142,1.51c0.355,0.099,0.711,0.197,1.067,0.294    c1.734,0.473,3.471,0.925,5.215,1.346c0.235,0.057,0.471,0.109,0.707,0.165c1.679,0.399,3.362,0.774,5.049,1.125    c0.223,0.046,0.444,0.096,0.667,0.142c1.757,0.359,3.518,0.686,5.283,0.993c0.192,0.033,0.382,0.075,0.574,0.108V341.804z     M309.219,42.611c1.229,0.54,2.441,1.11,3.645,1.693c0.289,0.14,0.577,0.281,0.865,0.423c1.196,0.592,2.383,1.198,3.554,1.831    c0.051,0.028,0.101,0.057,0.152,0.085c1.13,0.614,2.245,1.251,3.351,1.902c0.265,0.156,0.531,0.313,0.794,0.471    c1.138,0.683,2.267,1.38,3.377,2.102c0.087,0.057,0.172,0.116,0.259,0.173c1.041,0.681,2.068,1.382,3.084,2.096    c0.239,0.168,0.478,0.335,0.716,0.505c1.078,0.77,2.144,1.554,3.191,2.36c0.109,0.084,0.216,0.171,0.325,0.256    c0.962,0.746,1.909,1.508,2.845,2.284c0.212,0.176,0.426,0.351,0.637,0.529c1.011,0.85,2.009,1.715,2.989,2.6    c0.126,0.114,0.249,0.231,0.374,0.345c0.884,0.805,1.753,1.625,2.61,2.457c0.187,0.182,0.376,0.362,0.561,0.545    c0.94,0.925,1.865,1.865,2.772,2.822c0.134,0.141,0.264,0.286,0.398,0.428c0.81,0.864,1.605,1.74,2.387,2.628    c0.161,0.183,0.325,0.365,0.485,0.549c0.864,0.994,1.711,2.001,2.539,3.024c0.139,0.171,0.274,0.346,0.412,0.518    c0.732,0.915,1.45,1.841,2.154,2.778c0.139,0.186,0.281,0.369,0.419,0.556c0.781,1.054,1.544,2.121,2.288,3.201    c0.14,0.203,0.276,0.409,0.415,0.613c0.654,0.963,1.294,1.935,1.919,2.918c0.117,0.184,0.237,0.366,0.353,0.551    c0.695,1.107,1.37,2.228,2.027,3.359c0.136,0.234,0.268,0.47,0.402,0.705c0.576,1.008,1.137,2.025,1.682,3.051    c0.096,0.181,0.196,0.361,0.291,0.543c0.605,1.154,1.187,2.32,1.752,3.495c0.127,0.264,0.251,0.531,0.376,0.796    c0.497,1.054,0.979,2.116,1.444,3.186c0.075,0.172,0.153,0.342,0.227,0.515c0.511,1.194,0.998,2.4,1.468,3.613    c0.114,0.294,0.225,0.589,0.336,0.884c0.418,1.105,0.821,2.216,1.204,3.335c0.052,0.152,0.108,0.302,0.159,0.454    c0.015,0.045,0.028,0.091,0.043,0.136c-2.474-3.348-5.112-6.587-7.909-9.708c-14.619-16.309-32.95-28.673-53.372-36.061V42.611z     M306.273,84.466c34.711,14.102,60.748,45.375,67.938,82.412c-4.222,21.665-14.769,41.589-30.728,57.548    c-12.606,12.607-27.692,21.831-44.155,27.232c-0.1,0.029-0.2,0.05-0.299,0.082c-5.567,1.814-11.262,3.182-17.045,4.098    c-0.043,0.007-0.086,0.013-0.129,0.02c-2.775,0.437-5.571,0.765-8.383,0.992c-0.165,0.013-0.329,0.029-0.494,0.041    c-1.309,0.1-2.621,0.176-3.936,0.23c-0.242,0.01-0.484,0.018-0.727,0.026c-0.423,0.015-0.848,0.014-1.272,0.025V118.412    C285.319,114.849,300.207,101.721,306.273,84.466z M304.677,292.194h-37.635v-14.995c0.078-0.002,0.155-0.006,0.232-0.008    c2.404-0.053,4.798-0.17,7.178-0.35c0.083-0.006,0.166-0.015,0.249-0.021c1.129-0.088,2.255-0.19,3.378-0.306    c0.135-0.014,0.27-0.03,0.406-0.045c1.103-0.117,2.203-0.248,3.3-0.393c0.083-0.011,0.165-0.022,0.248-0.033    c4.878-0.651,9.695-1.562,14.43-2.742L304.677,292.194z M267.04,33.256c1.124,0.027,2.244,0.076,3.363,0.137    c0.332,0.018,0.663,0.04,0.995,0.061c0.828,0.052,1.654,0.113,2.479,0.183c0.331,0.028,0.662,0.055,0.992,0.086    c1.094,0.103,2.186,0.217,3.274,0.351c0.02,0.003,0.041,0.004,0.061,0.007c1.108,0.138,2.213,0.297,3.316,0.467    c0.325,0.05,0.648,0.105,0.973,0.158c0.815,0.133,1.628,0.276,2.439,0.427c0.328,0.061,0.657,0.121,0.984,0.185    c1.048,0.205,2.094,0.422,3.135,0.657c0.047,0.011,0.095,0.02,0.142,0.031c0.008,0.002,0.015,0.004,0.023,0.006v31.196    c0,0.773-0.04,1.536-0.093,2.295c-0.014,0.195-0.026,0.389-0.043,0.585c-1.158,12.986-10.055,23.778-22.04,27.707V33.256z     M360.015,492h-28.348V380.02c0-5.523-4.477-10-10-10c-5.523,0-10,4.477-10,10V492H267.04V312.194h0.001h84.749v65.651    c0,0.328,0.018,0.651,0.049,0.971c0.01,0.106,0.029,0.209,0.043,0.313c0.027,0.212,0.056,0.424,0.096,0.632    c0.023,0.121,0.054,0.239,0.082,0.358c0.044,0.188,0.089,0.375,0.144,0.558c0.036,0.123,0.077,0.243,0.118,0.364    c0.059,0.175,0.121,0.348,0.19,0.519c0.048,0.12,0.098,0.237,0.15,0.354c0.075,0.167,0.154,0.331,0.238,0.493    c0.058,0.112,0.115,0.223,0.176,0.333c0.092,0.164,0.191,0.323,0.292,0.481c0.064,0.099,0.125,0.2,0.192,0.297    c0.116,0.169,0.241,0.33,0.367,0.491c0.062,0.078,0.119,0.16,0.183,0.236c0.181,0.218,0.372,0.427,0.571,0.628    c0.014,0.015,0.027,0.031,0.042,0.045c0.216,0.215,0.442,0.419,0.676,0.615c0.07,0.058,0.145,0.111,0.216,0.167    c0.167,0.132,0.336,0.261,0.512,0.382c0.095,0.065,0.193,0.125,0.291,0.187c0.16,0.102,0.321,0.203,0.487,0.296    c0.108,0.061,0.219,0.117,0.33,0.174c0.163,0.083,0.327,0.164,0.495,0.239c0.117,0.052,0.235,0.101,0.354,0.149    c0.17,0.068,0.342,0.13,0.517,0.189c0.122,0.041,0.244,0.081,0.368,0.118c0.181,0.053,0.364,0.098,0.549,0.141    c0.123,0.028,0.244,0.059,0.368,0.083c0.043,0.008,0.085,0.021,0.128,0.029V492z M401.356,492h-21.34V387.845h21.34V492z     M409.58,367.845h-37.789v-64.019h37.789V367.845z" fill="#FFFFFF"/>
	</g>
</g>
<g>
	<g>
		<path d="M331.471,340.91c-0.13-0.64-0.32-1.27-0.57-1.87s-0.56-1.19-0.92-1.73c-0.36-0.54-0.78-1.06-1.24-1.52    c-0.46-0.46-0.97-0.88-1.52-1.24c-0.54-0.36-1.13-0.67-1.73-0.92c-0.6-0.25-1.23-0.44-1.87-0.57c-1.29-0.26-2.62-0.26-3.91,0    c-0.63,0.13-1.26,0.32-1.87,0.57c-0.6,0.25-1.18,0.56-1.72,0.92c-0.55,0.36-1.06,0.78-1.52,1.24c-0.47,0.46-0.88,0.98-1.25,1.52    c-0.36,0.54-0.67,1.13-0.92,1.73s-0.44,1.23-0.57,1.87c-0.13,0.65-0.19,1.3-0.19,1.95c0,0.66,0.06,1.31,0.19,1.96    c0.13,0.64,0.32,1.261,0.57,1.87c0.25,0.6,0.56,1.18,0.92,1.73c0.37,0.54,0.78,1.05,1.25,1.52c0.46,0.46,0.97,0.87,1.52,1.24    c0.54,0.36,1.12,0.67,1.72,0.92c0.61,0.25,1.24,0.44,1.87,0.57c0.65,0.13,1.31,0.19,1.96,0.19c0.65,0,1.31-0.06,1.95-0.19    c0.64-0.13,1.27-0.32,1.87-0.57c0.6-0.25,1.19-0.56,1.73-0.92c0.55-0.37,1.06-0.78,1.52-1.24c0.46-0.47,0.88-0.98,1.24-1.52    c0.36-0.55,0.67-1.13,0.92-1.73c0.25-0.61,0.44-1.23,0.57-1.87c0.13-0.65,0.2-1.3,0.2-1.96    C331.671,342.21,331.601,341.56,331.471,340.91z" fill="#FFFFFF"/>
	</g>
</g>
<g>
	<g>
		<path d="M174.12,460.912c-0.13-0.631-0.32-1.261-0.57-1.87c-0.25-0.6-0.56-1.18-0.92-1.72c-0.36-0.55-0.78-1.06-1.24-1.52    c-0.46-0.46-0.97-0.88-1.52-1.25c-0.54-0.36-1.12-0.67-1.73-0.92c-0.6-0.25-1.23-0.44-1.87-0.57c-1.29-0.26-2.62-0.26-3.91,0    c-0.63,0.13-1.26,0.32-1.87,0.57c-0.6,0.25-1.18,0.56-1.72,0.92c-0.55,0.37-1.06,0.79-1.52,1.25c-0.46,0.46-0.88,0.97-1.25,1.52    c-0.36,0.54-0.67,1.12-0.92,1.72c-0.25,0.61-0.44,1.24-0.57,1.87c-0.13,0.65-0.19,1.31-0.19,1.96c0,0.65,0.06,1.31,0.19,1.95    s0.32,1.27,0.57,1.87c0.25,0.61,0.56,1.19,0.92,1.73c0.37,0.55,0.79,1.06,1.25,1.52c0.46,0.46,0.97,0.88,1.52,1.24    c0.54,0.36,1.12,0.67,1.72,0.92c0.61,0.25,1.24,0.44,1.87,0.57c0.65,0.13,1.31,0.2,1.96,0.2s1.31-0.07,1.95-0.2    s1.27-0.32,1.87-0.57c0.61-0.25,1.19-0.56,1.73-0.92c0.55-0.36,1.06-0.78,1.52-1.24c0.46-0.46,0.88-0.97,1.24-1.52    c0.36-0.54,0.67-1.12,0.92-1.73c0.25-0.6,0.44-1.23,0.57-1.87s0.2-1.3,0.2-1.95S174.25,461.562,174.12,460.912z" fill="#FFFFFF"/>
	</g>
</g>
<g>
</g>
<g>
</g>
<g>
</g>
<g>
</g>
<g>
</g>
<g>
</g>
<g>
</g>
<g>
</g>
<g>
</g>
<g>
</g>
<g>
</g>
<g>
</g>
<g>
</g>
<g>
</g>
<g>
</g>
</svg>
