<?xml version="1.0" encoding="UTF-8"?>
<svg width="2636px" height="2007px" viewBox="0 0 2636 2007" version="1.1" xmlns="http://www.w3.org/2000/svg" xmlns:xlink="http://www.w3.org/1999/xlink">
    <!-- Generator: Sketch 51.3 (57544) - http://www.bohemiancoding.com/sketch -->
    <title>NS logo 1 dark (big)</title>
    <desc>Created with Sketch.</desc>
    <defs></defs>
    <g id="Page-1" stroke="none" stroke-width="1" fill="none" fill-rule="evenodd">
        <g id="NS-logo-white-Copy">
            <g id="Logo-Copy" transform="translate(0.000000, 1280.000000)" fill="#172A3A">
                <path d="M858.37445,11.8784212 L858.37445,209.852109 L827.689456,209.852109 L716.994058,75.79564 L716.994058,209.852109 L680,209.852109 L680,11.8784212 L710.684994,11.8784212 L821.380392,145.934889 L821.380392,11.8784212 L858.37445,11.8784212 Z M1052.23478,145.65207 L932.075791,145.65207 C934.178823,156.776361 939.675301,165.590815 948.565391,172.095698 C957.455479,178.60058 968.496231,181.852972 981.687977,181.852972 C998.512233,181.852972 1012.37292,176.385182 1023.27044,165.449438 L1042.48441,187.226544 C1035.60176,195.334078 1026.90299,201.461775 1016.38783,205.609815 C1005.87267,209.757855 994.019397,211.831845 980.827651,211.831845 C964.003395,211.831845 949.186801,208.532317 936.377425,201.933161 C923.568049,195.334005 913.674389,186.142461 906.696147,174.358254 C899.717905,162.574047 896.228835,149.234525 896.228835,134.339287 C896.228835,119.632597 899.622313,106.387347 906.409371,94.6031404 C913.196429,82.8189334 922.612135,73.6273898 934.656771,67.028234 C946.701409,60.429078 960.275321,57.1295496 975.378913,57.1295496 C990.291321,57.1295496 1003.62625,60.381942 1015.38411,66.8868242 C1027.14197,73.3917064 1036.3187,82.5361138 1042.91458,94.3203208 C1049.51045,106.104528 1052.80834,119.726867 1052.80834,135.187746 C1052.80834,137.638861 1052.61715,141.126934 1052.23478,145.65207 Z M946.271185,95.451599 C938.337019,102.145029 933.509677,111.053755 931.789015,122.178047 L1018.68203,122.178047 C1017.15256,111.242303 1012.4686,102.380712 1004.63003,95.5930088 C996.791455,88.8053056 987.041181,85.4115048 975.378913,85.4115048 C963.907831,85.4115048 954.205351,88.7581694 946.271185,95.451599 Z M1179.27639,201.650341 C1175.07033,205.044193 1169.95622,207.589543 1163.9339,209.286469 C1157.91158,210.983395 1151.55478,211.831845 1144.86332,211.831845 C1128.03906,211.831845 1115.0387,207.495321 1105.86183,198.822145 C1096.68496,190.148969 1092.0966,177.516489 1092.0966,160.924325 L1092.0966,88.2397004 L1066.86034,88.2397004 L1066.86034,59.9577452 L1092.0966,59.9577452 L1092.0966,25.4537598 L1127.94355,25.4537598 L1127.94355,59.9577452 L1168.95247,59.9577452 L1168.95247,88.2397004 L1127.94355,88.2397004 L1127.94355,160.075867 C1127.94355,167.429212 1129.75978,173.03841 1133.39229,176.90363 C1137.0248,180.76885 1142.2823,182.701431 1149.16495,182.701431 C1157.19471,182.701431 1163.88608,180.627442 1169.23925,176.479401 L1179.27639,201.650341 Z M1333.70508,66.7454144 C1345.46294,73.156023 1354.68746,82.2061582 1361.37893,93.8960914 C1368.07039,105.586025 1371.41608,119.066955 1371.41608,134.339287 C1371.41608,149.61162 1368.07039,163.139686 1361.37893,174.923893 C1354.68746,186.7081 1345.46294,195.805371 1333.70508,202.215981 C1321.94722,208.626589 1308.61228,211.831845 1293.69988,211.831845 C1273.05193,211.831845 1256.70588,205.044243 1244.66124,191.468837 L1244.66124,264.719101 L1208.81429,264.719101 L1208.81429,58.826467 L1242.94059,58.826467 L1242.94059,78.6238356 C1248.86731,71.4590378 1256.18002,66.08552 1264.87892,62.5031212 C1273.57783,58.9207222 1283.18472,57.1295496 1293.69988,57.1295496 C1308.61228,57.1295496 1321.94722,60.3348058 1333.70508,66.7454144 Z M1322.23405,168.560453 C1330.74177,159.887277 1334.99557,148.480336 1334.99557,134.339287 C1334.99557,120.198239 1330.74177,108.791298 1322.23405,100.118122 C1313.72633,91.4449452 1302.87676,87.1084222 1289.68502,87.1084222 C1281.08171,87.1084222 1273.33884,89.0410032 1266.45619,92.906223 C1259.57354,96.7714428 1254.12486,102.286369 1250.10998,109.451167 C1246.0951,116.615965 1244.08769,124.911922 1244.08769,134.339287 C1244.08769,143.766653 1246.0951,152.06261 1250.10998,159.227408 C1254.12486,166.392206 1259.57354,171.907132 1266.45619,175.772352 C1273.33884,179.637572 1281.08171,181.570153 1289.68502,181.570153 C1302.87676,181.570153 1313.72633,177.23363 1322.23405,168.560453 Z M1548.9302,145.65207 L1428.77121,145.65207 C1430.87424,156.776361 1436.37072,165.590815 1445.2608,172.095698 C1454.15089,178.60058 1465.19165,181.852972 1478.38339,181.852972 C1495.20765,181.852972 1509.06833,176.385182 1519.96586,165.449438 L1539.17983,187.226544 C1532.29718,195.334078 1523.5984,201.461775 1513.08324,205.609815 C1502.56808,209.757855 1490.71481,211.831845 1477.52306,211.831845 C1460.69881,211.831845 1445.88222,208.532317 1433.07284,201.933161 C1420.26346,195.334005 1410.3698,186.142461 1403.39156,174.358254 C1396.41332,162.574047 1392.92425,149.234525 1392.92425,134.339287 C1392.92425,119.632597 1396.31773,106.387347 1403.10478,94.6031404 C1409.89184,82.8189334 1419.30755,73.6273898 1431.35219,67.028234 C1443.39682,60.429078 1456.97073,57.1295496 1472.07433,57.1295496 C1486.98674,57.1295496 1500.32167,60.381942 1512.07953,66.8868242 C1523.83739,73.3917064 1533.01412,82.5361138 1539.60999,94.3203208 C1546.20586,106.104528 1549.50375,119.726867 1549.50375,135.187746 C1549.50375,137.638861 1549.31257,141.126934 1548.9302,145.65207 Z M1442.9666,95.451599 C1435.03243,102.145029 1430.20509,111.053755 1428.48443,122.178047 L1515.37745,122.178047 C1513.84797,111.242303 1509.16402,102.380712 1501.32544,95.5930088 C1493.48687,88.8053056 1483.7366,85.4115048 1472.07433,85.4115048 C1460.60324,85.4115048 1450.90077,88.7581694 1442.9666,95.451599 Z M1694.18206,73.1088544 C1706.13111,83.7617774 1712.10554,99.8351946 1712.10554,121.329588 L1712.10554,209.852109 L1678.26602,209.852109 L1678.26602,191.468837 C1673.86877,198.067993 1667.60756,203.111559 1659.48221,206.599683 C1651.35686,210.087809 1641.55879,211.831845 1630.08771,211.831845 C1618.61662,211.831845 1608.57958,209.899265 1599.97626,206.034045 C1591.37295,202.168825 1584.72938,196.795306 1580.04536,189.91333 C1575.36133,183.031353 1573.01935,175.253893 1573.01935,166.580716 C1573.01935,153.00531 1578.13347,142.116866 1588.36185,133.915058 C1598.59023,125.71325 1614.6973,121.612408 1636.68355,121.612408 L1676.25859,121.612408 L1676.25859,119.349851 C1676.25859,108.791202 1673.05629,100.683789 1666.6516,95.0273696 C1660.24691,89.3709504 1650.73562,86.542783 1638.11742,86.542783 C1629.51411,86.542783 1621.05432,87.8625944 1612.73778,90.5022568 C1604.42125,93.1419192 1597.39531,96.8185366 1591.65977,101.532219 L1577.60776,75.79564 C1585.63752,69.7621262 1595.29221,65.1427862 1606.5721,61.937482 C1617.852,58.7321778 1629.80087,57.1295496 1642.41906,57.1295496 C1664.97886,57.1295496 1682.23302,62.4559312 1694.18206,73.1088544 Z M1661.48964,180.014645 C1668.46788,175.960878 1673.39081,170.163135 1676.25859,162.621243 L1676.25859,145.08643 L1639.26453,145.08643 C1618.61658,145.08643 1608.29276,151.77976 1608.29276,165.166619 C1608.29276,171.577227 1610.87371,176.667928 1616.0357,180.438874 C1621.19769,184.209821 1628.36701,186.095266 1637.54387,186.095266 C1646.52956,186.095266 1654.5114,184.068412 1661.48964,180.014645 Z M1820.50673,145.08643 L1793.8366,169.974551 L1793.8366,209.852109 L1757.98964,209.852109 L1757.98964,0 L1793.8366,0 L1793.8366,126.70316 L1868.11149,58.826467 L1911.12784,58.826467 L1847.17687,122.178047 L1917.15013,209.852109 L1873.56023,209.852109 L1820.50673,145.08643 Z" id="Netpeak-Copy" fill-rule="nonzero"></path>
                <g id="Group-2" transform="translate(0.000000, 300.000000)">
                    <path d="M159.6,426.72 C128.613178,426.72 98.653478,422.520042 69.72,414.12 C40.786522,405.719958 17.5467544,394.800067 0,381.36 L30.8,313.04 C47.600084,325.360062 67.5732176,335.253296 90.72,342.72 C113.866782,350.186704 137.013218,353.92 160.16,353.92 C185.920129,353.92 204.959938,350.093372 217.28,342.44 C229.600062,334.786628 235.76,324.613397 235.76,311.92 C235.76,302.58662 232.120036,294.840031 224.84,288.68 C217.559964,282.519969 208.226724,277.573352 196.84,273.84 C185.453276,270.106648 170.05343,266.000022 150.64,261.52 C120.773184,254.426631 96.3200952,247.333369 77.28,240.24 C58.2399048,233.146631 41.9067348,221.760078 28.28,206.08 C14.6532652,190.399922 7.84,169.493464 7.84,143.36 C7.84,120.586553 13.9999384,99.9600924 26.32,81.48 C38.6400616,62.9999076 57.2132092,48.3467208 82.04,37.52 C106.866791,26.6932792 137.199821,21.28 173.04,21.28 C198.053458,21.28 222.506547,24.2666368 246.4,30.24 C270.293453,36.2133632 291.19991,44.799944 309.12,56 L281.12,124.88 C244.906486,104.346564 208.693514,94.08 172.48,94.08 C147.093206,94.08 128.333394,98.1866256 116.2,106.4 C104.066606,114.613374 98,125.439933 98,138.88 C98,152.320067 104.99993,162.306634 119,168.84 C133.00007,175.373366 154.37319,181.813302 183.12,188.16 C212.986816,195.253369 237.439905,202.346631 256.48,209.44 C275.520095,216.533369 291.853265,227.733257 305.48,243.04 C319.106735,258.346743 325.92,279.066536 325.92,305.2 C325.92,327.600112 319.666729,348.039908 307.16,366.52 C294.653271,385.000092 275.893458,399.653279 250.88,410.48 C225.866542,421.306721 195.440179,426.72 159.6,426.72 Z M525.28,424.48 C493.546508,424.48 465.080126,417.8534 439.88,404.6 C414.679874,391.3466 394.986738,372.960118 380.8,349.44 C366.613262,325.919882 359.52,299.226816 359.52,269.36 C359.52,239.493184 366.613262,212.800118 380.8,189.28 C394.986738,165.759882 414.679874,147.3734 439.88,134.12 C465.080126,120.8666 493.546508,114.24 525.28,114.24 C557.013492,114.24 585.386542,120.8666 610.4,134.12 C635.413458,147.3734 655.013262,165.759882 669.2,189.28 C683.386738,212.800118 690.48,239.493184 690.48,269.36 C690.48,299.226816 683.386738,325.919882 669.2,349.44 C655.013262,372.960118 635.413458,391.3466 610.4,404.6 C585.386542,417.8534 557.013492,424.48 525.28,424.48 Z M525.28,352.8 C547.680112,352.8 566.066595,345.240076 580.44,330.12 C594.813405,314.999924 602,294.746794 602,269.36 C602,243.973206 594.813405,223.720076 580.44,208.6 C566.066595,193.479924 547.680112,185.92 525.28,185.92 C502.879888,185.92 484.400073,193.479924 469.84,208.6 C455.279927,223.720076 448,243.973206 448,269.36 C448,294.746794 455.279927,314.999924 469.84,330.12 C484.400073,345.240076 502.879888,352.8 525.28,352.8 Z M844.48,125.44 L921.76,125.44 L921.76,192.64 L846.72,192.64 L846.72,420 L759.36,420 L759.36,192.64 L712.88,192.64 L712.88,125.44 L759.36,125.44 L759.36,112 C759.36,77.6531616 769.533232,50.4001008 789.88,30.24 C810.226768,10.0798992 838.879815,0 875.84,0 C888.906732,0 901.319941,1.399986 913.08,4.2 C924.840059,7.000014 934.639961,11.0133072 942.48,16.24 L919.52,79.52 C909.43995,72.4266312 897.680067,68.88 884.24,68.88 C857.733201,68.88 844.48,83.4398544 844.48,112.56 L844.48,125.44 Z M1179.76,405.44 C1171.17329,411.786698 1160.62673,416.546651 1148.12,419.72 C1135.61327,422.893349 1122.4534,424.48 1108.64,424.48 C1072.79982,424.48 1045.0801,415.333425 1025.48,397.04 C1005.8799,378.746575 996.08,351.866844 996.08,316.4 L996.08,192.64 L949.6,192.64 L949.6,125.44 L996.08,125.44 L996.08,52.08 L1083.44,52.08 L1083.44,125.44 L1158.48,125.44 L1158.48,192.64 L1083.44,192.64 L1083.44,315.28 C1083.44,327.973397 1086.70663,337.773299 1093.24,344.68 C1099.77337,351.586701 1109.01327,355.04 1120.96,355.04 C1134.7734,355.04 1146.53328,351.306704 1156.24,343.84 L1179.76,405.44 Z M1712.88,118.72 L1603.68,420 L1519.68,420 L1451.92,232.96 L1381.92,420 L1297.92,420 L1189.28,118.72 L1271.6,118.72 L1342.72,322.56 L1416.64,118.72 L1490.56,118.72 L1562.24,322.56 L1635.6,118.72 L1712.88,118.72 Z M1875.28,114.24 C1921.9469,114.24 1957.78654,125.346556 1982.8,147.56 C2007.81346,169.773444 2020.32,203.279776 2020.32,248.08 L2020.32,420 L1938.56,420 L1938.56,382.48 C1922.13325,410.48014 1891.52022,424.48 1846.72,424.48 C1823.57322,424.48 1803.50675,420.560039 1786.52,412.72 C1769.53325,404.879961 1756.56004,394.053402 1747.6,380.24 C1738.63996,366.426598 1734.16,350.746754 1734.16,333.2 C1734.16,305.19986 1744.70656,283.173414 1765.8,267.12 C1786.89344,251.066586 1819.46645,243.04 1863.52,243.04 L1932.96,243.04 C1932.96,223.999905 1927.17339,209.346718 1915.6,199.08 C1904.02661,188.813282 1886.66678,183.68 1863.52,183.68 C1847.46659,183.68 1831.69341,186.199975 1816.2,191.24 C1800.70659,196.280025 1787.54672,203.09329 1776.72,211.68 L1745.36,150.64 C1761.78675,139.066609 1781.47989,130.106698 1804.44,123.76 C1827.40011,117.413302 1851.01321,114.24 1875.28,114.24 Z M1868.56,365.68 C1883.49341,365.68 1896.74661,362.226701 1908.32,355.32 C1919.89339,348.413299 1928.10664,338.240067 1932.96,324.8 L1932.96,294 L1873.04,294 C1837.19982,294 1819.28,305.759882 1819.28,329.28 C1819.28,340.480056 1823.66662,349.346634 1832.44,355.88 C1841.21338,362.413366 1853.25326,365.68 1868.56,365.68 Z M2182.72,158.48 C2193.17339,143.919927 2207.26658,132.906704 2225,125.44 C2242.73342,117.973296 2263.17322,114.24 2286.32,114.24 L2286.32,194.88 C2276.61328,194.13333 2270.08002,193.76 2266.72,193.76 C2241.70654,193.76 2222.10674,200.75993 2207.92,214.76 C2193.73326,228.76007 2186.64,249.75986 2186.64,277.76 L2186.64,420 L2099.28,420 L2099.28,118.72 L2182.72,118.72 L2182.72,158.48 Z M2635.76,270.48 C2635.76,271.600006 2635.20001,279.439927 2634.08,294 L2406.16,294 C2410.26669,312.66676 2419.97326,327.413279 2435.28,338.24 C2450.58674,349.066721 2469.62655,354.48 2492.4,354.48 C2508.08008,354.48 2521.98661,352.14669 2534.12,347.48 C2546.25339,342.81331 2557.54661,335.44005 2568,325.36 L2614.48,375.76 C2586.10652,408.240162 2544.66694,424.48 2490.16,424.48 C2456.1865,424.48 2426.13346,417.8534 2400,404.6 C2373.86654,391.3466 2353.70674,372.960118 2339.52,349.44 C2325.33326,325.919882 2318.24,299.226816 2318.24,269.36 C2318.24,239.866519 2325.23993,213.266785 2339.24,189.56 C2353.24007,165.853215 2372.46654,147.3734 2396.92,134.12 C2421.37346,120.8666 2448.71985,114.24 2478.96,114.24 C2508.45348,114.24 2535.14655,120.586603 2559.04,133.28 C2582.93345,145.973397 2601.69327,164.173215 2615.32,187.88 C2628.94673,211.586785 2635.76,239.119843 2635.76,270.48 Z M2479.52,180.32 C2459.73323,180.32 2443.12007,185.919944 2429.68,197.12 C2416.23993,208.320056 2408.02668,223.62657 2405.04,243.04 L2553.44,243.04 C2550.45332,223.999905 2542.24007,208.786724 2528.8,197.4 C2515.35993,186.013276 2498.93343,180.32 2479.52,180.32 Z" id="Software"></path>
                </g>
            </g>
            <g id="logo" transform="translate(780.000000, 0.000000)" fill-rule="nonzero">
                <g id="Rectangle-5-Copy">
                    <path d="M0,0 L168.459303,47.1969266 C236.356816,25.7493785 288.378806,0.0104858757 520.494129,0.0104858757 C752.609453,0.0104858757 792.218706,21.368904 872.064577,47.1969266 L1040,0 C1040,432.879232 1040,673.275797 1040,721.189695 C1040,793.061198 996.77791,1144.28167 520,1144.28167 C43.2220896,1144.28167 0,799.363209 0,720.947209 C0,668.668565 0,428.354576 0,0 Z" id="Shape" fill="#33A1FD"></path>
                    <g id="Group-12-Copy" transform="translate(128.059701, 212.338983)">
                        <path d="M578.208955,0 C496.800498,0 426.383184,47.6347119 392.587065,116.891299 C358.792239,47.6347119 288.373632,0 206.965174,0 C92.6608955,0 0,93.8931525 0,209.717514 C0,325.540565 92.6608955,419.435028 206.965174,419.435028 C247.97403,419.435028 286.195323,407.347435 318.353831,386.498893 L318.208955,386.666667 L391.940299,471.864407 L465.671642,386.666667 L463.771443,384.471186 C496.552139,406.557062 535.893632,419.435028 578.208955,419.435028 C692.51194,419.435028 785.174129,325.540565 785.174129,209.717514 C785.174129,93.8931525 692.51194,0 578.208955,0 Z" id="Shape" fill="#FFFFFF"></path>
                        <path d="M203.084577,70.779661 C182.613134,70.779661 163.224378,75.4629153 145.894925,83.8214689 C162.991542,93.0949153 174.626866,111.36 174.626866,132.384181 C174.626866,162.787977 150.303284,187.435028 120.298507,187.435028 C102.134726,187.435028 86.0638806,178.393582 76.199403,164.519458 C72.0820896,177.527186 69.8507463,191.392136 69.8507463,205.785311 C69.8507463,280.347751 129.50199,340.79096 203.084577,340.79096 C276.667164,340.79096 336.318408,280.347751 336.318408,205.785311 C336.318408,131.224181 276.667164,70.779661 203.084577,70.779661 Z" id="Shape_1_" fill="#172A3A"></path>
                        <path d="M582.089552,70.779661 C561.619403,70.779661 542.229353,75.4629153 524.898607,83.8214689 C541.997811,93.0936045 553.631841,111.36 553.631841,132.384181 C553.631841,162.787977 529.308259,187.435028 499.303483,187.435028 C481.138408,187.435028 465.068856,178.393582 455.204378,164.519458 C451.088358,177.527186 448.855721,191.392136 448.855721,205.785311 C448.855721,280.347751 508.505672,340.79096 582.089552,340.79096 C655.673433,340.79096 715.323383,280.347751 715.323383,205.785311 C715.323383,131.224181 655.673433,70.779661 582.089552,70.779661 Z" id="Shape_2_" fill="#172A3A"></path>
                    </g>
                    <polygon id="Triangle" fill="#33A1FD" points="520 719.59322 767.064677 1160 272.935323 1160"></polygon>
                    <polygon id="Triangle-Copy" fill="#FFFFFF" points="520 782.508475 720.497512 1135.09605 319.502488 1135.09605"></polygon>
                </g>
                <rect id="Rectangle-6" fill="#33A1FD" x="394.527363" y="934.553672" width="250.945274" height="60.2937853"></rect>
            </g>
        </g>
    </g>
</svg>