<?xml version="1.0" encoding="iso-8859-1"?>
<!-- Generator: Adobe Illustrator 19.0.0, SVG Export Plug-In . SVG Version: 6.00 Build 0)  -->
<svg xmlns="http://www.w3.org/2000/svg" xmlns:xlink="http://www.w3.org/1999/xlink" version="1.1" id="Capa_1" x="0px" y="0px" viewBox="0 0 512 512" style="enable-background:new 0 0 512 512;" xml:space="preserve" width="512px" height="512px">
<g>
	<g>
		<g>
			<path d="M186.999,366.933c1.518,0,3.008-0.406,4.317-1.175c12.513-6.628,23.229-16.197,31.225-27.883     c9.067-15.942,8.35-32.642-1.783-41.554c-5.943-5.036-13.82-7.167-21.492-5.813c-4.484,0.746-8.704,2.618-12.267,5.442     c-3.562-2.823-7.783-4.696-12.267-5.442c-7.672-1.353-15.548,0.777-21.492,5.813c-10.133,8.912-10.85,25.612-1.908,41.333     c7.999,11.788,18.762,21.438,31.35,28.108C183.992,366.529,185.481,366.933,186.999,366.933z M166.29,329.442     c-5.442-9.571-5.017-17.463-1.783-20.304c1.621-1.298,3.649-1.983,5.725-1.933c0.558-0.002,1.116,0.044,1.667,0.138     c3.326,0.621,6.17,2.765,7.683,5.792c1.641,2.497,4.429,4,7.417,4s5.775-1.503,7.417-4c1.513-3.027,4.357-5.17,7.683-5.792     c2.607-0.49,5.3,0.164,7.392,1.796c3.233,2.842,3.658,10.733-1.9,20.521c-5.355,7.726-12.397,14.133-20.592,18.737     C178.732,343.752,171.646,337.266,166.29,329.442z" fill="#FFFFFF"/>
			<path d="M341.69,296.321c-5.945-5.034-13.82-7.164-21.492-5.812c-4.484,0.746-8.704,2.618-12.267,5.442     c-3.562-2.823-7.783-4.696-12.267-5.442c-7.672-1.354-15.548,0.776-21.492,5.813c-10.133,8.912-10.85,25.612-1.9,41.338     c8,11.782,18.76,21.428,31.342,28.1c2.665,1.565,5.967,1.567,8.633,0.004c12.518-6.624,23.234-16.196,31.225-27.888     C352.541,321.933,351.824,305.233,341.69,296.321z M328.516,329.662L328.516,329.662c-5.348,7.729-12.387,14.136-20.583,18.734     c-8.263-4.648-15.349-11.133-20.708-18.954c-5.442-9.571-5.017-17.463-1.783-20.304c1.621-1.298,3.649-1.983,5.725-1.933     c0.558-0.002,1.116,0.044,1.667,0.137c3.326,0.621,6.17,2.765,7.683,5.792c1.641,2.497,4.429,4,7.417,4     c2.988,0,5.775-1.503,7.417-4c1.513-3.027,4.357-5.17,7.683-5.792c2.607-0.49,5.3,0.164,7.392,1.796     C333.657,311.979,334.082,319.871,328.516,329.662z" fill="#FFFFFF"/>
			<path d="M422.749,71.659c-0.072-0.064-0.1-0.155-0.174-0.217l-0.067-0.036c-22.118-23.192-48.816-41.532-78.399-53.858     l-0.076-0.043l-0.049-0.006C287.646-5.833,224.348-5.833,168.012,17.499l-0.037,0.005l-0.057,0.033     c-29.594,12.325-56.301,30.67-78.426,53.868l-0.067,0.036c-0.074,0.062-0.102,0.153-0.174,0.217     C48.375,114.396,25.573,171.262,25.599,230.4c0,7.083,0.292,13.621,0.85,19.283c0,0.063,0.034,0.114,0.035,0.176     c-0.558,4.759-0.853,9.545-0.885,14.336v113.296c-0.257,25.095,18.589,46.281,43.544,48.95     c2.78,17.225,15.008,55.604,67.39,59.474v17.551c-0.001,2.263,0.898,4.434,2.499,6.035c1.6,1.6,3.771,2.499,6.035,2.499h204.8     c2.263,0.001,4.434-0.898,6.035-2.499c1.6-1.6,2.499-3.771,2.499-6.035v-17.551c52.326-3.866,64.583-42.165,67.38-59.418     c9.561-0.409,18.435-5.079,24.186-12.728c17.663-23.343,27.435-51.702,27.9-80.97c0-11.192-0.023-23.836-0.958-36.951     C500.348,216.813,479.685,131.277,422.749,71.659z M346.451,37.25c21.9,10.306,41.896,24.249,59.138,41.237l-38.341,46.008     c-6.682-5.468-13.85-10.313-21.415-14.474c-6.603-3.613-13.424-6.811-20.424-9.577L346.451,37.25z M264.532,17.283     c22.616,0.875,44.946,5.366,66.142,13.302l-21.4,64.268c-2.516-0.772-5.007-1.57-7.592-2.266     c-12.167-3.244-24.6-5.393-37.15-6.423V17.283z M247.465,17.283v68.109c-15.569-0.083-31.104,1.474-46.347,4.645l-19.795-59.452     C202.519,22.649,224.849,18.158,247.465,17.283z M165.547,37.25l18.945,56.9c-16.83,4.849-33.085,11.51-48.478,19.866     l-29.605-35.529C123.651,61.499,143.646,47.556,165.547,37.25z M94.664,91.058L94.664,91.058l26.433,31.723     c-26.878,17.1-50.517,38.822-69.823,64.161c-1.982,2.589-3.843,5.271-5.609,8.018C52.154,156.486,69.106,120.539,94.664,91.058z      M42.665,377.492V264.196c-0.117-24.115,7.665-47.605,22.158-66.879c19.596-25.792,43.984-47.562,71.827-64.115     c1.078-0.314,2.083-0.841,2.956-1.548c0.058-0.048,0.08-0.12,0.137-0.171c17.768-10.19,36.846-17.901,56.704-22.919     c0.59-0.032,1.174-0.128,1.743-0.286c0.105-0.035,0.173-0.12,0.276-0.158c15.672-3.788,31.735-5.722,47.858-5.763     c17.196-0.015,34.319,2.24,50.925,6.708c14.038,3.669,27.584,9.008,40.35,15.904c8.737,4.793,16.849,10.647,24.149,17.43     c0.247,0.365,0.523,0.708,0.826,1.028c0.182,0.151,0.402,0.204,0.592,0.337c9.115,8.531,15.825,19.31,19.458,31.254     c2.893,10.193,2.05,21.084-2.378,30.71c-1.128,0.533-2.123,1.309-2.914,2.273c-0.976,1.287-1.555,2.831-1.666,4.442l-0.009,0.012     c-5.126,4.983-11.886,7.94-19.025,8.321c-6.747,0.601-13.529,0.705-20.292,0.312c-4.225-0.137-8.342-0.279-12.233-0.192     c-15.225,0.321-30.566,1.9-45.408,3.421l-1.75,0.183c-36.713,2.885-72.955,10.112-107.966,21.529     c-16.009,5.667-64.708,22.921-64.708,63.721v67.738c0.333,17.364-13.446,31.724-30.808,32.108     C56.106,409.212,42.332,394.853,42.665,377.492z M380.199,300.1c-15.601-10.402-15.522-46.633-13.881-63.82     c7.14-1.642,13.754-5.05,19.235-9.912c33.056,32.225,42.639,81.582,24.045,123.836v-0.337     C409.599,340.842,409.599,319.7,380.199,300.1z M341.332,494.933H153.599V486.4h187.733V494.933z M349.865,469.333h-204.8     c-46.717,0-56.912-30.192-59.123-44.419c21.087-6.098,35.549-25.472,35.398-47.422v-67.738c0-19.338,17.45-34.921,53.342-47.638     c33.737-10.946,68.648-17.873,104.008-20.637l1.75-0.179c14.5-1.487,29.5-3.029,44.025-3.333     c3.642-0.071,7.417,0.054,11.317,0.179c4.318,0.145,8.743,0.208,13.197,0.125c-1.505,18.911-1.836,60.305,21.753,76.03     c21.8,14.533,21.8,27.7,21.8,35.567v44.971c0,1.35,0.092,2.6,0.25,4.367c1.482,9.99,7.585,18.697,16.471,23.496     C407.743,435.248,399.128,469.333,349.865,469.333z M436.283,403.576c-3.525,4.779-9.562,6.993-15.341,5.628     s-10.186-6.047-11.2-11.898c-0.067-0.8-0.142-1.6-0.142-2.467v-8.391c57.599-88.85,5.556-154.13-13.746-173.681     c4.162-8.841,6.034-18.587,5.442-28.341c35.304,26.373,56.804,67.283,58.505,111.317c1,12.896,1,25.179,1,37.058     C460.34,358.395,451.754,383.181,436.283,403.576z M468.359,249.854c-12.793-38.141-38.89-70.402-73.517-90.881     c-3.911-8.266-9.063-15.885-15.278-22.592l37.769-45.323c33.563,38.661,52.029,88.145,51.999,139.342     C469.332,236.931,468.939,243.409,468.359,249.854z" fill="#FFFFFF"/>
			<path d="M197.407,170.592c4.665-0.633,7.936-4.924,7.311-9.59c-0.625-4.666-4.91-7.944-9.577-7.327     c-1.358,0.179-135.408,20.188-135.408,204.725c0,4.713,3.82,8.533,8.533,8.533s8.533-3.82,8.533-8.533     C76.799,189.408,192.307,171.3,197.407,170.592z" fill="#FFFFFF"/>
			<path d="M355.157,393.213c-1.045,0.413-2.001,1.022-2.817,1.796c-3.313,3.34-3.298,8.73,0.032,12.052     c3.331,3.322,8.721,3.322,12.052,0c3.331-3.322,3.345-8.712,0.033-12.052C361.986,392.622,358.339,391.918,355.157,393.213z" fill="#FFFFFF"/>
			<path d="M307.199,392.533H187.732c-9.421,0.011-17.056,7.646-17.067,17.067v17.067c0.011,9.421,7.645,17.056,17.067,17.067     h119.467c9.421-0.011,17.056-7.645,17.067-17.067V409.6C324.255,400.179,316.62,392.544,307.199,392.533z M204.799,426.667     h-17.067V409.6h17.067V426.667z M238.932,426.667h-17.067V409.6h17.067V426.667z M273.065,426.667h-17.067V409.6h17.067V426.667z      M290.132,426.667V409.6h17.067l0.009,17.067H290.132z" fill="#FFFFFF"/>
		</g>
	</g>
</g>
<g>
</g>
<g>
</g>
<g>
</g>
<g>
</g>
<g>
</g>
<g>
</g>
<g>
</g>
<g>
</g>
<g>
</g>
<g>
</g>
<g>
</g>
<g>
</g>
<g>
</g>
<g>
</g>
<g>
</g>
</svg>
