<svg xmlns="http://www.w3.org/2000/svg" width="196" height="51"><path d="M0 0h3.037v14.9c1.278-1.936 3.25-3.011 5.487-3.011 2.451 0 4.476 1.667 4.476 4.626V39H9.963V17.214c0-1.721-1.225-2.744-2.61-2.744-2.398 0-4.316 1.668-4.316 4.465V39H0V0zm20.05 23.906h6.9v-5.794c0-2.445-1.55-3.561-3.476-3.561-1.873 0-3.425 1.116-3.425 3.561v5.794zm0 2.55v6.485c0 2.233 1.55 3.508 3.424 3.508 1.925 0 3.477-1.275 3.477-3.508v-2.604H30v2.604C30 36.821 27.057 39 23.474 39 19.889 39 17 36.82 17 32.941V18.112C17 14.232 19.889 12 23.474 12 27.057 12 30 14.232 30 18.112v8.345h-9.95zm21.477-.212c-1.926.265-3.478 1.328-3.478 3.561v4.093c0 1.647 1.124 2.55 2.461 2.55 2.194 0 4.44-1.648 4.44-4.411v-6.218l-3.423.425zm3.424 9.78C43.72 37.99 41.419 39 39.28 39 36.926 39 35 37.405 35 34.588v-4.783c0-3.88 2.675-5.635 5.992-6.059l3.959-.478v-5.209c0-2.233-1.499-3.508-3.424-3.508-1.926 0-3.478 1.275-3.478 3.508v2.605H35v-2.605C35 14.18 37.942 12 41.527 12 45.11 12 48 14.179 48 18.06v20.727h-3.05v-2.764zM52 39h3V0h-3zm17-.317c-.485.105-1.347.317-2.64.317-3.504 0-6.36-2.168-6.36-6.081V6h3.072v6.347H69v2.538h-5.928v18.034c0 2.22 1.563 3.542 3.61 3.542.97 0 1.833-.211 2.318-.37v2.592zM73 0h3.037v14.9c1.278-1.936 3.25-3.011 5.487-3.011 2.451 0 4.476 1.667 4.476 4.626V39h-3.037V17.214c0-1.721-1.225-2.744-2.61-2.744-2.398 0-4.316 1.668-4.316 4.465V39H73V0zm20.05 43.028v1.82c0 2.246 1.55 3.584 3.477 3.584 1.926 0 3.424-1.338 3.424-3.585v-8.88a6.408 6.408 0 0 1-5.458 2.996c-2.46 0-4.493-1.658-4.493-4.602V12h3.05v21.666c0 1.765 1.176 2.728 2.62 2.728 2.409 0 4.28-1.658 4.28-4.44V12H103v32.847c0 3.905-2.89 6.153-6.473 6.153C92.943 51 90 48.752 90 44.847v-1.819h3.05zm26-10.088c0 2.233 1.55 3.508 3.422 3.508 1.926 0 3.478-1.275 3.478-3.507V18.11c0-2.231-1.552-3.56-3.478-3.56-1.873 0-3.423 1.329-3.423 3.56v14.83zM129 18.113V32.94c0 3.88-2.943 6.059-6.528 6.059-3.584 0-6.472-2.18-6.472-6.06V18.113c0-3.88 2.888-6.112 6.472-6.112 3.585 0 6.528 2.232 6.528 6.112zm4-11.96C133 2.193 135.857 0 139.36 0c1.292 0 2.154.215 2.64.321v2.622a7.66 7.66 0 0 0-2.317-.375c-2.049 0-3.612 1.338-3.612 3.585v6.099H142v2.567h-5.929V39H133V6.153zm13 0C146 2.193 148.857 0 152.36 0c1.292 0 2.154.215 2.64.321v2.622a7.66 7.66 0 0 0-2.317-.375c-2.049 0-3.612 1.338-3.612 3.585v6.099H155v2.567h-5.929V39H146V6.153zM158 39h3V12.572h-3V39zm0-32.032h3V2h-3v4.968zM169.125 33.1c0 2.127 1.483 3.35 3.347 3.35 1.865 0 3.401-1.223 3.401-3.35v-2.763H179V33.1c0 3.774-2.962 5.9-6.528 5.9-3.565 0-6.472-2.126-6.472-5.9V17.953c0-3.774 2.907-5.953 6.472-5.953 3.566 0 6.528 2.18 6.528 5.953v2.71h-3.127v-2.71c0-2.127-1.536-3.402-3.4-3.402-1.865 0-3.348 1.275-3.348 3.402V33.1zm16.923-9.194h6.902v-5.794c0-2.445-1.551-3.561-3.476-3.561-1.874 0-3.426 1.116-3.426 3.561v5.794zm0 2.55v6.485c0 2.233 1.552 3.508 3.426 3.508 1.925 0 3.476-1.275 3.476-3.508v-2.604H196v2.604c0 3.88-2.942 6.059-6.526 6.059-3.585 0-6.474-2.18-6.474-6.059V18.112c0-3.88 2.889-6.112 6.474-6.112 3.584 0 6.526 2.232 6.526 6.112v8.345h-9.952z" fill="#1D1D1D" fill-rule="evenodd"/></svg>