<svg xmlns="http://www.w3.org/2000/svg" viewBox="0 0 240 60"><g fill-rule="evenodd" clip-rule="evenodd"><path d="M0 37.7c0-7.7 7.1-11 21.8-11.2h.9v-.7c0-5-2.8-7.8-8-7.8-4.9 0-7.8 2.6-9.3 5.7 0 .1-4.1 0-4.1-3.3 0-3.2 4.7-7.9 13.9-7.9s14.2 4.8 14.2 13.2V46c0 .3-1.2.8-2.4.8-2.3 0-4-1.3-4.1-5.3-2.5 3.6-6.8 5.7-11.7 5.7C4.1 47.2 0 43.4 0 37.7zm22.6-4.3c0 5.2-4.2 9-10 9-3.9 0-6.1-1.9-6.1-4.8 0-4.5 4.8-6.3 14.3-6.6l1.8-.1v2.5zm48.1-3.3c0-10.1 7-17.5 16.6-17.5 9.4 0 15.6 6.8 15.6 16.6v.6c0 1.4-.4 2-2 2H77c.4 6.1 4.9 10.2 11 10.2 5.7 0 8.5-2.6 10.2-5.5.1-.1 3.5.5 3.5 3.4s-5 7.5-13.9 7.5c-10.2 0-17.1-7-17.1-17.3zm6.3-3h19.5c-.3-5.7-3.8-9.4-9.2-9.4-5.4-.1-9.5 3.8-10.3 9.4zm35.6-8.8c2.2-3.4 5.8-5.9 10.8-5.9 8.6 0 12.6 6 12.6 14.2v16.8c0 2.5-1.3 3.2-3 3.2h-.8c-1.8 0-3-.8-3-3.2v-16c0-5.6-2.8-9-7.5-9-4.2 0-7.5 2.3-9.1 5.8v19.2c0 2.5-1.3 3.2-3 3.2h-.8c-1.8 0-3-.8-3-3.2V13.7c0-.2 1.1-.8 2.4-.8 2.1.1 4.1 1.1 4.4 5.4zm26.1 11.6c0-10.5 6.4-17.4 15.4-17.4 5.2 0 9.2 2.5 11.1 5.4V.8c0-.2 1.1-.8 2.4-.8 2.1 0 4.2 1.1 4.2 5.9v37.5c0 2.5-1.2 3.2-3 3.2h-.7c-1.8 0-3-.8-3-3.2v-2.6c-2.6 4-6.3 6.4-11.4 6.4-8.6.2-15-6.8-15-17.3zm26.6 2.1v-7c-1.7-4.2-5-6.8-10-6.8-6.1 0-10.1 4.7-10.1 11.8 0 6.9 4.2 11.8 10 11.8 5.4-.1 10.1-4.2 10.1-9.8zm9.3-27.3c0-3 1.8-4.7 4.9-4.7 3 0 4.7 1.7 4.7 4.7s-1.7 4.6-4.8 4.6c-3 0-4.8-1.6-4.8-4.6zm1.5 38.8V16.3c0-2.5 1.3-3.3 3-3.3h.7c1.8 0 3 .8 3 3.3v27.2c0 2.5-1.2 3.2-3 3.2h-.7c-1.8 0-3-.8-3-3.2zm9.4-25.7v-.5c0-1.7.8-2.5 3-2.5h3.8v-2.5C192.3 4 196.2.1 202.6.1c5 0 7.3 2.1 7.3 4.5 0 1.9-1.5 3.1-1.6 3-.9-1-2.8-1.9-4.9-1.9-3.2 0-4.7 2.1-4.7 6.8v2.4h5.5c2.2 0 3 .9 3 2.6v.5c0 1.7-.8 2.6-3 2.6h-5.3v23c0 2.5-1.1 3.2-2.9 3.2h-.7c-1.8 0-3-.8-3-3.2v-23h-3.8c-2.2-.2-3-1.1-3-2.8zM217 58l5.4-13.4c-1.5-.1-2.3-.6-2.8-1.9L207.9 15c-.1-.4 1.3-2 3.5-2 1.9 0 3.2.9 4.2 3.9l8.8 22.9 7.8-22.7c.9-3 2.4-4 4.2-4s3.7 1.5 3.5 1.9l-15.3 41.3c-1.1 3-2.6 3.8-4.1 3.8-1.8-.2-3.6-1.7-3.5-2.1z" fill="#3a424d"/><path d="M50.3 14.7c-.1 0-.2-.1-.3-.1.2 0 .4 0 .6.1h-.3zm-3-.1c-1.1.4-1.7 1.4-1.7 2.7s.5 2.2 1.5 2.6h-4.8v16.2c0 4 1.1 5.9 4.3 5.9 2.1 0 3.6-.9 4.6-2.2.2-.2 1.9.7 1.9 2.8 0 2.5-2.8 4.9-7.6 4.9-6.7 0-9.8-3.7-9.8-10.6V20h-2.3c-2.1 0-2.9-.9-2.9-2.5v-.4c0-1.6.8-2.5 2.9-2.5h13.9zm3 5.3c.1 0 .1-.1.2-.1h.2c-.2 0-.3.1-.4.1zm-.1 0c1-.4 1.5-1.3 1.5-2.6 0-1.4-.7-2.4-1.8-2.8H68c2.1 0 2.8.7 2.8 2.4v.4c0 1.7-.8 2.6-2.9 2.6h-7.3v16.2c0 4 1.1 5.9 4.3 5.9 2.1 0 3.6-.9 4.6-2.2.2-.2 1.9.7 1.9 2.8 0 2.5-2.8 4.9-7.6 4.9-6.7 0-9.8-3.7-9.8-10.6v-17h-3.8zm2.8-11c0-2.9 1.9-4.5 5-4.5 3 0 4.7 1.6 4.7 4.5s-1.7 4.4-4.8 4.4c-3.1 0-4.9-1.6-4.9-4.4zm-19.2 0c0-2.9 1.8-4.5 4.9-4.5 3 0 4.7 1.6 4.7 4.5s-1.7 4.4-4.8 4.4c-3 0-4.8-1.6-4.8-4.4z" fill="#268bff"/><path d="M46.5 17.3c0-1.3.8-2 2.1-2s2.1.7 2.1 2-.8 2-2.1 2-2.1-.7-2.1-2z" fill="#1072e1"/></g></svg>