<svg version="1.1" id="Lager_1" xmlns="http://www.w3.org/2000/svg" x="0" y="0" viewBox="0 0 260.1 72" xml:space="preserve"><style>.st0{fill:#231f20}</style><path class="st0" d="M86.1 51h23c4.9 0 8.9-3.7 8.9-8.3V41c0-4.5-3.8-8.2-8.6-8.3H93.8c-1.3 0-2.4-1-2.4-2.3v-1.5c0-1.3 1.1-2.3 2.4-2.3h22.5v-6H93.8c-4.9 0-8.9 3.7-8.9 8.3v1.5c0 4.6 4 8.3 8.9 8.3h15.4c1.3 0 2.4 1 2.4 2.3v1.6c0 1.3-1.1 2.3-2.4 2.3h-23V51zm39.5-.1h6.4V20.5h-6.4v30.4zm90.1 0h6.4v-22c0-4.6-4-8.3-8.9-8.3h-32.1V51h6.4V26.6h10.7v24.3h6.4V26.6h8.5c1.3 0 2.4 1 2.4 2.3l.2 22zm44.4-22c0-4.6-4-8.3-8.9-8.3h-20.4v6.1h20.4c1.4 0 2.4 1 2.4 2.3v3.8h-16.2c-4.9 0-8.9 3.7-8.9 8.4v1.5c0 4.6 4 8.4 8.9 8.4H260l.1-22.2zm-6.5 16h-16.2c-1.3 0-2.4-1-2.4-2.3V41c0-1.3 1.1-2.3 2.4-2.3h16.2v6.2zm-112.8-2.3c0 4.6 4 8.3 8.9 8.3h22.7V32.7h-16.9v6.1H166v6.1h-16.2c-1.3 0-2.4-1-2.4-2.3V28.9c0-1.3 1.1-2.3 2.4-2.3h22.6v-6.1h-22.6c-4.9 0-8.9 3.7-8.9 8.4l-.1 13.7z"/><linearGradient id="SVGID_1_" gradientUnits="userSpaceOnUse" x1="38.821" y1="57.18" x2="18.522" y2="16.373"><stop offset=".006" stop-color="#e01f27"/><stop offset=".681" stop-color="#ed2924"/></linearGradient><path d="M35.6 0c-5.1 0-9.3 10.4-10.8 24.8C10.4 26.2 0 30.5 0 35.6c0 5.1 10.4 9.3 24.8 10.8 1.5 14.4 5.7 24.8 10.8 24.8 6.3 0 11.3-15.9 11.3-35.6C46.9 15.9 41.8 0 35.6 0z" fill="url(#SVGID_1_)"/><linearGradient id="SVGID_2_" gradientUnits="userSpaceOnUse" x1="40.793" y1="28.016" x2="52.931" y2="49.041"><stop offset="0" stop-color="#595959"/><stop offset=".208" stop-color="#424242"/><stop offset=".53" stop-color="#232323"/><stop offset=".806" stop-color="#111"/><stop offset="1" stop-color="#0a0a0a"/></linearGradient><path d="M46.4 24.8L24.8 46.4c3.4.3 7 .5 10.8.5 19.7 0 35.6-5.1 35.6-11.3 0-5.1-10.4-9.4-24.8-10.8z" fill="url(#SVGID_2_)"/><path d="M46.4 24.8L24.8 46.4c3.4.3 7 .5 10.8.5 3.8 0 7.4-.2 10.8-.5.3-3.4.5-7 .5-10.8 0-3.8-.2-7.4-.5-10.8z" fill="#690000"/><path d="M24.8 46.4l21.6-21.6c-3.4-.3-7-.5-10.8-.5-3.8 0-7.4.2-10.8.5-.3 3.4-.5 7-.5 10.8 0 3.8.1 7.4.5 10.8z" fill="#a40d12"/><path class="st0" d="M86.9 71.5v-1.2h.1c.6.2 2 .5 2.8.5h.5c1.4 0 2.4-.5 2.4-2 0-1.2-.6-1.6-1.7-1.9l-1.5-.4c-1.1-.3-2.5-1-2.5-3 0-1.8 1.4-3.1 3.7-3.1h.3c.8 0 2.1.2 2.6.5v1.2h-.1c-.5-.2-1.7-.4-2.5-.4h-.3c-1.4 0-2.3.5-2.3 1.8 0 1.2.8 1.5 1.7 1.8l1.5.4c1.2.3 2.5.9 2.5 3.1 0 2-1.4 3.2-3.8 3.2h-.5c-.9 0-2.4-.3-2.9-.5zm9.3-3.9c0-2.5 1.2-4.1 3.6-4.1 2.5 0 3.6 1.7 3.6 4.1 0 2.7-1.2 4.4-3.6 4.4-2.5 0-3.6-1.7-3.6-4.4zm6 0c0-1.8-.5-3-2.3-3-1.8 0-2.3 1.1-2.3 3 0 1.8.5 3.2 2.3 3.2 1.7 0 2.3-1.3 2.3-3.2zm4.3-2.8h-1.3v-1.2h1.3v-.3c0-1.8 1.1-2.7 2.7-2.7h.9v1.2h-.9c-1.1 0-1.4.5-1.4 1.5v.3h2.1v1.2h-2.1v7.1h-1.3v-7.1zm8.9 7.1c-1.8 0-2.8-.8-2.8-2.8v-4.3h-1.3v-1.2h1.3v-1.9h1.3v1.9h2.4v1.2h-2.4v4c0 1.5.5 1.9 1.8 1.9h.8v1.2h-1.1zm2.8-6.2v-2.1h1.3v2.1c0 2.4.8 4.3 1.5 5.2.7-.9 1.5-2.8 1.5-5.2v-2.1h1.3v2.1c0 2.4.8 4.3 1.5 5.2.7-.9 1.5-2.8 1.5-5.2v-2.1h1.3v2.1c0 2.8-1.2 5.3-2 6.1h-1.4c-.4-.5-1.3-2-1.5-2.8-.2.9-1.1 2.4-1.5 2.8h-1.4c-.9-.8-2.1-3.2-2.1-6.1zm12 3.5v-1.3c0-2.6 2.1-4.3 4.4-4.3h2.2v8.3h-1.3v-1.5l-.6.6c-.6.6-1.3 1.1-2.4 1.1-1.2-.1-2.3-.9-2.3-2.9zm5.3-.2v-4.3h-.9c-1.8 0-3.1 1.2-3.1 3.1v1.3c0 1.3.6 1.7 1.3 1.7.8 0 1.8-.8 2.3-1.3l.4-.5zm4.6-5.4h1.3v1.8l.1-.2c.6-1 1.3-1.7 2.4-1.7h.5V65h-.6c-.6 0-1.2.2-1.5.6l-.9.9v5.3h-1.3v-8.2zm6 5.1V67c0-2.3 1.5-3.6 3.5-3.6 1.7 0 2.8.7 2.8 2.4 0 1.5-.9 2.4-2.6 2.4h-2.5v.5c0 1.5.9 2.1 2.2 2.1.9 0 1.9-.4 2.2-.5h.1v1.2c-.3.2-1.4.5-2.4.5-1.8 0-3.3-1-3.3-3.3zm1.3-1.6h2.1c1.3 0 1.7-.5 1.7-1.3 0-.9-.6-1.2-1.5-1.2-1.4 0-2.2.7-2.2 2.4v.1z"/></svg>