<svg width="2636" height="2007" xmlns="http://www.w3.org/2000/svg"><g fill="none" fill-rule="evenodd"><g fill="#172A3A"><path d="M858.374 1291.878v197.974H827.69l-110.695-134.056v134.056H680v-197.974h30.685l110.695 134.057v-134.057h36.994zm193.86 133.774H932.077c2.103 11.124 7.6 19.939 16.49 26.444 8.89 6.505 19.93 9.757 33.122 9.757 16.824 0 30.685-5.468 41.582-16.404l19.214 21.778c-6.882 8.107-15.581 14.235-26.096 18.383s-22.369 6.222-35.56 6.222c-16.825 0-31.641-3.3-44.45-9.899-12.81-6.599-22.704-15.79-29.682-27.575-6.978-11.784-10.467-25.123-10.467-40.019 0-14.706 3.393-27.952 10.18-39.736 6.787-11.784 16.203-20.976 28.248-27.575 12.044-6.599 25.618-9.898 40.722-9.898 14.912 0 28.247 3.252 40.005 9.757 11.758 6.505 20.935 15.65 27.53 27.433 6.596 11.785 9.894 25.407 9.894 40.868 0 2.45-.19 5.939-.573 10.464zm-105.963-50.2c-7.934 6.693-12.761 15.602-14.482 26.726h86.893c-1.53-10.936-6.213-19.797-14.052-26.585-7.839-6.788-17.589-10.181-29.251-10.181-11.471 0-21.174 3.346-29.108 10.04zm233.005 106.198c-4.206 3.394-9.32 5.94-15.342 7.636-6.022 1.697-12.38 2.546-19.07 2.546-16.825 0-29.825-4.337-39.002-13.01-9.177-8.673-13.765-21.306-13.765-37.898v-72.684h-25.237v-28.282h25.237v-34.504h35.847v34.504h41.008v28.282h-41.008v71.836c0 7.353 1.816 12.962 5.448 16.828 3.633 3.865 8.89 5.797 15.773 5.797 8.03 0 14.721-2.074 20.074-6.222l10.037 25.171zm154.43-134.905c11.757 6.411 20.981 15.461 27.673 27.151 6.691 11.69 10.037 25.171 10.037 40.443 0 15.273-3.346 28.8-10.037 40.585-6.692 11.784-15.916 20.881-27.674 27.292-11.758 6.41-25.093 9.616-40.005 9.616-20.648 0-36.994-6.788-49.039-20.363v73.25h-35.847v-205.893h34.127v19.798c5.926-7.165 13.239-12.538 21.938-16.12 8.699-3.583 18.306-5.374 28.82-5.374 14.913 0 28.248 3.205 40.006 9.615zm-11.472 101.815c8.508-8.673 12.762-20.08 12.762-34.22 0-14.142-4.254-25.549-12.762-34.222-8.508-8.673-19.357-13.01-32.549-13.01-8.603 0-16.346 1.933-23.229 5.798-6.882 3.865-12.331 9.38-16.346 16.545-4.015 7.165-6.022 15.46-6.022 24.888s2.007 17.724 6.022 24.888c4.015 7.165 9.464 12.68 16.346 16.545 6.883 3.866 14.626 5.798 23.229 5.798 13.192 0 24.041-4.336 32.55-13.01zm226.696-22.908h-120.159c2.103 11.124 7.6 19.939 16.49 26.444 8.89 6.505 19.93 9.757 33.122 9.757 16.825 0 30.685-5.468 41.583-16.404l19.214 21.778c-6.883 8.107-15.582 14.235-26.097 18.383s-22.368 6.222-35.56 6.222c-16.824 0-31.64-3.3-44.45-9.899-12.81-6.599-22.703-15.79-29.681-27.575-6.979-11.784-10.468-25.123-10.468-40.019 0-14.706 3.394-27.952 10.18-39.736 6.788-11.784 16.204-20.976 28.248-27.575 12.045-6.599 25.619-9.898 40.722-9.898 14.913 0 28.248 3.252 40.006 9.757 11.757 6.505 20.934 15.65 27.53 27.433 6.596 11.785 9.894 25.407 9.894 40.868 0 2.45-.191 5.939-.574 10.464zm-105.963-50.2c-7.935 6.693-12.762 15.602-14.483 26.726h86.893c-1.529-10.936-6.213-19.797-14.052-26.585-7.838-6.788-17.588-10.181-29.25-10.181-11.472 0-21.174 3.346-29.108 10.04zm251.215-22.343c11.95 10.653 17.924 26.726 17.924 48.22v88.523h-33.84v-18.383c-4.397 6.599-10.658 11.643-18.784 15.13-8.125 3.489-17.923 5.233-29.394 5.233s-21.508-1.933-30.112-5.798c-8.603-3.865-15.247-9.239-19.93-16.12-4.685-6.883-7.027-14.66-7.027-23.333 0-13.576 5.114-24.464 15.343-32.666 10.228-8.202 26.335-12.303 48.322-12.303h39.575v-2.262c0-10.559-3.203-18.666-9.607-24.323-6.405-5.656-15.916-8.484-28.535-8.484-8.603 0-17.063 1.32-25.38 3.96-8.316 2.639-15.342 6.316-21.077 11.03l-14.052-25.737c8.03-6.034 17.684-10.653 28.964-13.859 11.28-3.205 23.229-4.807 35.847-4.807 22.56 0 39.814 5.326 51.763 15.979zm-32.692 106.906c6.978-4.054 11.9-9.852 14.769-17.394v-17.535h-36.994c-20.648 0-30.972 6.694-30.972 20.08 0 6.411 2.58 11.502 7.743 15.273 5.162 3.77 12.331 5.656 21.508 5.656 8.986 0 16.967-2.027 23.946-6.08zm159.017-34.929l-26.67 24.889v39.877h-35.847V1280h35.847v126.703l74.274-67.877h43.017l-63.951 63.352 69.973 87.674h-43.59l-53.053-64.766z" fill-rule="nonzero"/><path d="M159.6 2006.72c-30.987 0-60.947-4.2-89.88-12.6-28.933-8.4-52.173-19.32-69.72-32.76l30.8-68.32c16.8 12.32 36.773 22.213 59.92 29.68 23.147 7.467 46.293 11.2 69.44 11.2 25.76 0 44.8-3.827 57.12-11.48 12.32-7.653 18.48-17.827 18.48-30.52 0-9.333-3.64-17.08-10.92-23.24-7.28-6.16-16.613-11.107-28-14.84-11.387-3.733-26.787-7.84-46.2-12.32-29.867-7.093-54.32-14.187-73.36-21.28-19.04-7.093-35.373-18.48-49-34.16-13.627-15.68-20.44-36.587-20.44-62.72 0-22.773 6.16-43.4 18.48-61.88 12.32-18.48 30.893-33.133 55.72-43.96 24.827-10.827 55.16-16.24 91-16.24 25.013 0 49.467 2.987 73.36 8.96 23.893 5.973 44.8 14.56 62.72 25.76l-28 68.88c-36.214-20.533-72.426-30.8-108.64-30.8-25.387 0-44.147 4.107-56.28 12.32-12.133 8.213-18.2 19.04-18.2 32.48 0 13.44 7 23.427 21 29.96 14 6.533 35.373 12.973 64.12 19.32 29.867 7.093 54.32 14.187 73.36 21.28 19.04 7.093 35.373 18.293 49 33.6 13.627 15.307 20.44 36.027 20.44 62.16 0 22.4-6.253 42.84-18.76 61.32-12.507 18.48-31.267 33.133-56.28 43.96-25.013 10.827-55.44 16.24-91.28 16.24zm365.68-2.24c-31.733 0-60.2-6.627-85.4-19.88-25.2-13.253-44.893-31.64-59.08-55.16-14.187-23.52-21.28-50.213-21.28-80.08 0-29.867 7.093-56.56 21.28-80.08 14.187-23.52 33.88-41.907 59.08-55.16 25.2-13.253 53.667-19.88 85.4-19.88 31.733 0 60.107 6.627 85.12 19.88 25.013 13.253 44.613 31.64 58.8 55.16 14.187 23.52 21.28 50.213 21.28 80.08 0 29.867-7.093 56.56-21.28 80.08-14.187 23.52-33.787 41.907-58.8 55.16-25.013 13.253-53.387 19.88-85.12 19.88zm0-71.68c22.4 0 40.787-7.56 55.16-22.68 14.373-15.12 21.56-35.373 21.56-60.76s-7.187-45.64-21.56-60.76c-14.373-15.12-32.76-22.68-55.16-22.68s-40.88 7.56-55.44 22.68c-14.56 15.12-21.84 35.373-21.84 60.76s7.28 45.64 21.84 60.76c14.56 15.12 33.04 22.68 55.44 22.68zm319.2-227.36h77.28v67.2h-75.04V2000h-87.36v-227.36h-46.48v-67.2h46.48V1692c0-34.347 10.173-61.6 30.52-81.76 20.347-20.16 49-30.24 85.96-30.24 13.067 0 25.48 1.4 37.24 4.2 11.76 2.8 21.56 6.813 29.4 12.04l-22.96 63.28c-10.08-7.093-21.84-10.64-35.28-10.64-26.507 0-39.76 14.56-39.76 43.68v12.88zm335.28 280c-8.587 6.347-19.133 11.107-31.64 14.28-12.507 3.173-25.667 4.76-39.48 4.76-35.84 0-63.56-9.147-83.16-27.44-19.6-18.293-29.4-45.173-29.4-80.64v-123.76H949.6v-67.2h46.48v-73.36h87.36v73.36h75.04v67.2h-75.04v122.64c0 12.693 3.267 22.493 9.8 29.4 6.533 6.907 15.773 10.36 27.72 10.36 13.813 0 25.573-3.733 35.28-11.2l23.52 61.6zm533.12-286.72L1603.68 2000h-84l-67.76-187.04-70 187.04h-84l-108.64-301.28h82.32l71.12 203.84 73.92-203.84h73.92l71.68 203.84 73.36-203.84h77.28zm162.4-4.48c46.667 0 82.507 11.107 107.52 33.32 25.013 22.213 37.52 55.72 37.52 100.52V2000h-81.76v-37.52c-16.427 28-47.04 42-91.84 42-23.147 0-43.213-3.92-60.2-11.76-16.987-7.84-29.96-18.667-38.92-32.48-8.96-13.813-13.44-29.493-13.44-47.04 0-28 10.547-50.027 31.64-66.08 21.093-16.053 53.666-24.08 97.72-24.08h69.44c0-19.04-5.787-33.693-17.36-43.96-11.573-10.267-28.933-15.4-52.08-15.4-16.053 0-31.827 2.52-47.32 7.56-15.493 5.04-28.653 11.853-39.48 20.44l-31.36-61.04c16.427-11.573 36.12-20.533 59.08-26.88 22.96-6.347 46.573-9.52 70.84-9.52zm-6.72 251.44c14.933 0 28.187-3.453 39.76-10.36 11.573-6.907 19.787-17.08 24.64-30.52V1874h-59.92c-35.84 0-53.76 11.76-53.76 35.28 0 11.2 4.387 20.067 13.16 26.6 8.773 6.533 20.813 9.8 36.12 9.8zm314.16-207.2c10.453-14.56 24.547-25.573 42.28-33.04 17.733-7.467 38.173-11.2 61.32-11.2v80.64c-9.707-.747-16.24-1.12-19.6-1.12-25.013 0-44.613 7-58.8 21-14.187 14-21.28 35-21.28 63V2000h-87.36v-301.28h83.44v39.76zm453.04 112c0 1.12-.56 8.96-1.68 23.52h-227.92c4.107 18.667 13.813 33.413 29.12 44.24 15.307 10.827 34.347 16.24 57.12 16.24 15.68 0 29.587-2.333 41.72-7s23.427-12.04 33.88-22.12l46.48 50.4c-28.373 32.48-69.813 48.72-124.32 48.72-33.974 0-64.027-6.627-90.16-19.88-26.133-13.253-46.293-31.64-60.48-55.16-14.187-23.52-21.28-50.213-21.28-80.08 0-29.493 7-56.093 21-79.8 14-23.707 33.227-42.187 57.68-55.44 24.453-13.253 51.8-19.88 82.04-19.88 29.493 0 56.187 6.347 80.08 19.04 23.893 12.693 42.653 30.893 56.28 54.6 13.627 23.707 20.44 51.24 20.44 82.6zm-156.24-90.16c-19.787 0-36.4 5.6-49.84 16.8-13.44 11.2-21.653 26.507-24.64 45.92h148.4c-2.987-19.04-11.2-34.253-24.64-45.64-13.44-11.387-29.867-17.08-49.28-17.08z"/></g><g fill-rule="nonzero"><path d="M780 0l168.46 47.197C1016.356 25.749 1068.378.01 1300.493.01s271.725 21.359 351.57 47.187L1820 0v721.19c0 71.871-43.222 423.092-520 423.092S780 799.363 780 720.947V0z" fill="#33A1FD"/><path d="M1486.269 212.339c-81.409 0-151.826 47.635-185.622 116.891-33.795-69.256-104.214-116.891-185.622-116.891-114.304 0-206.965 93.893-206.965 209.717 0 115.824 92.66 209.718 206.965 209.718 41.009 0 79.23-12.088 111.389-32.936l-.145.168L1300 684.203l73.731-85.197-1.9-2.196c32.78 22.086 72.122 34.964 114.438 34.964 114.303 0 206.965-93.894 206.965-209.718 0-115.824-92.662-209.717-206.965-209.717z" fill="#FFF"/><path d="M1111.144 283.119c-20.471 0-39.86 4.683-57.19 13.041 17.097 9.274 28.733 27.539 28.733 48.563 0 30.404-24.324 55.051-54.329 55.051-18.164 0-34.234-9.041-44.099-22.916-4.117 13.008-6.349 26.873-6.349 41.266 0 74.563 59.652 135.006 133.234 135.006 73.583 0 133.234-60.443 133.234-135.006 0-74.56-59.651-135.005-133.234-135.005zm379.006 0c-20.47 0-39.86 4.683-57.192 13.041 17.1 9.273 28.734 27.539 28.734 48.563 0 30.404-24.324 55.051-54.329 55.051-18.165 0-34.234-9.041-44.099-22.916-4.116 13.008-6.349 26.873-6.349 41.266 0 74.563 59.65 135.006 133.234 135.006s133.234-60.443 133.234-135.006c0-74.56-59.65-135.005-133.234-135.005z" fill="#172A3A"/><path fill="#33A1FD" d="M1300 719.593L1547.065 1160h-494.13z"/><path fill="#FFF" d="M1300 782.508l200.498 352.588h-400.996z"/><path fill="#33A1FD" d="M1174.527 934.554h250.945v60.294h-250.945z"/></g></g></svg>